<?xml version="1.0" encoding="utf-8"?>
<!-- Generator: Adobe Illustrator 25.2.0, SVG Export Plug-In . SVG Version: 6.00 Build 0)  -->
<svg version="1.1" id="Layer_1" xmlns="http://www.w3.org/2000/svg" xmlns:xlink="http://www.w3.org/1999/xlink" x="0px" y="0px"
     viewBox="0 0 58 58" style="enable-background:new 0 0 58 58;" xml:space="preserve">
    <g fill="#a0a0a0">
<path d="M53.7,24c-0.1-0.1-0.2-0.2-0.3-0.3c0,0,0,0-0.1,0c0,0-0.1-0.1-0.1-0.1c-2.5-1.9-6.3-2.2-10.2-2.2c0,0.1,0,0.3,0,0.4
	c0.1,0.6,0.1,1.1,0.1,1.7c0,0.6,0,1.1-0.1,1.6c0,0.1,0,0.1,0,0.2c0.5,0,1,0.1,1.5,0.2c0.6,0.1,1.2,0.1,1.7,0.3
	c1,0.2,1.9,0.8,2.7,1.5c1.2,0.8,2.2,2.1,3.2,4.1c0.2,1.8-1.3,3.5-3.6,5.1c-2.7,2.1-5.1-0.2-4.9-2.7c0.1-1.7,0.1-3.6,0.1-5.8
	c-6.6,1.5-8.2,4.6-9.8,9.6c-1.6-8.1,5.5-11.2,5.5-11.2s0.8-3.7,0-5.7C35.1,17.8,29.2,4.9,29,4.5v0v0v0v0
	c-0.2,0.4-6.1,13.3-10.5,16.2c-0.8,1.9,0,5.7,0,5.7s7,3.1,5.5,11.2c-1.6-5-3.1-8.1-9.8-9.6c0,2.2-0.1,4.1,0.1,5.8
	c0.2,2.5-2.2,4.7-4.9,2.7c-2.3-1.7-3.8-3.3-3.5-5.1c1-2,2-3.3,3.2-4.1c0.8-0.7,1.7-1.2,2.7-1.5c0.6-0.1,1.1-0.2,1.7-0.3
	c0.5-0.1,1-0.1,1.5-0.2c0-0.1,0-0.1,0-0.2c-0.1-0.5-0.1-1.1-0.1-1.6c0-0.6,0-1.1,0.1-1.7c0-0.1,0-0.3,0-0.4
	c-3.8-0.1-7.6,0.3-10.2,2.2c0,0-0.1,0.1-0.1,0.1c0,0,0,0-0.1,0c-0.1,0.1-0.2,0.2-0.3,0.3c-3.5,3-4.6,7.5-4.2,11.7
	c0.7,2.8,2.2,6,5.6,8.3c0.6,0.4,1.3,0.8,2,1.2c0.3,0.2,0.6,0.3,0.9,0.5C16,49.6,26.2,53,29,53.5c2.8-0.5,13-3.9,20.3-7.8
	c0.3-0.2,0.6-0.3,0.9-0.5c0.7-0.4,1.4-0.8,2-1.2c3.4-2.4,5-5.6,5.6-8.3C58.3,31.4,57.2,27,53.7,24z M29,27.2l-3.5-3.5l3.5-6.1
	l3.5,6.1L29,27.2z"/>
    </g>
</svg>
