<svg width="58" height="58" viewBox="0 0 58 58" fill="none" xmlns="http://www.w3.org/2000/svg">
<path d="M36.3264 35.1825C38.9123 36.2096 38.731 40.0561 34.8483 40.2414C34.7073 41.8445 34.4133 43.4717 33.8494 44.9942C38.6787 43.9872 43.2462 41.486 42.8635 38.0986C42.4769 34.6831 38.8559 34.1836 36.3264 35.1785V35.1825Z" fill="#A0A0A0"/>
<path d="M26.1684 38.6305L25.9348 41.2486C25.7938 42.8396 25.4273 44.358 24.8513 45.7678L24.3398 47.0123H24.2391C24.1907 47.105 24.1424 47.2017 24.0941 47.2903C23.0469 49.1833 21.9553 50.146 21.9553 50.146C30.2969 50.146 32.9834 45.6671 32.9834 37.3215V36.2783C32.496 36.4394 32.0087 36.6005 31.5253 36.7576C29.9827 37.2611 27.8681 37.9539 26.1684 38.6305Z" fill="#A0A0A0"/>
<path d="M28.8227 26.4261L25.9832 24.8794V30.3652C28.9476 29.2697 31.2958 28.1943 32.9673 27.1672C32.9713 27.1672 32.9754 27.1591 32.9834 27.1591C32.9834 26.41 32.9834 25.7373 32.9834 25.2056L30.744 26.4261L29.7813 26.9497L28.8187 26.4261H28.8227Z" fill="#A0A0A0"/>
<path d="M18.0122 25.6449C17.6054 23.6109 18.5841 22.4348 18.5841 22.4348L20.8115 26.1726C20.7188 26.2128 18.2055 27.4735 17.2469 30.011L18.7009 30.9696C20.304 29.4753 22.193 28.267 24.0015 27.401V23.8002C21.758 22.5274 20.2597 20.2477 19.9938 17.678C19.8851 16.6227 20.2758 15.6319 20.9726 14.9351C17.4402 15.8856 15.6559 18.0002 14.8101 20.2759L13.348 18.3748C11.0804 24.1345 13.2957 27.4051 13.2957 27.4051L14.5845 28.2549L15.5552 28.8953C16.2238 27.3608 17.1986 26.3135 18.0122 25.6489V25.6449Z" fill="#A0A0A0"/>
<path d="M45.5865 22.4428C45.0951 19.0473 42.4166 17.1623 39.6092 17.0093C39.6052 17.2308 39.5931 17.4483 39.5689 17.6698C39.3676 19.5991 38.4774 21.3633 37.0959 22.6602C38.7231 24.9359 37.1201 27.2116 32.9795 29.4753C31.1308 30.4862 28.7785 31.4932 25.9792 32.5001C25.7617 32.5766 25.5442 32.6572 25.3227 32.7337C19.2206 34.8725 14.1658 35.4766 14.7176 40.0643C15.076 43.0489 17.3276 44.9943 22.9906 44.9943C23.4981 43.7658 23.8083 42.4487 23.9331 41.0632C23.7317 41.1639 23.4901 41.2122 23.2403 41.2122C22.459 41.2122 21.5769 40.745 21.456 39.9434C21.2667 38.6868 23.2001 37.5993 25.9792 36.5319C28.0213 35.7465 30.5226 34.9772 32.9795 34.1555C33.632 33.938 34.2845 33.7165 34.9209 33.4869C42.771 30.6997 46.2631 27.1271 45.5824 22.4387L45.5865 22.4428Z" fill="#A0A0A0"/>
<path d="M25.0849 22.1003L29.3543 24.4243L29.7813 24.6579L30.4257 24.3075L34.0266 22.35L34.4817 22.1003C35.0053 21.8143 35.4645 21.4518 35.8713 21.0409C36.8138 20.0864 37.43 18.8337 37.571 17.4643C37.6153 17.0253 37.6113 16.5903 37.5629 16.1633C37.5267 15.829 37.4502 15.4987 37.3575 15.1805C37.0796 14.2259 36.5721 13.3398 35.8471 12.6148L35.0818 11.8496L32.0086 8.77637C31.3924 8.16012 30.5828 7.854 29.7772 7.854C28.9717 7.854 28.1581 8.16012 27.5418 8.77637L26.7041 9.61414C25.4716 10.8466 25.4716 12.8484 26.7041 14.0809L27.5418 14.9187C27.7996 15.1765 28.0936 15.3779 28.4078 15.5269V20.7953L26.3859 19.6957C25.4474 19.1841 24.8191 18.2416 24.7063 17.1783C24.6338 16.4734 24.0417 15.9498 23.3449 15.9498C23.3006 15.9498 23.2522 15.9498 23.2039 15.9579C22.4507 16.0344 21.907 16.7071 21.9835 17.4603C22.1889 19.4218 23.3449 21.1578 25.0768 22.1003H25.0849ZM31.1507 15.5309C31.4649 15.3819 31.7549 15.1805 32.0167 14.9228L33.1525 13.7869L33.9178 14.5522C34.6146 15.249 34.9529 16.2076 34.8522 17.1864C34.7435 18.2497 34.1152 19.1922 33.1767 19.7037L31.1547 20.8033V15.535L31.1507 15.5309Z" fill="#A0A0A0"/>
</svg>
