<svg width="58" height="58" viewBox="0 0 58 58" fill="none" xmlns="http://www.w3.org/2000/svg">
<path d="M31.8235 22.0158C31.8235 21.8507 31.8356 21.6936 31.8558 21.5325C31.8759 21.3794 31.9121 21.2263 31.9524 21.0773C32.5767 18.854 35.4526 17.2227 40.0362 16.7837C38.9527 11.6805 34.4214 7.8501 28.996 7.8501C23.5706 7.8501 19.0394 11.6805 17.9559 16.7837C22.6442 17.2308 25.5402 18.9265 26.0759 21.2304C26.1041 21.3552 26.1283 21.4761 26.1444 21.605C26.1605 21.7419 26.1726 21.8748 26.1726 22.0158C26.1726 23.5302 24.8837 25.9912 21.8548 27.8601C19.4824 29.3262 16.0467 30.4258 11.3262 30.4258C13.1991 34.8443 16.6791 38.4129 21.0371 40.4066L21.1096 40.4912L29.0001 50.1418L36.8905 40.4912L36.963 40.4066C41.317 38.4169 44.801 34.8483 46.6699 30.4258C35.9198 30.4258 31.8235 24.7104 31.8235 22.0118V22.0158ZM25.951 15.5915C25.1052 15.0437 24.1345 14.5845 23.051 14.214C24.4849 12.4901 26.6478 11.4107 29.0001 11.4107C31.3523 11.4107 33.5112 12.4901 34.9491 14.214C33.8656 14.5845 32.8949 15.0437 32.0491 15.5915C30.6635 16.4857 29.6364 17.6094 29.0001 18.8822C28.3677 17.6094 27.3366 16.4857 25.951 15.5915ZM32.1941 41.1598C30.5427 39.1379 27.4534 39.1379 25.802 41.1598L19.0313 32.8787L21.6333 30.7077L26.4988 35.4887L28.996 32.3551L31.4933 35.4887L36.3588 30.7077L38.9608 32.8787L32.1901 41.1598H32.1941Z" fill="#A0A0A0"/>
</svg>
