<svg width="58" height="58" viewBox="0 0 58 58" fill="none" xmlns="http://www.w3.org/2000/svg">
<path d="M49.9041 33.1084C50.5284 31.9766 49.8799 30.4944 48.6877 30.3655C34.8442 28.8954 44.4424 15.4748 32.6894 13.2837C32.2584 16.1797 30.7681 18.9669 28.9999 18.9669C27.2317 18.9669 25.7414 16.1797 25.3105 13.2837C13.5574 15.4748 23.1556 28.8913 9.31214 30.3655C8.11992 30.4904 7.47145 31.9766 8.09575 33.1084C9.56992 35.7788 12.1638 39.9556 15.378 42.9845C16.0546 43.6209 16.7595 44.2049 17.4885 44.7165C20.2556 41.752 24.3841 39.867 28.9999 39.867C33.6158 39.867 37.7442 41.752 40.5113 44.7165C41.2403 44.2049 41.9452 43.6209 42.6219 42.9845C45.836 39.9556 48.4259 35.7788 49.9041 33.1084ZM32.4477 30.5548C33.4345 31.2274 34.8039 31.163 35.8028 31.3644C36.7171 31.5497 37.4824 32.1095 37.6314 32.9392C37.8369 34.063 36.2137 36.4797 35.098 36.7092C34.2763 36.8784 33.4748 36.3709 32.9632 35.5895C32.4074 34.7316 31.9523 33.4306 30.9655 32.762C30.5103 32.4519 29.7974 31.9645 28.9999 31.4167C28.2024 31.9645 27.4895 32.4519 27.0344 32.762C26.0476 33.4347 25.5924 34.7356 25.0366 35.5895C24.5251 36.3709 23.7235 36.8784 22.9019 36.7092C21.7862 36.4797 20.163 34.063 20.3684 32.9392C20.5214 32.1095 21.2867 31.5497 22.197 31.3644C23.1959 31.163 24.5653 31.2234 25.5521 30.5548C25.8864 30.3292 26.261 30.0715 26.6517 29.8056C26.261 29.5398 25.8864 29.282 25.5521 29.0565C24.5653 28.3838 23.1959 28.4483 22.197 28.2469C21.2827 28.0616 20.5174 27.5017 20.3684 26.672C20.163 25.5483 21.7862 23.1316 22.9019 22.902C23.7235 22.7329 24.5251 23.2404 25.0366 24.0217C25.5924 24.8797 26.0476 26.1806 27.0344 26.8492C27.4895 27.1594 28.2024 27.6467 28.9999 28.1945C29.7974 27.6467 30.5103 27.1594 30.9655 26.8492C31.9523 26.1766 32.4074 24.8756 32.9632 24.0217C33.4748 23.2404 34.2763 22.7329 35.098 22.902C36.2137 23.1316 37.8369 25.5483 37.6314 26.672C37.4784 27.5017 36.7131 28.0616 35.8028 28.2469C34.8039 28.4483 33.4345 28.3879 32.4477 29.0565C32.1134 29.282 31.7388 29.5398 31.3481 29.8056C31.7388 30.0715 32.1134 30.3292 32.4477 30.5548Z" fill="#A0A0A0"/>
</svg>
