<svg width="58" height="58" viewBox="0 0 58 58" fill="none" xmlns="http://www.w3.org/2000/svg">
<path d="M48.7642 28.6577H42.1466L36.266 34.647L34.526 31.5416L42.1466 23.7801V10.4562C42.1466 9.03839 40.2616 8.547 39.5688 9.78353L30.4056 26.1444C29.7894 27.2439 28.2064 27.2439 27.5902 26.1444L18.431 9.78353C17.7382 8.547 15.8533 9.03839 15.8533 10.4562V23.7841L23.4738 31.5456L21.7338 34.651L15.8492 28.6617H9.23158C7.842 28.6617 7.32644 30.4903 8.51464 31.2153L19.3373 37.8249L16.5098 47.1492C16.1513 48.3294 17.4039 49.3484 18.4874 48.7603L26.261 44.4627C26.8531 44.1364 27.2196 43.5121 27.2196 42.8395V42.8033C27.2196 42.332 27.0424 41.8769 26.7202 41.5345L24.231 38.8721L29.0039 30.3453L33.7769 38.8721L31.1709 41.5264C30.8285 41.8728 30.6392 42.3401 30.6392 42.8274C30.6392 43.5081 31.0098 44.1324 31.6099 44.4587L39.5205 48.7563C40.6039 49.3444 41.8526 48.3253 41.4981 47.1452L38.6706 37.8209L49.4932 31.2113C50.6814 30.4863 50.1659 28.6577 48.7763 28.6577H48.7642Z" fill="#A0A0A0"/>
</svg>
