<?xml version="1.0" encoding="utf-8"?>
<!-- Generator: Adobe Illustrator 24.2.3, SVG Export Plug-In . SVG Version: 6.00 Build 0)  -->
<svg version="1.1" id="Layer_1" xmlns="http://www.w3.org/2000/svg" xmlns:xlink="http://www.w3.org/1999/xlink" x="0px" y="0px"
	 viewBox="0 0 58 58" style="enable-background:new 0 0 58 58;" xml:space="preserve">
<g fill="#a0a0a0">
	<g>
		<path d="M53.7,10c0,0-5.9,4-9,4c-2.4,0-11.5,0.2-15.8,0.2C24.6,14.1,15.5,14,13.1,14c-3.1,0-9-4-9-4C2,8.7-0.3,8.2,1.9,11.8
			s5.7,10.8,11.2,10.8c0.8,0,1.7,0,2.8,0v3.9h-5.4c-1.1,0-2,0.9-2,2v1.8c0,1.1,0.9,2,2,2h5.4v15c0,0,1,1.7,3.9,1.7s3.9-1.7,3.9-1.7
			v-15h5.2h0.4h5.2v15l0,0c0,0,1,1.7,3.9,1.7s3.9-1.7,3.9-1.7l0,0v-15h5.4c1.1,0,2-0.9,2-2v-1.8c0-1.1-0.9-2-2-2h-5.4v-3.9
			c1,0,1.9,0,2.7,0c5.6,0,9.1-7.2,11.2-10.7S55.9,8.8,53.7,10z M34.3,26.5h-5.2h-0.4h-5.2v-3.9c1.1,0,2.2,0,3.2,0c2.6,0,4.4,0,4.4,0
			c1,0,2,0,3.2,0V26.5z"/>
	</g>
</g>
</svg>
