<?xml version="1.0" encoding="utf-8"?>
<!-- Generator: Adobe Illustrator 24.2.3, SVG Export Plug-In . SVG Version: 6.00 Build 0)  -->
<svg version="1.1" id="Layer_1" xmlns="http://www.w3.org/2000/svg" xmlns:xlink="http://www.w3.org/1999/xlink" x="0px" y="0px"
	 viewBox="0 0 58 58" style="enable-background:new 0 0 58 58;" xml:space="preserve">
    <g fill="#a0a0a0">
<path d="M18.8,25.7c0,0,0-6.6,0-8.6c0-2-2.5-2.3-2.5-2.3V8.7c0,0,5.3-1.1,5.9-7.7C23.8,1,27,1,27,1l14.4,9.4v16.5l-7.7-7.7
	c0,0,2.8,0,1.9-3.1c-1.2-1-8.8-5.5-8.8-5.5V23c0,0,11.6,3.6,17.3,14.9c-1.6,1.7-1.9,2.7-1.9,2.7l-0.2,7.3c0,0-11.2,3.3-16.8,9.1
	c-2.6-2.7-5.2-6.1-5.2-6.1l3.5-3.6l1.9,2c0,0,3.9-2.9,7.5-4.2c0-1.7,0.1-9.4,0.1-9.4s-6-7.2-13.8-7.2C18.8,27.7,18.8,25.7,18.8,25.7
	z M22,45.1L18,41l-4,4.1l4,4.1L22,45.1z M27.4,39.5l-4-4.1l-4,4.1l4,4.1L27.4,39.5z"/>
    </g>
</svg>
