<?xml version="1.0" encoding="utf-8"?>
<!-- Generator: Adobe Illustrator 24.2.3, SVG Export Plug-In . SVG Version: 6.00 Build 0)  -->
<svg version="1.1" id="Layer_1" xmlns="http://www.w3.org/2000/svg" xmlns:xlink="http://www.w3.org/1999/xlink" x="0px" y="0px"
	 viewBox="0 0 58 58" style="enable-background:new 0 0 58 58;" xml:space="preserve">
    <g fill="#a0a0a0">
<path d="M51.6,25.5l-2.1,3.2l-3.7-9.1l-6-1.7l-3.3-7.5L27.9,5l2.1,5.4l1.1,5.4l-9.7-1.1l-8.6-4.3H1l9.7,5.4l6.5,9.7l-14,4.3l16.2,14
	l8.6-3.2l-3.2,7.6l18,4.7l4.6-3.7v-7.6L43,43.9l-7.5-3.2l2.1-1.1l-5.3-4.1l-1.2-2.4h7.5l-1.1,3.2h7.5l-1.1,3.2h9.7l3.2,3.2v-8.6
	L51.6,25.5z M33.5,27.2l-3.5-5.6l7.2,1.8l2.2,4.8L33.5,27.2z"/>
    </g>
</svg>
