<?xml version="1.0" encoding="utf-8"?>
<!-- Generator: Adobe Illustrator 24.2.3, SVG Export Plug-In . SVG Version: 6.00 Build 0)  -->
<svg version="1.1" id="Layer_1" xmlns="http://www.w3.org/2000/svg" xmlns:xlink="http://www.w3.org/1999/xlink" x="0px" y="0px"
	 viewBox="0 0 58 58" style="enable-background:new 0 0 58 58;" xml:space="preserve">
    <g fill="#a0a0a0">
<path d="M39.7,18.4c-4.5,5.4-8.6,10.9-7.7,22.1c0.5,6,5.3,13.9,5.3,13.9s-0.4,2.9-4.5,2.5c-1.9-3.9-3.8-10-4.6-15.3L28.1,41
	C9.5,41.7,6.7,25.3,8.4,18.3c4-0.6,10.8,0.5,15.6,4.6c0.4-3.5,2.2-7.1,6.5-9.8C43.8,4.5,45.1,1,45.1,1s16.1,27.2-10,38.3
	C34.1,29.2,36.6,23.7,39.7,18.4z"/>
    </g>
</svg>
