<?xml version="1.0" encoding="utf-8"?>
<!-- Generator: Adobe Illustrator 24.2.3, SVG Export Plug-In . SVG Version: 6.00 Build 0)  -->
<svg version="1.1" id="Layer_1" xmlns="http://www.w3.org/2000/svg" xmlns:xlink="http://www.w3.org/1999/xlink" x="0px" y="0px"
	 viewBox="0 0 58 58" style="enable-background:new 0 0 58 58;" xml:space="preserve">
    <g fill="#a0a0a0">
<path d="M53.7,33.2c-5.8-2.2-10.2-5.7-13.7-11.1c-2.5-3.9-5.2-5.3-7.9-5.7C35,15.1,37,12.3,37,9c0-4.4-3.6-8-8-8c-4.4,0-8,3.6-8,8
	c0,3.3,2,6.1,4.8,7.4c-2.7,0.5-5.4,1.9-7.9,5.7c-3.5,5.3-7.8,8.8-13.7,11.1c-5.8,2.2-3.1,5.4,1.6,4.6c4.7-0.8,12.3-4,14.6-7.3
	c0,3.1,0,10.1,0,10.1S10.2,47,7,49.3c-3.3,2.2-4.3,8.8,3.5,7.6c7.8-1.3,18.6-4.1,18.6-4.1s10.7,2.8,18.6,4.1
	c7.8,1.3,6.8-5.3,3.5-7.6c-3.3-2.2-13.6-8.7-13.6-8.7s0-7,0-10.1c2.3,3.3,10,6.5,14.6,7.3C56.8,38.6,59.5,35.4,53.7,33.2z"/>
    </g>
</svg>
