<?xml version="1.0" encoding="utf-8"?>
<!-- Generator: Adobe Illustrator 24.2.3, SVG Export Plug-In . SVG Version: 6.00 Build 0)  -->
<svg version="1.1" id="Layer_1" xmlns="http://www.w3.org/2000/svg" xmlns:xlink="http://www.w3.org/1999/xlink" x="0px" y="0px"
	 viewBox="0 0 58 58" style="enable-background:new 0 0 58 58;" xml:space="preserve">
    <g fill="#a0a0a0">
<path d="M39.2,18.6c-1.6,0-3.1,0.3-4.4,0.9l-4,22.7l-4.3,6.3l-2.6-28.8c-1.5-0.7-3.2-1.2-5-1.2C12.9,18.6,8,23.3,8,29
	c0,2.4,0.8,4.5,2.2,6.3l0,0c0.2,0.3,0.4,0.5,0.6,0.8L28.9,57l18.3-20.9c1.7-1.9,2.8-4.3,2.8-7C50,23.3,45.1,18.6,39.2,18.6z
	 M29,25.3c1-2.6,3.1-4.7,5.7-5.8l0.5-4.1l2.8,0c0.9,0,1.7-0.8,1.7-1.7l0-0.7c0-1-0.8-1.7-1.7-1.8l-5-0.1l0-6.1c0-2.2-1.7-4-3.9-4
	c-2.2,0-3.9,1.7-3.9,3.9l0,6.1L20,11c-0.9,0-1.7,0.8-1.7,1.7l0,0.7c0,1,0.8,1.7,1.7,1.8l3.6,0l0.3,4.5C26.2,20.9,28,22.9,29,25.3z"
	/>
    </g>
</svg>
