<?xml version="1.0" encoding="utf-8"?>
<!-- Generator: Adobe Illustrator 24.2.3, SVG Export Plug-In . SVG Version: 6.00 Build 0)  -->
<svg version="1.1" id="Layer_1" xmlns="http://www.w3.org/2000/svg" xmlns:xlink="http://www.w3.org/1999/xlink" x="0px" y="0px"
	 viewBox="0 0 58 58" style="enable-background:new 0 0 58 58;" xml:space="preserve">
    <g fill="#a0a0a0">
<path d="M47.9,25.9v-5.5l0,0c-0.4-6.4-7.8-12-17-12s-16.6,5.6-16.9,12l0,0v5.3c-10.7,0-12.7,5.4-13,10C0.9,38,1,40.2,1.3,42.3h16.5
	V35c0-6.3,5.8-11.3,13-11.3s11.6,3.7,11.6,10.4c0,6.3-6.2,6.3-7.6,6.2c3.2-1.9,4.7-5.6,3.3-8.5c-1.3-2.4-3.9-3.7-6.5-3.2l0,0
	c-5.4,0.5-8.2,4.4-8.2,10.8s3,8.8,7.5,10.2h15.5c5.9,0,10.7-5.3,10.7-11.9C57,31.7,53.1,26.8,47.9,25.9z"/>
    </g>
</svg>
