<?xml version="1.0" encoding="utf-8"?>
<!-- Generator: Adobe Illustrator 24.2.3, SVG Export Plug-In . SVG Version: 6.00 Build 0)  -->
<svg version="1.1" id="Layer_1" xmlns="http://www.w3.org/2000/svg" xmlns:xlink="http://www.w3.org/1999/xlink" x="0px" y="0px"
	 viewBox="0 0 58 58" style="enable-background:new 0 0 58 58;" xml:space="preserve">
    <g fill="#a0a0a0">
<path d="M49.1,37.8l-9-18.9c-1.4-3-3.7-8.2-6.4-11.1c-0.2-0.2-0.3-0.4-0.5-0.5c-5.1-5.6-16.1-8.1-19.7-4.9c-3.5,3.1-2.3,14,2.5,19.8
	l0,0c1.8,2.2,3.7,4.7,6,6.4l6.8,4.9c-0.7,0.2-1.4,0.5-2.1,0.7l-6.3,2l-6.3,2.1l-4.3,1.4c-1.2,0.4-2,1.9-0.4,2.8l3.5,2
	c1.9,1.1,3.7,2.2,5.6,3.2l5.6,3.2c3.8,2.1,7.5,4.1,11.4,6.2c0.2,0.1,0.5,0.1,0.7-0.1c0.2-0.2,0.2-0.6,0-0.9
	c-3.2-2.9-6.4-5.8-9.6-8.7L22.9,44l5.9-0.9c2.2-0.3,4.3-0.7,6.5-1l6.6-0.8l5.9-0.7C49.7,40.4,49.8,39.3,49.1,37.8z M30.8,26.3
	l-9.8-7.6c-1.3-1.1-1.2-1.2-2.4-2.8c-2-2.6-2.6-7.5-0.9-9s6.4-0.2,8.8,2c1.4,1.3,2.3,2.7,2.7,3.5l4.4,8.3l-6.2-2.7L30.8,26.3z"/>
    </g>
</svg>
