<?xml version="1.0" encoding="utf-8"?>
<!-- Generator: Adobe Illustrator 24.2.3, SVG Export Plug-In . SVG Version: 6.00 Build 0)  -->
<svg version="1.1" id="Layer_1" xmlns="http://www.w3.org/2000/svg" xmlns:xlink="http://www.w3.org/1999/xlink" x="0px" y="0px"
	 viewBox="0 0 58 58" style="enable-background:new 0 0 58 58;" xml:space="preserve">
<style type="text/css">
	.st0{fill:#a0a0a0;}
</style>
<path class="st0" d="M38,7.8l12.8-3.9C26.5-5,11,8.7,10.8,19.8l0.4-13.8c-21.5,25-2,44.3,9.5,46.1L6,52.9
	C35.1,66,50.6,44.2,49.9,35.3l4.2,11.6C63,15.5,45.2,7.1,38,7.8z M36.4,38.5c-1.4,5.1-2.4,9.2-9.4,8.3C20,46,25.3,41,20.3,38
	c-7.6-4.6-12.5-4.7-7.3-15.1c3.5,1.8-0.3,4.7,4.3,7.9c13.7,7.5,17.3-13.5-0.4-14c5.5-5,12.4-4.5,16.6,8c3.4-2.8,2.4-8.4-2.6-11.6
	c12.8,0.6,8.1,14.3,8.1,14.3c5.3-1.7,4.2-8.1,4.2-8.1C49.9,24.5,43.1,34.6,36.4,38.5z"/>
</svg>
