<?xml version="1.0" encoding="utf-8"?>
<!-- Generator: Adobe Illustrator 24.2.3, SVG Export Plug-In . SVG Version: 6.00 Build 0)  -->
<svg version="1.1" id="Layer_1" xmlns="http://www.w3.org/2000/svg" xmlns:xlink="http://www.w3.org/1999/xlink" x="0px" y="0px"
	 viewBox="0 0 56 56" style="enable-background:new 0 0 56 56;" xml:space="preserve">
    <g fill="#a0a0a0">
<path d="M45.4,24.1c-1.7-8.7-10.7-12.6-19-11.4c-8.3,1.2-18,9.7-14.5,23.3c0.6,2.2,0.8,4.3,0.7,6.2l-6.1,8.2l16.2,0.7l10.1-4.8
	c2.9,0.5,5.7,2.5,7,8.2c2.9,0,5.3,1.5,5.3,1.5l-5.2-15.6l-9.2-4.6l-3.5-5.1l14.6,3.4l4.1,8.7l3.4,1l1.7-0.2
	C51,43.6,47.1,32.8,45.4,24.1z M9.8,36.7c-4-10.6,1.5-22.5,12.3-26.4c7.5-2.8,15.6-0.9,21.1,4L48.4,4c0,0-31.5-13.6-41.4,9.2
	C1.3,29.2,9.8,36.7,9.8,36.7z"/>
    </g>
</svg>
