<svg width="58" height="58" viewBox="0 0 58 58" fill="none" xmlns="http://www.w3.org/2000/svg">
<path fill-rule="evenodd" clip-rule="evenodd" d="M37.1897 16.2414L29.2587 20.8103L21.2414 16.2414L29.2587 4L37.1897 16.2414ZM54 23.0518L43.3966 16.9311L29.2586 25.1207L13.4828 34.3449L10.6379 32.7069V25.2931L13.4828 23.6552L18.9138 26.8449L25.5517 22.9655L15.1207 16.9311L4 23.3966V34.6035L15.1207 41.069L20.1207 38.138L45.1207 23.6552L47.3621 25.0345V32.9655L45.1207 34.3449L39.6897 31.1552L33.0517 35.0345L43.3966 41.069L54 34.9483V23.0518ZM21.3279 41.8448L29.2589 54L37.1899 41.8448L29.2589 37.1896L21.3279 41.8448Z" fill="#A0A0A0"/>
</svg>
