<svg width="58" height="58" viewBox="0 0 58 58" fill="none" xmlns="http://www.w3.org/2000/svg">
<path fill-rule="evenodd" clip-rule="evenodd" d="M28.3974 14.0457C32.146 9.72007 38.3313 7.81306 44.0949 9.76658C51.6859 12.3248 55.8094 20.511 53.2322 28.046L49.015 40.4184L51.7328 47.4883C52.1545 48.6976 51.2642 49.9534 49.999 49.9534H30.9277V41.9998H28.0225C26.195 41.9998 24.6956 40.5114 24.6956 38.6974V33.6275H22.7275C21.6966 33.6275 20.9938 32.5577 21.4155 31.6275L24.3675 24.9297V24.139C24.3675 20.2319 25.9139 16.697 28.3974 14.0457ZM16.0733 38.6974C16.0733 40.5114 17.5728 41.9998 19.4002 41.9998H22.3055V50H15.4642C14.4333 50 13.6367 49.2093 13.6367 48.186V41.9998H10.7315C8.904 41.9998 7.40454 40.5114 7.40454 38.6974V33.6276H5.4365C4.40562 33.6276 3.70274 32.5578 4.12447 31.6275L7.07653 24.9297V24.139C7.07653 20.232 8.62285 16.697 11.1063 14.0458C14.7613 9.81313 20.806 7.90612 26.4758 9.6736C23.8986 10.4643 21.5557 11.9527 19.7751 14.0458C17.2916 16.697 15.7453 20.232 15.7453 24.139V24.9297L12.7932 31.6275C12.3715 32.5578 13.0744 33.6276 14.1053 33.6276H16.0733V38.6974Z" fill="#A0A0A0"/>
</svg>
