<svg width="58" height="58" viewBox="0 0 58 58" fill="none" xmlns="http://www.w3.org/2000/svg">
<path fill-rule="evenodd" clip-rule="evenodd" d="M36.9574 5.0788L38.9525 4C38.9525 4 50.6377 18.9155 49.9727 24.6848C49.5456 28.5266 45.0427 29.0925 39.8251 29.7482L39.8075 29.7504L33.5849 44.666L23.8947 40.6322C18.0996 38.2401 17.5771 33.9249 19.3821 29.7035C11.972 30.3133 13.2545 37.2082 13.2545 37.2082C9.50194 34.7223 7.4594 31.908 8.12442 29.6097C8.88443 27.03 13.302 26.6547 18.2896 26.6078L37.7174 26.5609C44.7476 26.5609 45.6501 21.4484 41.7075 16.3358C41.7075 20.182 39.9025 23.2776 34.6774 23.2776H19.1921C23.0872 15.6322 29.2623 9.25327 36.9574 5.0788ZM9.31199 45.7918L12.0195 39.9756L32.0649 48.2308L29.3573 54L9.31199 45.7918Z" fill="#A0A0A0"/>
</svg>
