<svg width="58" height="58" viewBox="0 0 58 58" fill="none" xmlns="http://www.w3.org/2000/svg">
<path fill-rule="evenodd" clip-rule="evenodd" d="M47.8469 28.616C45.4093 25.6519 41.7078 21.7896 37.3291 20.083C37.0131 19.9482 36.6971 20.3075 36.8777 20.6219C41.8883 29.9633 49.0657 47.1641 39.2701 51.745C35.8846 53.3618 31.6865 53.1822 29.4294 52.5085C29.1134 52.4187 29.2037 52.0145 29.5197 51.9696C32.5893 51.4307 34.6206 50.4875 35.7491 49.8139C36.0651 49.6342 35.8846 49.23 35.5686 49.2749C30.1968 50.1732 18.9115 50.757 13.2689 36.2059C13.1335 35.8466 13.5849 35.5772 13.8557 35.8466C17.6476 40.0233 22.1617 43.1671 25.457 43.6162C25.8181 43.6611 26.0438 43.2569 25.773 43.0773C23.1097 41.1461 20.3109 38.2718 18.2796 33.9604C14.3072 25.607 12.9981 17.3434 14.4426 12.2685C14.4877 12.1113 14.5441 11.9541 14.6006 11.7969C14.657 11.6397 14.7134 11.4826 14.7586 11.3254C15.6162 9.52894 16.8802 8.27144 18.3699 7.46305C21.7554 5.53188 26.1792 5.84626 28.5266 6.51992C28.8426 6.60974 28.7523 7.05885 28.346 7.05885C27.0369 7.32831 25.8633 7.64269 24.9153 7.95706C23.6965 8.40617 22.7485 8.85528 22.1166 9.21456C21.8457 9.3942 21.9811 9.7984 22.2971 9.75349L22.3038 9.75239C23.7019 9.52049 39.4201 6.91347 48.4789 28.2118C48.6595 28.616 48.1178 28.9753 47.8469 28.616ZM22.5135 30.225C22.7561 28.1431 23.0589 25.5452 23.7416 27.5831C27.1723 37.8227 33.7629 45.3677 37.6451 43.5713C40.1278 42.3587 39.9473 34.0502 35.8846 25.607C31.867 17.1189 25.5021 11.7296 23.0194 12.8972C19.3178 14.6937 18.1893 22.1039 22.0263 32.2089C22.2224 32.7233 22.3552 31.5841 22.5135 30.225ZM13.7204 6.51988C11.0571 8.76542 7.175 15.8613 14.1267 30.9513C14.2621 31.2657 13.7656 31.5352 13.6302 31.2657C12.6822 30.098 11.4183 28.3914 10.1543 26.3704C-1.58236 7.55283 9.88346 5.84622 13.585 6.07077C13.8107 6.07077 13.901 6.34024 13.7204 6.51988ZM44.3712 27.7626C45.3192 28.9752 46.5832 30.6818 47.8471 32.7028C59.5838 51.5204 48.118 53.1821 44.3712 52.9576C44.1455 52.9576 44.0553 52.6881 44.2358 52.5085C46.8991 50.2629 50.7813 43.167 43.8296 28.077C43.6941 27.7626 44.1455 27.4932 44.3712 27.7626ZM34.4399 34.4094C33.8982 32.613 33.0857 30.4123 32.0023 28.1219C31.0092 26.0111 29.9258 24.0799 28.8876 22.5979C27.2625 20.2176 25.818 18.8254 25.0506 19.1847C24.2832 19.5439 24.4638 21.52 25.3214 24.2596C25.8631 26.0111 26.6305 28.0321 27.6688 30.1429C28.7522 32.4333 29.9258 34.4543 31.0092 35.9813C32.544 38.137 33.8531 39.3496 34.5753 39.0352C35.2976 38.7208 35.1622 36.9244 34.4399 34.4094Z" fill="#A0A0A0"/>
</svg>
