<svg width="58" height="58" viewBox="0 0 58 58" fill="none" xmlns="http://www.w3.org/2000/svg">
<path d="M22.8888 14.8543C22.8888 11.069 25.9551 8 29.7371 8C33.5191 8 36.5855 11.069 36.5855 14.8543C36.5855 17.3853 35.2004 19.5701 33.1613 20.7576V22.6906V25.4203C33.1613 27.3121 31.6273 28.8475 29.7371 28.8475C28.7921 28.8475 27.936 28.4636 27.3162 27.8433C26.6965 27.223 26.3129 26.3662 26.3129 25.4203V20.7576C24.2738 19.5701 22.8888 17.3853 22.8888 14.8543ZM13.3011 30.7924L28.8143 38.5087C29.4101 38.8051 30.136 38.7949 30.7199 38.4813L45.5449 30.5474C46.8769 29.8345 46.757 28.0695 45.3377 27.5075L36.5855 24.0443V25.4203C36.5855 29.2005 33.514 32.2747 29.7371 32.2747C25.9603 32.2747 22.8888 29.2005 22.8888 25.4203V23.7907L13.4226 27.7388C12.0067 28.33 11.9348 30.1138 13.3011 30.7924ZM45.5072 33.8974L30.6137 41.5177C30.1241 41.7679 29.5419 41.7679 29.0523 41.5177L13.4945 33.5153C12.3543 32.9293 11 33.7569 11 35.0387V39.189C11 39.8213 11.3476 40.4005 11.904 40.7004L28.8759 49.7961C29.4101 50.0823 30.0556 50.0651 30.5743 49.7498L47.1782 39.6431C47.6884 39.3329 48 38.7777 48 38.1797V35.4225C48 34.1425 46.6457 33.3131 45.5072 33.8974Z" fill="#A0A0A0"/>
</svg>
