<svg width="58" height="58" viewBox="0 0 58 58" fill="none" xmlns="http://www.w3.org/2000/svg">
<path d="M33.0882 28.6907C34.0499 29.7866 34.9678 30.9258 35.9441 31.9929C36.7746 32.9013 37.882 33.2474 38.6688 32.8148C40.6067 31.7477 42.53 30.6663 44.3951 29.5127C45.4879 28.8349 45.4442 28.0418 44.4097 27.2631C44.0891 27.018 43.7248 26.9171 43.346 26.7873C42.7777 26.5998 42.1949 26.4556 41.6412 26.2105C40.6067 25.7779 40.3299 24.7108 41.073 23.8889C42.1512 22.7064 43.3168 21.697 45.1528 21.8701C46.1436 21.9566 47.1781 22.0431 48.1835 21.7403C48.7517 21.5673 49.014 21.2644 48.9994 20.6588C48.9703 19.361 48.9994 18.0488 48.9994 16.751C48.9994 15.5686 48.9994 14.3861 48.9994 13.2037C48.9849 12.0645 48.9703 12.0645 47.7609 12.0501C45.9687 12.0501 44.1765 12.0501 42.3698 12.0068C39.3536 11.9492 39.0331 12.1943 39.1059 15.1792C39.1496 17.2269 38.2462 18.6977 36.7455 19.9234C35.9149 20.6011 34.9678 20.3704 34.5744 19.3754C34.2393 18.5247 33.9042 17.6739 33.4379 16.8664C32.6802 15.5686 31.9371 15.5109 30.9755 16.6501C30.1012 17.6883 29.6641 18.9861 28.8773 20.0532C27.6388 21.7115 27.7116 22.7064 29.0958 24.2205C30.4363 25.6914 31.7623 27.1766 33.0736 28.6763L33.0882 28.6907ZM44.1474 15.4244C45.0945 15.4244 45.7647 16.03 45.721 16.8664C45.6919 17.4864 45.007 17.9911 44.2348 17.9767C43.5208 17.9623 42.9672 17.3999 42.9817 16.7366C42.9817 15.9867 43.5063 15.4244 44.162 15.4244H44.1474Z" fill="#A0A0A0"/>
<path d="M20.5834 32C19.9107 32 19.4795 32.5447 17.2027 36.3928C17.2027 36.3928 16.0816 38.273 14.1843 43.439C14.0808 43.7377 13.8566 44.3527 14.1326 44.7041C14.4258 45.0731 15.0985 45.0907 15.8746 44.792C16.8923 44.3703 17.8754 43.8431 18.8413 43.316C21.0663 42.1211 23.2913 40.9087 25.5163 39.7138C26.327 39.2746 27.3274 38.4487 26.8962 37.412C26.7582 37.0781 26.4995 36.797 26.258 36.5158C24.5332 34.6884 23.4466 34.0207 23.3086 33.9329C20.9283 32.1406 20.9456 32 20.5834 32Z" fill="#A0A0A0"/>
<path d="M14.752 24.4899C14.3186 24.8615 14.011 25.3045 14.011 25.9762C13.9411 26.5193 14.2067 26.9337 14.738 27.1624C15.2694 27.3911 15.8286 27.534 16.4019 27.6197C17.3946 27.7484 18.2754 28.2057 19.0444 28.8345C23.3368 32.3645 27.6152 35.9088 31.9075 39.4388C33.823 41.0108 35.7245 42.6401 37.7379 44.0978C39.5275 45.3983 39.5975 45.3126 41.1215 43.7119C42.24 42.5543 42.3099 41.2395 41.2193 40.039C40.2965 39.0243 39.4297 37.9668 38.5488 36.9378C34.5081 32.1787 30.4814 27.3911 26.4127 22.6606C25.3082 21.3744 24.4833 20.0024 24.2596 18.2588C24.0918 17.0154 23.2529 16.6867 22.1763 17.3013C21.3234 17.7872 20.6243 18.5161 19.9392 19.2163C18.2055 20.9599 16.6535 22.9035 14.766 24.4899H14.752ZM25.1963 28.5058C25.448 28.0913 25.8675 28.0485 26.2729 28.1914C27.4054 28.5915 28.0766 29.5348 28.5939 30.5495C28.8735 31.1068 28.4401 31.6213 27.8529 31.6213C27.5592 31.6213 27.2936 31.4927 27.0419 31.3355C26.3708 30.8782 25.8115 30.2779 25.2802 29.6634C24.9866 29.3204 24.9586 28.906 25.2103 28.5201L25.1963 28.5058Z" fill="#A0A0A0"/>
<path d="M12.3361 24.2056C14.7285 21.8761 17.4606 19.8954 19.7645 17.4962C20.5029 16.7151 21.4628 16.0874 21.832 15.0273C21.9944 14.5531 22.1716 14.023 21.6695 13.6743C20.7244 13.0187 19.7349 12.2794 18.5535 12.1539C16.353 11.9168 14.1378 11.7773 12.0998 13.1164C9.76646 14.6368 8.20105 16.5059 8.00906 19.2398C7.96476 21.4019 8.0386 21.6808 9.26435 23.7313C10.1504 25.2099 11.0808 25.433 12.3361 24.2056Z" fill="#A0A0A0"/>
</svg>
