<svg width="58" height="58" viewBox="0 0 58 58" fill="none" xmlns="http://www.w3.org/2000/svg">
<path d="M36.1341 34.5912C33.2301 35.8503 30.3535 36.9212 27.9469 36.7586C25.7473 36.6146 23.6182 35.5694 21.548 34.3788C21.7853 30.0226 22.6263 25.0448 24.8373 22.4782L28.1352 30.6315C28.371 31.2133 28.9733 31.5754 29.5901 31.5213C30.2198 31.4685 30.7402 31.0151 30.8753 30.4034C31.1916 28.9632 32.0556 26.6989 32.8578 26.1941C32.9498 26.1356 32.9757 26.1413 32.967 26.137C33.8857 26.5506 35.3995 30.3905 36.1341 34.5912ZM37.0312 14.8924L36.7911 20.596C36.7911 20.596 31.9995 18.932 31.9995 8.00098C31.9995 8.00098 20.6122 10.6517 17.6233 19.6463L15.2268 14.8938C15.2268 14.8938 11.6328 21.0722 15.2268 30.3406C15.3347 30.6172 15.4525 30.8768 15.5647 31.1462C16.6314 31.5598 17.6952 32.1287 18.7504 32.7376C19.1817 27.476 20.6021 21.3018 24.6993 18.8949C25.0616 18.6824 25.4972 18.6368 25.894 18.7723C26.2907 18.9063 26.6099 19.2057 26.7666 19.5907L29.3917 26.0814C29.8805 25.1575 30.5159 24.2934 31.3181 23.7886C32.0412 23.3337 32.8477 23.1883 33.6456 23.3722C36.1485 23.944 37.9642 28.6523 38.8368 33.4049C40.0559 32.8645 41.2592 32.3397 42.4136 31.9191C43.0663 30.6472 43.614 29.3268 43.9806 27.9665C43.9806 27.9665 46.8559 15.8463 37.0326 14.8952L37.0312 14.8924ZM28.2128 44.5312C30.0487 44.5312 34.8201 41.2859 38.3825 36.5661C34.6864 38.2159 30.7502 39.9954 27.4193 39.7772C24.1314 39.5619 21.1369 37.6598 18.3537 36.0072C21.8528 41.909 26.2907 44.5298 28.2128 44.5298V44.5312ZM49.0583 34.788C47.6135 33.5703 45.4686 33.8369 42.9916 34.6796C39.0438 41.9746 31.574 47.383 28.2128 47.383C24.0351 47.383 17.7786 42.3581 14.0494 33.874C12.3128 33.3179 10.6509 33.3407 9.04508 34.5499C5.80613 36.9882 9.51662 49.76 28.5694 49.9967C47.6221 50.2348 52.2944 37.5158 49.0597 34.7866L49.0583 34.788Z" fill="#A0A0A0"/>
</svg>
