<svg width="58" height="58" viewBox="0 0 58 58" fill="none" xmlns="http://www.w3.org/2000/svg">
<path d="M9.00413 23.2377C9.00413 23.6825 9.00413 24.0996 9.56194 24.3637C11.4724 25.2951 13.5084 25.9207 15.5165 26.5463C19.0446 27.6446 22.6285 28.5621 26.1845 29.5491C26.7423 29.702 27.3001 29.7715 27.8719 29.8132C30.6609 30.0079 33.2686 29.4518 35.709 28.0338C36.8525 27.3665 38.0379 27.2831 39.1535 28.1867C40.3667 29.1738 41.5939 30.1747 42.835 31.1339C43.5183 31.6761 44.2713 32.0932 45.1917 31.9819C46.1679 31.8707 46.8512 31.3007 47.2695 30.4944C47.66 29.7298 47.1161 29.1321 46.6141 28.6038C46.14 28.1033 45.6658 27.6168 45.1359 27.1719C43.7414 26.0319 42.4306 24.7947 40.9384 23.752C40.2412 23.2655 39.6415 22.626 39.8786 21.6668C40.0738 20.9022 41.3568 20.1376 42.2353 20.1237C43.1697 20.1098 44.0343 20.3878 44.8988 20.7075C46.1679 21.1802 47.4229 21.2775 48.4827 20.1793C49.4171 19.2339 49.0266 17.3989 47.7855 16.9679C46.9488 16.676 46.0702 16.5231 45.2475 16.1755C43.7553 15.5221 42.1656 15.3275 40.548 15.3553C39.6555 15.3692 38.8746 15.6751 38.2749 16.3841C37.5916 17.1904 36.8804 17.9828 36.1832 18.7752C35.3186 19.7622 34.5516 20.8466 33.4639 21.6112C33.0037 21.9309 32.4319 22.1533 31.9438 21.778C31.4558 21.4026 31.8044 20.8744 31.9438 20.4295C32.153 19.7761 32.6829 19.2617 32.7387 18.5527C32.92 16.4397 32.7387 14.3266 32.6969 12.2135C32.6969 11.7269 32.4877 11.2682 32.2367 10.8372C31.6789 9.86409 29.88 9.69727 29.1269 10.5592C28.4576 11.3099 28.0671 12.1718 28.095 13.2144C28.1229 14.41 28.095 15.6195 28.0671 16.815C28.0671 17.246 27.9555 17.7186 27.4535 17.8438C26.9515 17.9828 26.561 17.7047 26.2542 17.3433C26.1008 17.1487 25.9753 16.9123 25.8777 16.676C25.4873 15.689 24.7761 14.9105 23.8836 14.5073C20.3276 12.8808 15.5723 14.1181 15.1121 18.9142C15.0703 19.3174 15.0703 19.7205 15.0284 20.1098C14.9447 20.7353 14.4985 20.8466 13.9546 20.8466C13.3968 20.8466 13.1877 20.5824 13.1877 20.0541C13.1877 18.9976 13.2156 17.9411 13.1877 16.8845C13.1598 15.967 13.3829 15.0634 13.2156 14.1459C13.09 13.4508 12.7414 13.0476 12.0442 12.8252C11.2493 12.5611 10.5381 12.7835 9.77111 12.9503C9.21331 13.0754 9.01808 13.3396 9.01808 13.8817C9.10175 17.0096 8.97624 20.1237 9.00413 23.2377Z" fill="#A0A0A0"/>
<path d="M9.48826 32.1118C9.52929 32.2204 9.57032 32.3289 9.61136 32.4239C9.72078 32.6953 9.81652 32.9667 9.92595 33.238C10.9791 36.0061 12.0323 38.7607 13.0582 41.5424C13.5642 42.9128 14.0703 44.324 14.0156 45.7759C13.9882 46.3458 13.8925 46.97 14.2208 47.4314C14.7542 48.2048 15.9031 47.9741 16.6964 47.947C17.9821 47.9199 19.2679 47.947 20.5536 47.947C21.9897 47.947 23.4259 47.9741 24.8484 47.947C27.1052 47.8792 27.1736 48.5169 27.2146 45.5453C27.2283 44.5004 27.4198 43.5642 27.9943 42.6957C29.4988 40.3754 30.9897 38.0551 32.5216 35.7483C33.3149 34.5678 33.1234 33.428 31.9335 32.7631C30.9076 32.1932 29.5398 32.6003 28.7876 33.7401C28.3909 34.3371 28.0627 35.002 27.666 35.6126C26.8864 36.8067 26.0247 36.766 25.245 35.6262C24.2329 34.1472 22.8925 33.1838 20.9913 33.1838C19.3226 33.1838 18.0232 33.9029 16.9563 35.097C16.2587 35.884 15.1782 35.884 14.9594 34.9613C14.6037 33.4009 13.8241 32.0032 13.3591 30.4971C13.0855 29.6151 12.6889 28.9502 11.9366 28.421C11.3484 28.0004 10.7603 27.8511 10.1311 28.1768C8.48978 29.018 8.9685 30.7006 9.50193 32.1389L9.48826 32.1118Z" fill="#A0A0A0"/>
<path d="M46.9431 46.5184C46.7499 45.2276 46.1428 44.0502 45.3287 43.0289C45.0389 42.6601 44.6664 42.3906 44.2524 42.192C43.8522 41.9934 43.5763 41.7097 43.3969 41.3976C44.0868 40.5039 44.5146 39.3975 44.5146 38.1776C44.5146 35.4398 42.431 33.2128 39.8093 33.0284C39.7127 33.0284 39.6023 33 39.5057 33C39.5057 33 39.4919 33 39.4781 33C39.4091 33 39.3539 33.0142 39.2849 33.0142C39.0503 33.0142 38.8158 33.0426 38.5812 33.0851C38.3742 33.1277 38.181 33.1844 37.9878 33.2553C37.9188 33.2837 37.8499 33.2979 37.7809 33.3263C37.2565 33.5248 36.7736 33.8086 36.3458 34.1632C36.2354 34.2483 36.125 34.3476 36.0284 34.4327C35.987 34.4753 35.9456 34.5036 35.9181 34.5462C35.3799 35.0568 35.0073 35.6243 34.828 36.2484C34.5934 36.8442 34.4554 37.4967 34.4554 38.1776C34.4554 39.284 34.8004 40.3053 35.3799 41.1565C35.2971 41.5536 35.0901 41.8657 34.7038 42.0359C32.7306 42.9438 32.3442 44.8304 32.0544 46.7028C31.8751 47.7951 32.1096 47.9937 33.1997 47.9937C35.2695 48.0079 37.3393 47.9937 39.4091 47.9937C40.4578 47.9937 41.5065 47.9937 42.5552 47.9937C43.6039 47.9937 44.6526 47.9937 45.7013 47.9511C46.8327 47.9086 47.1225 47.6674 46.9569 46.5184H46.9431Z" fill="#A0A0A0"/>
</svg>
