<svg width="58" height="58" viewBox="0 0 58 58" fill="none" xmlns="http://www.w3.org/2000/svg">
<path d="M29.3504 46.6381L33.7264 48.9129C34.2984 49.2022 34.9501 48.7288 34.8437 48.1108L34.0058 43.2983C33.9659 43.0485 34.0457 42.7986 34.2319 42.6277L37.77 39.2221C38.2222 38.775 37.9695 38.0124 37.3443 37.9203L32.4628 37.2234C32.2101 37.184 31.9973 37.0262 31.8776 36.8027L29.6962 32.4241C29.4169 31.8586 28.5922 31.8586 28.3129 32.4241L26.1315 36.8027C26.0251 37.0262 25.799 37.184 25.5463 37.2234L20.6648 37.9203C20.0263 38.0124 19.7736 38.775 20.2391 39.2221L23.7772 42.6277C23.9634 42.7986 24.0432 43.0485 24.0033 43.2983L23.1654 48.1108C23.059 48.7288 23.724 49.2022 24.2827 48.9129L28.6587 46.6381C28.8848 46.5198 29.1509 46.5198 29.377 46.6381H29.3504Z" fill="#A0A0A0"/>
<path d="M12.2787 25.2938C13.5929 26.4348 14.3156 26.4481 15.6824 27.6554C16.7205 28.5708 16.8257 29.4862 16.0372 30.6537C14.9859 32.206 13.8031 33.6653 12.9226 35.3237C12.3838 36.3586 12.6467 36.876 13.79 36.7831C16.6943 36.5708 20.6893 36.1463 21.3595 36.0799C23.7381 35.8146 24.2901 36.0401 25.0786 35.3901C25.6699 34.8992 25.7356 34.4746 26.8001 32.3121C27.2469 31.4099 27.5886 30.2822 28.3377 29.5658C29.1787 28.7698 30.0066 29.3137 30.5192 30.1894C30.9003 30.8395 31.058 31.5957 31.3471 32.2988C31.991 33.7715 32.9109 35.4299 34.5668 35.8677C36.538 36.3984 38.6801 36.5443 40.6907 36.8229C42.0837 37.0219 43.4504 37.1811 43.8184 36.5576C43.9498 36.332 43.9498 36.0136 43.7395 35.5493C42.6619 33.1214 38.4829 29.8179 41.65 27.6023C42.8853 26.7267 44.1469 25.8908 45.3822 25.0152C45.8948 24.657 46.0919 24.1263 45.9605 23.516C45.8159 22.9057 45.3165 22.7996 44.7909 22.6802C42.7539 22.2159 37.9967 21.9107 38.9166 18.846C39.2714 17.6652 41.4004 13.2473 40.2833 12.3054C38.6143 10.899 35.3421 14.5342 33.7126 14.773C31.2682 15.118 30.7557 11.2971 30.1775 9.66521C29.8884 8.84265 28.9159 7.39654 27.9434 8.27216C27.6412 8.53751 27.4835 8.92225 27.3389 9.29373C26.8001 10.5939 26.2744 11.8941 25.7356 13.2075C25.5779 13.5923 25.4071 14.0035 25.0917 14.2821C24.2638 15.0251 22.9759 14.5475 21.9903 14.0433C20.8864 13.4729 19.7825 12.9156 18.6655 12.3452C18.3238 12.1727 17.969 11.9869 17.5879 11.9869C17.2068 11.9869 16.7862 12.186 16.6811 12.5574C16.6154 12.783 16.6811 13.0218 16.7468 13.2473C17.1411 14.7067 17.5222 16.1528 17.9164 17.6122C18.3107 19.1114 18.7049 20.3717 17.0097 20.9688C15.5247 21.4862 14.0265 21.9505 12.5021 22.3751C11.1222 22.7333 11.0565 23.264 11.0171 23.3966C10.8726 24.06 11.6742 24.7631 12.2787 25.2938Z" fill="#A0A0A0"/>
</svg>
