<svg width="58" height="58" viewBox="0 0 58 58" fill="none" xmlns="http://www.w3.org/2000/svg">
<path d="M11.827 16.9377C13.9141 13.972 16.7506 11.5815 20.0591 10.0202C18.6329 11.9111 17.2488 14.2712 16.5734 16.9377H11.827ZM16.5734 41.0623H11.827C13.9141 44.028 16.7506 46.4185 20.0591 47.9798C18.6329 46.0889 17.2488 43.7288 16.5734 41.0623ZM41.4251 16.9377H46.173C44.0859 13.972 41.2494 11.5815 37.9409 10.0202C39.3671 11.9111 40.7483 14.2712 41.4251 16.9377ZM32.4625 49.6907C31.334 49.878 30.1822 50 29 50C27.8178 50 26.6631 49.878 25.5332 49.6907C24.0546 48.34 20.8739 45.0882 19.5973 41.0638H22.3132V38.1591H18.996C18.6619 35.6902 18.7346 34.399 18.736 34.3889L15.8385 34.1812C15.8342 34.248 15.7514 35.6117 16.0694 38.1577H10.1248C8.77848 35.3866 8 32.2874 8 29.0007C8 25.7141 8.77702 22.6134 10.1248 19.8438H16.0709C15.7528 22.3897 15.8356 23.7534 15.84 23.8203L18.7375 23.6184C18.7375 23.6039 18.6634 22.3127 18.9974 19.8423H22.3147V16.9377H19.6002C20.8768 12.9234 24.0619 9.66292 25.539 8.30935C26.6675 8.122 27.8192 8 29 8C30.1808 8 31.3325 8.122 32.461 8.30935C33.9396 9.66292 37.1232 12.9234 38.3998 16.9377H35.6853V19.8423H39.0026C39.3366 22.3127 39.264 23.6024 39.2625 23.6126L42.16 23.8203C42.1644 23.7534 42.2472 22.3897 41.9291 19.8438H47.8752C49.2215 22.6148 50 25.7141 50 29.0007C50 32.2874 49.223 35.3881 47.8752 38.1577H41.9291C42.2472 35.6117 42.1644 34.248 42.16 34.1812L39.2625 34.3831C39.2625 34.3976 39.3366 35.6887 39.0026 38.1577H35.6853V41.0623H38.3998C37.1232 45.0751 33.941 48.3371 32.4625 49.6907ZM29 46.5899L30.8837 37.9297C31.8089 34.4934 34.4929 31.8095 37.9293 30.8844L44.9254 29.0007L37.9293 27.1171C34.4929 26.1919 31.8089 23.508 30.8837 20.0718L29 11.4115L27.1163 20.0718C26.1911 23.508 23.5071 26.1919 20.0708 27.1171L13.0746 29.0007L20.0708 30.8844C23.5071 31.8095 26.1911 34.4934 27.1163 37.9297L29 46.5899ZM41.4251 41.0623C40.7498 43.7288 39.3657 46.0889 37.9394 47.9798C41.2494 46.4171 44.0844 44.028 46.173 41.0623H41.4251Z" fill="#A0A0A0"/>
</svg>
