<svg width="58" height="58" viewBox="0 0 58 58" fill="none" xmlns="http://www.w3.org/2000/svg">
<path d="M28.5256 37.5355C29.3524 38.325 30.1932 39.1145 31.0061 39.904C32.4075 41.2475 33.4024 41.3583 34.986 40.2226C36.3734 39.2115 37.7047 38.1173 39.0501 37.0508C41.1241 35.4164 43.1702 33.7543 45.2583 32.1615C47.0661 30.7764 48.5375 29.1974 48.7758 26.8289C48.9019 25.5547 48.9299 24.2804 49 22.9923H48.972C48.972 22.2582 48.972 21.5103 48.972 20.7762C48.972 20.236 48.7477 19.9867 48.2012 20.0005C47.8789 20.0005 47.5706 20.0005 47.2483 20.0421C45.5946 20.2499 43.941 20.513 42.2873 20.6792C40.5636 20.8454 39.1342 21.5103 38.0411 22.8538C34.8599 26.7735 31.6787 30.7071 28.4976 34.6269C27.8249 35.4579 27.8389 36.8984 28.5116 37.5355H28.5256Z" fill="#A0A0A0"/>
<path d="M23.0869 18.6907C23.2257 21.1752 23.7809 23.6041 23.9475 26.0747C24.1001 28.2955 24.4471 30.4884 24.9052 32.6676C25.044 33.3199 25.2799 33.9861 26.1266 34C26.9872 34 27.4868 33.4726 27.7644 32.7231C28.0698 31.9319 28.0698 31.0991 27.9726 30.2664C27.5562 26.5883 27.2925 22.8824 26.6818 19.232C26.4181 17.6359 26.9872 16.3867 28.2225 15.4012C28.7083 15.0126 29.1802 14.9848 29.7076 15.3041C31.1511 16.1924 31.748 17.5665 31.3454 19.5235C30.9152 21.6332 30.8874 23.7707 30.5959 25.8943C30.5404 26.3107 30.5404 26.7548 30.7347 27.1573C31.1095 27.9207 31.6786 28.0317 32.2893 27.4349C33.2192 26.5189 33.9132 25.4779 34.2602 24.1871C34.8709 21.8969 34.8293 19.5513 34.9959 17.2334C35.0375 16.6088 34.7599 16.0258 34.4129 15.4706C33.3858 13.8467 32.0672 12.4587 30.7764 11.043C29.4717 9.62729 28.4862 9.65505 27.2231 11.1124C26.2515 12.2367 25.2383 13.3193 24.35 14.4991C23.6282 15.4429 22.7954 16.3867 23.0453 17.733C23.0592 18.0523 23.0869 18.3576 23.1008 18.6768L23.0869 18.6907Z" fill="#A0A0A0"/>
<path d="M10.9102 30.2212C12.9599 32.2206 15.3441 33.8391 17.575 35.6345C18.3001 36.2194 19.7083 36.0562 20.1963 35.4713C20.6844 34.8592 20.5449 33.7167 19.8199 33.0367C19.1785 32.4382 18.4674 31.9213 17.826 31.3229C16.6548 30.2484 15.1768 29.5683 14.0614 28.4122C13.1969 27.5281 12.918 26.4944 13.0714 25.3246C13.169 24.563 13.6152 24.1821 14.4518 24.1005C16.2783 23.9101 17.3101 24.9846 18.2443 26.2359C19.2064 27.5281 20.1963 28.793 21.4094 29.8675C22.1066 30.4796 22.5667 30.3708 22.8037 29.4867C22.9989 28.7794 23.0547 28.0585 22.9431 27.3241C22.7479 25.9367 21.7022 25.0118 20.9493 23.9509C19.8199 22.3731 18.4674 20.9858 16.348 20.7274C14.1311 20.4553 11.9141 20.2513 9.69716 20.0065C9.27886 19.9657 9.12549 20.1153 9.11155 20.5097C9.08366 21.3122 9.04183 22.1283 9 22.7676C9.08366 24.1549 9.0976 25.3927 9.26492 26.6168C9.44618 27.9633 9.92025 29.2419 10.9242 30.2212H10.9102Z" fill="#A0A0A0"/>
<path d="M28.5107 38.9452C27.416 37.7598 26.081 36.8606 25.0798 35.5934C24.7728 35.1983 24.3856 34.953 23.8917 35.0075C23.1308 34.9394 22.6635 35.4572 22.1563 35.8659C21.1951 36.6426 21.3152 37.9642 22.3699 38.5774C22.7303 38.7817 23.1575 38.8771 23.4912 39.1087C24.706 39.9535 25.4269 40.8664 24.0119 42.1608C23.1174 42.9783 22.2631 43.8639 21.5021 44.8177C20.7679 45.7442 20.8614 46.4255 21.6356 47.1749C22.6368 48.1422 23.4111 48.2513 24.3322 47.5427C25.3335 46.7797 26.1211 45.7987 27.0155 44.9403C27.95 44.0411 29.018 44.1501 29.7121 45.2673C29.9658 45.6897 30.126 46.1802 30.3396 46.6299C30.8201 47.679 31.4075 47.8561 32.382 47.3111C32.9561 46.9841 33.3566 46.5208 33.717 45.9758C34.1308 45.3627 34.0908 44.8449 33.5969 44.3272C31.9015 42.5423 30.2194 40.7438 28.5374 38.9452H28.5107Z" fill="#A0A0A0"/>
</svg>
