<svg width="58" height="58" viewBox="0 0 58 58" fill="none" xmlns="http://www.w3.org/2000/svg">
<path d="M24.7275 12.3803V9H34.2725V12.3803L29.9198 24.8164L29.0833 24.8244L24.7275 12.3819V12.3803ZM25.7182 27.4197L15.1316 27.5L9.53208 32.3249H9.7579L24.0246 32.1949L25.7182 27.4197ZM33.3963 24.7843L40.3109 17.8391L37.803 12.6564L37.4627 12.9051L33.304 24.7859H33.3963V24.7843ZM33.304 27.3234L34.4634 32.1018L49.1403 31.9685L43.6331 27.2464H43.641L33.304 27.325V27.3234ZM20.7931 24.8983L12.8797 16.9499L12.0082 16.3111L9.80243 24.9978L20.7931 24.8983ZM49.1069 24.6415L46.9902 16.3111L44.5841 18.0735L37.9445 24.741L49.1053 24.6399L49.1069 24.6415ZM25.2602 24.8581L25.7182 24.8533L21.5357 12.9035L21.1954 12.6548L18.5523 18.1184L25.2618 24.8565L25.2602 24.8581ZM30.0916 35.3504L28.9005 35.3617L24.7259 47.289V49H34.2709V47.289L30.0916 35.3504ZM37.6313 35.2814L47.4594 45.151L52.9984 35.8914L51.362 35.1578L37.6313 35.2814ZM33.6173 35.7774L36.9649 45.342H43.1035L43.0876 45.2875L33.6173 35.7758V35.7774ZM20.7994 35.4339L6.73313 35.5607L6 35.8897L11.3848 44.8894L20.801 35.4323L20.7994 35.4339ZM25.5163 35.3906H25.3493L16.0905 44.6904L15.8933 45.342H22.0319L25.5147 35.3906H25.5163Z" fill="#A0A0A0"/>
</svg>
