<svg width="58" height="58" viewBox="0 0 58 58" fill="none" xmlns="http://www.w3.org/2000/svg">
<path d="M48 31.4671C48 31.9903 47.964 32.5047 47.9164 33.0162C39.944 31.2113 35.9939 25.2344 35.9939 25.2344C35.9939 25.2344 29.0916 37.4223 23.1628 39.5875C23.1628 39.5875 20.9188 40.4202 20.4385 30.261C20.4385 30.261 18.5276 29.5227 16.9138 35.5912C15.5841 40.5873 15.9476 44.5356 15.9476 44.5356C15.9476 44.5356 15.887 44.9599 15.6447 45.4366C11.6037 42.1611 10.0015 36.8744 10.0015 31.4671C10 21.6828 18.3762 13.7455 28.7556 13.622C28.1715 11.7604 27.2975 8.69422 27.7013 8.1391C28.2148 7.43285 33.2537 9.43389 34.5906 14.1669C36.9039 12.9085 41.3602 10.6502 42.4347 11.3172C43.5278 11.9944 41.2723 15.3091 40.0493 16.9599C44.8575 20.2006 48.0015 25.4843 48.0015 31.4686L48 31.4671ZM44.6268 35.2309C43.5336 35.2628 41.8708 35.2134 39.9123 34.8341C37.9624 34.4578 36.5087 33.6934 35.5958 33.0816C35.019 32.695 34.2517 33.086 34.1883 33.782C33.9546 36.3411 34.9555 38.4831 39.0225 39.2475C42.24 39.8534 44.2532 37.8771 45.2541 36.4544C45.6219 35.9313 45.2613 35.212 44.6253 35.2294L44.6268 35.2309ZM29.1176 41.4839C23.7108 41.4839 20.8322 45.7984 20.0664 48.0799C19.8126 48.837 20.2135 49.6566 20.9649 49.9168C21.7192 50.1827 22.5355 49.7729 22.7979 49.0187C22.8628 48.8298 24.4564 44.3903 29.119 44.3903C34.0671 44.3903 37.4966 49.3181 37.5284 49.3646C37.8067 49.7773 38.2595 49.9996 38.721 49.9996C39.0008 49.9996 39.2849 49.9168 39.533 49.7467C40.1906 49.2934 40.3594 48.3895 39.9108 47.7268C39.7378 47.4711 35.6074 41.4839 29.1204 41.4839H29.1176Z" fill="#A0A0A0"/>
</svg>
