<svg width="58" height="58" viewBox="0 0 58 58" fill="none" xmlns="http://www.w3.org/2000/svg">
<path d="M19.5275 39.9437C21.9842 42.8502 24.7232 45.5342 26.8975 48.6771C27.1799 49.0804 27.5328 49.4142 27.9564 49.6784C28.7329 50.1651 29.4247 50.1095 30.0459 49.442C30.4836 48.9831 30.9637 48.5659 31.3449 48.0652C32.7144 46.2157 34.1827 44.4495 35.7781 42.8085C38.4465 40.055 40.8185 37.079 43.2186 34.1029C44.0375 33.0878 44.7576 31.9196 44.9129 30.5846C45.1388 28.5959 44.9976 26.6768 43.614 24.9941C42.3998 23.52 41.0867 22.2545 39.1948 21.7121C37.91 21.3366 36.6394 21.0446 35.284 21.5035C34.8322 21.6565 34.2109 21.7677 33.9145 21.1558C33.7874 20.8777 33.745 20.5996 33.7874 20.3214C33.8862 19.64 34.6204 19.2645 34.818 19.1672C35.5946 18.7639 35.9334 19.0837 36.4558 18.7083C36.9076 18.3884 37.2182 17.7626 37.1194 17.1785C36.95 16.2329 35.7499 15.8018 35.5522 15.774C34.9875 15.6766 34.3945 15.6488 33.8297 15.5375C32.785 15.3429 32.2908 14.7449 32.2485 13.7019C32.2061 12.7006 32.1779 11.6993 32.1073 10.7119C31.9802 9.05704 30.7801 7.98623 29.1423 8.00013C27.4481 8.01404 26.0221 9.33517 25.8951 11.0596C25.8245 11.9357 25.8809 12.8257 25.8527 13.7158C25.8245 14.9535 25.2738 15.4819 24.0455 15.5236C23.6078 15.5236 23.1702 15.5236 22.7466 15.5654C22.083 15.6071 21.5324 15.8991 21.0947 16.3998C20.9959 16.511 20.8406 16.7752 20.7982 17.1229C20.7418 17.7348 21.1512 18.1798 21.2077 18.2354C21.4618 18.4997 21.8712 18.6109 22.676 18.8195C23.5514 19.0559 23.5796 19.0281 23.8337 19.1394C24.4973 19.4453 24.7514 20.1963 24.4832 20.8916C24.2149 21.6148 23.6361 21.6287 23.0572 21.4479C21.603 20.989 20.2052 21.281 18.7934 21.6843C15.5037 22.6439 13.0753 25.7589 13.0047 29.1383C13.0047 30.2786 12.9059 31.419 13.6118 32.4481C15.4049 35.0764 17.4662 37.5101 19.5275 39.9437ZM25.4997 24.2709C25.4997 23.9511 25.5421 23.6312 25.9233 23.5061C26.2621 23.3948 26.5445 23.5339 26.7845 23.7703C27.2504 24.2014 27.7164 24.6325 28.1682 25.0636C28.7611 25.6338 29.3259 25.5364 29.9471 25.0636C30.4695 24.6742 30.7942 24.118 31.2319 23.6869C31.5143 23.4087 31.7825 23.0471 32.2626 23.2697C32.7285 23.4783 32.8273 23.9233 32.7567 24.3683C32.6014 25.3278 32.4038 26.2735 32.2343 27.2331C31.6272 30.668 31.0484 34.1029 30.4271 37.5379C30.1589 39.0259 29.453 40.3331 28.5211 41.5291C28.267 41.849 28.0411 42.2105 27.5469 42.1132C27.0387 42.0158 26.9822 41.5569 26.954 41.1675C26.7563 38.9703 26.5022 36.7869 26.2339 34.6036C25.8386 31.3772 25.8668 28.1092 25.4715 25.008C25.4715 24.6742 25.4715 24.4656 25.4715 24.2709H25.4997Z" fill="#A0A0A0"/>
</svg>
