<svg width="58" height="58" viewBox="0 0 58 58" fill="none" xmlns="http://www.w3.org/2000/svg">
<path d="M44.9576 36.5049L50 17.4309L31.8463 7L30.3123 17.3027L16.3772 10.9916L19.4452 31.4872C18.7028 31.3945 17.9204 31.5876 17.2976 32.1656C16.5291 32.878 15.4215 33.0789 14.455 32.6817C12.6081 31.9199 10.6092 33.3787 10.7519 35.3845C10.8271 36.4338 10.2917 37.4321 9.37895 37.9451C7.63629 38.9248 7.52277 41.4082 9.16725 42.5471C10.0278 43.142 10.4696 44.1867 10.2994 45.2236C9.97415 47.2078 11.8303 48.8458 13.7387 48.2586C14.7373 47.9526 15.8234 48.2555 16.5214 49.0359C17.8575 50.5287 20.2859 50.0883 21.0222 48.22C21.4073 47.2418 22.3185 46.5757 23.3616 46.5124C25.3543 46.3903 26.5263 44.2037 25.5338 42.459C25.0153 41.5457 25.0659 40.413 25.6673 39.5522C26.58 38.2449 26.1428 36.5481 24.9401 35.7461V23.6091L34.7196 27.8588V23.0945L40.6639 25.7989L40.1086 33.9984L39.09 34.9441L34.3468 32.9893L34.7134 38.1383L30.2387 40.6556L34.4634 43.5778L33.6273 48.6712L38.5285 47.1661L41.9602 51L43.8485 46.2018L48.963 45.8896L46.415 41.4113L49.3618 37.1879L44.9546 36.5033L44.9576 36.5049ZM17.0828 44.7275C14.8708 44.7275 13.0775 42.921 13.0775 40.6927C13.0775 38.4643 14.8708 36.6579 17.0828 36.6579C19.2949 36.6579 21.0882 38.4643 21.0882 40.6927C21.0882 42.921 19.2949 44.7275 17.0828 44.7275Z" fill="#A0A0A0"/>
</svg>
