<svg width="58" height="58" viewBox="0 0 58 58" fill="none" xmlns="http://www.w3.org/2000/svg">
<path d="M50 29.0007C50 32.6457 49.0516 36.2361 47.2557 39.3857L42.5135 36.6837C43.8399 34.3556 44.54 31.7 44.54 29.0007C44.54 24.5369 42.6363 20.518 39.6122 17.6795V45.6795L23.2746 29.0007V43.436C25.0486 44.1415 26.9755 44.5427 28.998 44.5427C30.1142 44.5427 31.2237 44.4254 32.295 44.192L33.4522 49.5278C32.0016 49.8403 30.5032 50.0014 28.998 50.0014C17.4202 50 8 40.5798 8 29.0007C8 25.0009 9.12857 21.1116 11.2643 17.7518L15.8727 20.679C14.2938 23.1627 13.4586 26.0421 13.4586 29.002C13.4586 33.4658 15.3623 37.4861 18.3864 40.3232V11.4116L34.1564 27.7875V14.3566C32.5406 13.7861 30.8102 13.4586 29.0007 13.4586C27.984 13.4586 26.9701 13.5569 25.9875 13.7493L24.9354 8.39439C26.2632 8.13237 27.6319 8 29.0007 8C40.5798 8 50 17.4202 50 29.0007Z" fill="#A0A0A0"/>
</svg>
