<svg width="58" height="58" viewBox="0 0 58 58" fill="none" xmlns="http://www.w3.org/2000/svg">
<path d="M46.1459 18.5726C39.3339 14.3478 36.326 38.4405 36.326 38.4405C36.326 38.4405 35.0425 42.1436 32.5219 41.3308C30.0012 40.518 30.3993 34.8285 30.3993 34.8285C30.3993 34.8285 30.4948 33.7751 30.6191 32.1414C30.8675 32.2405 31.1366 32.299 31.42 32.299C32.6413 32.299 33.6317 31.2879 33.6317 30.0411C33.6317 28.7943 32.6413 27.7832 31.42 27.7832C31.2417 27.7832 31.0713 27.8108 30.9057 27.8498C30.9582 26.9525 31.0076 26.0227 31.0506 25.0685C31.42 25.3513 31.8738 25.5253 32.3706 25.5253C33.5919 25.5253 34.5824 24.5141 34.5824 23.2673C34.5824 22.0205 33.5919 21.0094 32.3706 21.0094C31.9264 21.0094 31.5155 21.1459 31.1684 21.3751C31.2305 17.9679 31.1302 14.8614 30.6636 13.4228C29.35 9.36048 28.2767 7.19358 23.4997 8.27784C18.7228 9.3621 14.2117 26.5656 14.2117 26.5656H8.77069C8.77069 26.5656 8 26.5656 8 28.0563C8 29.2755 8.77069 29.6363 8.77069 29.6363C8.77069 29.6363 14.2993 33.6093 17.7498 27.5133C21.2004 21.4174 21.3772 16.9471 23.6319 16.856C23.6319 16.856 23.0571 41.1487 23.6319 43.5952C24.022 45.2549 25.4902 50 32.1238 50C38.7575 50 38.2272 44.8518 40.3514 43.2262C42.4739 41.6006 43.0265 44.1317 46.0567 43.7675C49.0646 43.4066 53.133 22.9064 46.1459 18.571V18.5726ZM28.7672 21.6434H30.8436C30.4248 22.0546 30.1605 22.6285 30.1605 23.2689C30.1605 23.9094 30.4232 24.4833 30.842 24.8945H28.7672C27.8866 24.8945 27.1748 24.1679 27.1748 23.2689C27.1748 22.37 27.8866 21.6434 28.7672 21.6434ZM26.6446 31.6683C25.764 31.6683 25.0523 30.9417 25.0523 30.0427C25.0523 29.1438 25.764 28.4172 26.6446 28.4172H29.8914C29.4726 28.8284 29.2098 29.4023 29.2098 30.0427C29.2098 30.6832 29.4726 31.2571 29.8929 31.6683H26.6462H26.6446ZM45.2064 40.4855C43.415 40.4855 41.9628 36.35 41.9628 31.2489C41.9628 26.1479 43.415 22.0124 45.2064 22.0124C46.9978 22.0124 48.45 26.1479 48.45 31.2489C48.45 36.35 46.9978 40.4855 45.2064 40.4855Z" fill="#A0A0A0"/>
</svg>
