<svg width="58" height="58" viewBox="0 0 58 58" fill="none" xmlns="http://www.w3.org/2000/svg">
<path d="M28.062 31.0741L12.1961 20.0233L13.471 18.641L21.6719 21.9663C19.3026 10.9199 26.8838 9.70657 26.8838 9.70657C40.8594 5.70106 45.9135 19.85 43.2387 23.9662C42.0334 26.301 38.8838 27.2012 35.9659 25.9471C32.9087 24.6318 31.2912 21.4667 32.3515 18.8785C33.1048 17.0388 35.015 16.0061 37.1512 16.0222C37.1768 14.7754 35.177 12.8877 30.943 14.2962C24.9096 16.3018 28.062 31.0756 28.062 31.0756V31.0741ZM47.9986 37.9432L32.1341 26.8924C32.1341 26.8924 35.494 39.9707 29.4904 42.964C25.1086 45.1488 19.8142 40.7456 19.8142 40.7456C19.8142 40.7456 25.4213 41.2845 26.1745 39.4435C27.2348 36.8552 25.9969 33.3187 20.9925 30.1055C15.9881 26.8924 11.8678 28.4363 10.6625 30.7712C7.98762 34.8859 13.0275 52.5524 32.8618 48.3619C32.8618 48.3619 40.8935 47.0467 38.5242 36.0016L46.7251 39.3269L48 37.9447L47.9986 37.9432Z" fill="#A0A0A0"/>
</svg>
