<svg width="58" height="58" viewBox="0 0 58 58" fill="none" xmlns="http://www.w3.org/2000/svg">
<path d="M39.9665 11.4087C37.9023 13.2084 35.2797 17.0799 34.4203 21.4443H23.5811C22.7218 17.0799 20.0991 13.2084 18.035 11.4087C16.9716 10.4823 15.308 11.2356 15.308 12.6415V38.5467C15.308 38.5467 15.308 44.3023 17.2114 46.1108C18.2435 47.092 20.2406 47.4028 21.1595 46.3165C23.9267 43.0473 26.6908 42.3473 28.5331 42.3473C30.3754 42.3473 34.0763 43.0473 36.842 46.3165C37.7609 47.4028 39.758 47.092 40.7901 46.1108C42.6935 44.3023 42.6935 38.5467 42.6935 38.5467V12.6415C42.6935 11.2356 41.0299 10.4808 39.9665 11.4087ZM21.934 39.6981L18.939 32.7586L23.3414 30.5712L24.4167 38.9582L21.934 39.6981ZM31.2734 38.3011H26.7281L24.9796 25.2286H33.0219L31.2734 38.3011ZM36.066 39.6981L33.5833 38.9582L34.6586 30.5712L39.061 32.7586L36.066 39.6981ZM12.2862 31.9742L13.0964 41.2802C13.153 41.924 12.4069 42.331 11.8975 41.9284C10.3457 40.703 8 38.4757 8 36.2276C8 33.9796 9.87504 32.2969 11.1141 31.4311C11.5863 31.1011 12.2371 31.4015 12.2862 31.9728V31.9742ZM50.0015 36.2276C50.0015 38.4772 47.6558 40.703 46.104 41.9284C45.5946 42.331 44.85 41.924 44.9051 41.2802L45.7153 31.9742C45.7644 31.403 46.4152 31.1025 46.8873 31.4326C48.1264 32.2969 50.0015 33.9781 50.0015 36.2291V36.2276Z" fill="#A0A0A0"/>
</svg>
