<svg width="58" height="58" viewBox="0 0 58 58" fill="none" xmlns="http://www.w3.org/2000/svg">
<path d="M18.8726 30.2404C20.1398 29.9178 21.4834 29.841 22.7201 29.3494C22.9796 29.2419 23.3613 29.2112 23.4224 29.5799C23.4835 29.8871 23.2392 30.0407 22.9949 30.1175C22.6437 30.2404 22.3079 30.3172 21.9567 30.4555C20.5826 31.0238 19.1017 31.4078 17.8497 32.2066C16.9642 32.8364 16.2466 33.6813 15.5596 34.5262C14.5366 35.8012 13.6511 37.2912 13.5137 39.0116C13.3458 41.2697 13.4374 43.5432 13.5137 45.8167C13.5442 46.6923 13.9565 47.0148 14.8115 46.9995C17.5444 46.9688 20.262 46.9995 22.9949 46.9995C25.7583 46.9995 28.5065 46.9995 31.2699 46.9995C31.728 46.9995 32.2318 47.0302 32.583 46.6154C33.2242 45.8935 33.8502 45.1408 34.5067 44.4188C37.3617 41.239 40.1252 37.9824 42.797 34.6337C44.736 32.2066 46.8887 29.9485 48.6903 27.3986C49.0567 26.8916 49.1178 26.4308 48.7666 25.9239C48.4765 25.5091 48.2017 25.0944 47.8506 24.7411C46.675 23.5275 45.4536 22.3294 44.2627 21.1158C40.9343 17.7364 37.606 14.3569 34.2777 10.9774C33.0257 9.70245 31.6364 9.64101 30.247 10.9928C27.6973 13.4659 25.224 16.0005 22.5216 18.3201C21.7429 18.996 21.6666 19.9177 22.1704 20.7932C22.3231 21.0697 22.5216 21.3155 22.7048 21.5613C22.9949 21.9453 23.117 22.3447 22.7659 22.7595C22.3995 23.1896 21.9567 23.1896 21.4834 23.0206C19.3612 22.2065 18.2467 19.3339 19.1475 17.2602C19.7582 15.8623 20.949 14.9253 21.7277 13.681C21.9567 13.3123 22.1704 12.9898 22.0025 12.5443C21.4987 11.1464 20.2315 10.7624 19.0559 11.638C18.7352 11.8837 18.3535 12.0681 18.0635 12.3446C16.2466 14.0036 15.0405 15.9237 14.9336 18.5351C14.842 20.8854 15.6359 22.7441 17.1627 24.4339C17.9718 25.3248 17.6665 26.3079 16.4909 26.6459C15.4527 26.9377 14.5061 26.738 13.6969 26.0007C13.1167 25.4784 12.5518 24.9254 11.9259 24.4492C11.193 23.8962 9.84948 24.0191 9.31511 24.6336C8.88762 25.1097 8.88762 26.3847 9.36092 26.9531C11.9717 30.1329 14.5214 31.3618 18.8879 30.2404H18.8726ZM32.2318 16.9376C34.3082 17.1219 36.0182 18.7656 36.0029 20.8854C35.9876 23.036 34.2624 24.6489 32.0181 24.6489C30.0638 24.6489 28.4149 22.8824 28.3386 20.8547C28.2928 19.38 30.3692 16.784 32.2318 16.9529V16.9376ZM30.9951 39.7643C33.5601 36.7843 36.1403 33.8349 38.5679 30.7473C39.7129 29.288 40.9496 27.9055 42.1405 26.4923C42.7206 25.8164 43.8352 25.6167 44.4001 26.0929C44.8734 26.5076 44.8734 27.7365 44.339 28.3663C42.7359 30.3018 41.1328 32.2374 39.4839 34.1421C37.5755 36.3542 35.6975 38.5969 33.8502 40.855C33.1173 41.7459 32.2623 42.5447 31.4684 43.3896C31.0562 43.8351 30.5066 43.958 29.9417 44.0194C27.85 44.2498 25.7431 44.0808 23.6514 44.004C21.7735 44.004 19.8956 44.004 18.0177 44.004C17.4069 44.004 16.7657 43.9119 16.7352 43.0824C16.7199 42.3297 16.9795 41.7152 17.7581 41.4541C18.0787 41.3465 18.4299 41.2544 18.7658 41.2544C20.9643 41.2544 23.1476 41.2697 25.3461 41.2851C26.0637 41.2851 26.7813 41.3619 27.5141 41.3312C28.8729 41.2851 30.0791 40.855 31.0104 39.7643H30.9951ZM25.4988 35.2789C25.8957 35.8933 26.3538 36.5692 26.0637 37.2758C25.7889 37.9364 24.995 37.8288 24.3842 37.8596C23.6972 37.8903 23.0102 37.8135 22.3537 37.7827C21.3307 37.8749 20.3383 37.9671 19.3459 37.7674C18.5826 37.6138 18.3993 37.2297 18.6284 36.4924C19.1627 34.7105 23.8499 33.2512 25.3766 35.1406C25.4224 35.1867 25.4682 35.2328 25.4988 35.2789Z" fill="#A0A0A0"/>
</svg>
