<svg width="58" height="58" viewBox="0 0 58 58" fill="none" xmlns="http://www.w3.org/2000/svg">
<path d="M13.0305 27.9764C13.3912 28.0979 13.7787 28.1384 14.1528 28.206C15.7027 28.4896 17.0789 29.0567 18.1745 30.2586C18.9361 31.0824 19.1231 31.9872 18.7223 33.0135C18.4818 33.6617 18.1879 34.2964 17.8806 34.9041C17.1724 36.3086 17.453 37.551 18.3616 38.7799C19.2167 39.9277 20.0584 41.0891 20.7398 42.3585C21.1941 43.2093 21.9156 43.6684 22.8242 43.5469C23.9999 43.3714 24.8016 43.898 25.4296 44.7623C26.0843 45.6671 26.9126 46.3963 27.6742 47.1931C28.7164 48.2734 29.3978 48.2734 30.4533 47.1661C31.1882 46.3828 31.8696 45.5456 32.5777 44.7353C33.2992 43.925 34.0608 43.3308 35.29 43.5469C36.1051 43.6955 36.8132 43.3308 37.2808 42.5341C38.0424 41.2512 38.8174 39.9683 39.6858 38.7664C40.7681 37.2809 40.875 35.8089 39.8061 34.3234C38.5101 32.5139 39.0044 30.6097 41.0353 29.3268C42.1042 28.6516 43.28 28.3275 44.5225 28.1654C45.8854 27.9764 46.206 27.3417 45.8854 26.0453C45.5914 24.8164 44.8566 23.8711 44.282 22.8042C42.9059 20.2519 41.1556 17.9832 39.1915 15.89C38.3096 14.9447 38.0424 14.0129 38.5368 12.811C38.8975 11.9197 39.0044 10.9879 38.8975 10.0291C38.7906 9.19183 38.3096 8.98927 37.5614 9.31337C35.7844 10.0966 34.3949 11.3525 33.1255 12.7975C31.8162 14.283 31.7494 15.0392 32.8984 16.6732C33.5798 17.6456 34.1944 18.6719 34.9159 19.6037C36.0783 21.1027 35.771 22.3991 34.6754 23.7765C34.0341 24.5733 33.2992 25.0189 32.2972 25.0054C31.2283 25.0054 30.1594 25.0054 29.0905 25.0054C28.3156 25.0054 27.5406 24.9379 26.7924 25.0189C24.9619 25.235 23.6926 24.5463 22.7841 22.9393C22.2096 21.9129 22.1294 21.3322 22.7574 20.3194C23.6525 18.888 24.5344 17.4565 25.4162 16.025C25.777 15.4443 25.9907 14.8502 25.6567 14.1479C24.4943 11.7577 22.5703 10.2182 20.2588 9.12431C19.4973 8.75969 18.9361 9.23235 19.043 10.0831C19.1499 10.9339 19.1632 11.8117 19.5106 12.6084C20.0851 13.9319 19.7244 14.9447 18.7758 15.9845C16.0367 18.9825 13.5917 22.1965 12.1887 26.0993C11.8146 27.1526 11.9482 27.6253 13.0305 27.9764ZM32.1368 34.0939C32.8316 32.5679 34.0608 31.501 35.2232 30.3802C35.4103 30.1911 35.6508 30.1236 35.9047 30.2586C36.3188 30.4882 36.2921 30.8798 36.2921 31.2715C36.212 32.8785 34.8224 34.7826 33.3126 35.3228C32.885 35.4713 32.4174 35.5793 32.07 35.2282C31.7093 34.8636 31.9899 34.445 32.1502 34.0804L32.1368 34.0939ZM22.1962 30.2316C22.597 30.0696 22.8642 30.3396 23.1315 30.5827C24.3607 31.6226 25.2425 32.946 26.0308 34.3369C26.1912 34.607 26.3248 34.8906 26.1511 35.1877C25.9373 35.5388 25.5765 35.4578 25.2559 35.4173C23.5323 35.2012 21.8087 33.1351 21.782 31.1769C21.7954 30.8393 21.7286 30.4207 22.1828 30.2316H22.1962Z" fill="#A0A0A0"/>
</svg>
