<svg width="58" height="58" viewBox="0 0 58 58" fill="none" xmlns="http://www.w3.org/2000/svg">
<path d="M32.2779 35.5214H32.1708C30.9719 35.5041 30.0134 34.5262 30.0293 33.3373C30.0467 32.1584 31.0168 31.2135 32.2012 31.2135H32.2765C33.3508 31.2135 35.7022 30.9263 37.069 29.5808C37.5628 29.0955 37.793 28.5111 37.793 27.7428V10.1539C37.793 8.96496 38.766 8 39.9648 8C41.1637 8 42.1367 8.96496 42.1367 10.1539V27.7428C42.1367 29.6613 41.4373 31.3614 40.1125 32.6552C37.321 35.3835 33.1959 35.5214 32.2779 35.5214ZM26.5138 35.3103C27.2609 35.2715 27.8531 34.6684 27.8835 33.9274V29.4186H33.3305C33.3305 29.4186 35.2606 29.4186 35.2606 26.8856C35.2606 24.3526 33.6925 24.3526 33.6925 24.3526H20.9032C17.7656 24.3526 16.6797 26.9645 17.2835 30.2557C17.9408 33.8427 22.5842 35.517 26.5138 35.3103ZM32.4864 41.1244V38.4722C32.4864 37.6796 31.8378 37.0363 31.0385 37.0363H27.9617C27.1625 37.0363 26.5138 37.6796 26.5138 38.4722V41.1244C26.5138 41.9171 27.1625 42.5604 27.9617 42.5604H31.0385C31.8378 42.5604 32.4864 41.9171 32.4864 41.1244ZM42.5146 42.0563L43.6541 40.731C44.116 40.1939 44.116 39.4041 43.6541 38.8685L42.5146 37.5432C42.2395 37.2229 41.837 37.0391 41.4127 37.0391H37.2963C36.4971 37.0391 35.8484 37.6824 35.8484 38.4751V41.1273C35.8484 41.9199 36.4971 42.5632 37.2963 42.5632H41.4127C41.837 42.5632 42.2395 42.3794 42.5146 42.0592V42.0563ZM17.589 42.5604H21.7053C22.5046 42.5604 23.1532 41.9171 23.1532 41.1244V38.4722C23.1532 37.6796 22.5046 37.0363 21.7053 37.0363H17.5875C17.1633 37.0363 16.7608 37.2201 16.4857 37.5403L15.3462 38.8657C14.8843 39.4027 14.8843 40.1925 15.3462 40.7281L16.4857 42.0535C16.7608 42.3737 17.1633 42.5575 17.5875 42.5575L17.589 42.5604ZM36.749 47.8446C36.749 46.6557 35.776 45.6907 34.5772 45.6907H23.8367C22.6378 45.6907 21.6648 46.6557 21.6648 47.8446C21.6648 49.0336 22.6378 49.9986 23.8367 49.9986H34.5772C35.776 49.9986 36.749 49.0336 36.749 47.8446ZM20.9032 22.3997H21.4664V10.1539C21.4664 8.96496 20.4935 8 19.2946 8C18.0957 8 17.1227 8.96496 17.1227 10.1539V23.9017C17.8047 23.1765 18.9789 22.4011 20.9032 22.4011V22.3997ZM28.357 22.3997V16.2165C28.357 15.0275 27.384 14.0626 26.1852 14.0626C24.9863 14.0626 24.0133 15.0275 24.0133 16.2165V22.3997H28.357ZM35.2476 22.101V16.2179C35.2476 15.029 34.2746 14.064 33.0757 14.064C31.8768 14.064 30.9039 15.029 30.9039 16.2179V22.101H35.2476Z" fill="#A0A0A0"/>
</svg>
