<svg width="58" height="58" viewBox="0 0 58 58" fill="none" xmlns="http://www.w3.org/2000/svg">
<path d="M25.4705 17.5258C26.2664 18.1275 27.4829 18.1542 28.2188 17.6194C30.1111 16.2556 31.2825 14.4506 31.8832 12.3915C32.2436 11.148 31.8231 9.86447 29.8708 10.0115C28.1137 10.1051 26.8371 11.1347 25.4705 11.9102C24.5994 12.4183 23.7284 13.0333 23.2027 13.9291C22.9324 14.3837 22.9324 14.7581 23.2027 15.2394C23.7434 16.1754 24.5844 16.8573 25.4555 17.5125L25.4705 17.5258Z" fill="#A0A0A0"/>
<path d="M28.1712 24.925C29.2901 28.321 31.0803 31.2925 33.5698 33.8394C34.8566 35.1412 35.7097 35.3535 37.2622 34.4479C39.4301 33.1885 41.4441 31.6462 43.1504 29.7926C45.5001 27.2456 47.3323 24.3449 47.9477 20.8074C48.1575 19.633 47.7379 18.501 46.6609 18.0765C45.1644 17.4822 43.6259 16.9728 41.9756 17.0011C41.5979 17.0294 41.2343 17.0436 40.8567 17.1143C36.8426 17.7935 33.0943 19.1519 29.6817 21.43C28.1712 22.4347 27.7096 23.51 28.1712 24.925ZM32.5209 23.793C33.374 22.9724 34.465 22.5762 35.5139 22.0951C37.3182 21.2885 39.2482 21.0055 41.0385 20.6376C41.5839 20.6942 42.1014 20.5952 42.2833 21.1046C42.4931 21.6564 42.0455 21.9394 41.6819 22.2224C39.472 23.9345 37.0664 25.3495 34.7307 26.8777C33.9335 27.4013 32.9964 27.1607 32.395 26.34C31.8216 25.5618 31.8915 24.4298 32.5349 23.793H32.5209Z" fill="#A0A0A0"/>
<path d="M44.9068 39.0949C42.3494 38.9092 39.7774 38.9835 37.2495 39.4292C35.7504 39.6892 34.9862 40.5187 35.0009 41.7196C34.9862 42.3634 35.1625 42.9824 35.2948 43.6014C35.3977 44.0966 35.5153 44.6042 35.721 45.0747C36.4265 46.7584 37.4553 47.167 39.5423 46.9441C41.6146 46.7213 43.3489 45.8423 45.1272 45.0747C46.6263 44.4309 47.8756 43.4281 48.6986 42.1281C49.0514 41.5586 49.213 41.0015 48.5076 40.5558C47.42 39.8749 46.2883 39.194 44.8774 39.0825L44.9068 39.0949Z" fill="#A0A0A0"/>
<path d="M31.7703 43C31.4114 43 31.0375 43.0602 30.6786 43.0963C29.3177 43.2168 28.1362 43.8189 26.8052 44.0237C23.2609 44.5535 19.9558 45.6856 16.6059 46.7454C16.2469 46.8658 15.9478 47.0585 16.0077 47.4077C16.0675 47.769 16.4414 47.8774 16.8152 47.9015C17.548 47.9497 18.2808 47.9617 19.0136 47.9978C23.4852 48.0581 27.7324 46.8417 32.1442 46.5888C33.4153 46.5166 34.1182 45.5772 33.9836 44.5415C33.849 43.4456 33.2209 43.0241 31.7553 43.0241L31.7703 43Z" fill="#A0A0A0"/>
<path d="M12.8879 30.9833C13.1806 30.9373 13.4175 30.7688 13.6684 30.6003C14.9088 29.727 15.9959 28.6546 17.083 27.5976C19.076 25.6519 21.0691 23.7216 22.9227 21.6381C23.5081 20.964 23.9262 20.198 23.9959 18.8039C24.0516 18.2217 23.536 17.6089 22.7694 17.2719C22.0029 16.9195 21.2224 16.797 20.5673 17.6089C20.2328 18.0379 19.8426 18.4209 19.522 18.8498C17.7102 21.2857 15.8008 23.6297 14.1841 26.2341C13.4454 27.4137 12.5395 28.4861 12.0935 29.8802C11.8287 30.6769 12.1353 31.0905 12.9018 30.9833H12.8879Z" fill="#A0A0A0"/>
<path d="M10.4509 43.8085C11.7918 42.9118 13.3536 42.6129 14.7829 41.9554C17.4498 40.7299 20.2347 39.8033 22.8574 38.4433C23.0343 38.3536 23.27 38.3088 23.4763 38.2939C24.272 38.2341 24.5372 38.5778 24.3162 39.3549C23.9183 40.7747 24.1393 41.0736 26.0696 41.0587C27.8672 40.8793 29.9006 39.8481 31.8308 38.6525C33.3337 37.711 33.3337 36.9936 32.1402 35.6337C30.4163 33.6609 28.7218 31.6732 27.6314 29.2223C27.1894 28.221 26.6884 27.2346 26.2317 26.2333C25.6865 25.0377 24.7435 24.664 23.8299 25.3216C22.047 26.5919 20.4262 28.0715 18.997 29.7603C18.0392 30.8812 18.3634 31.8675 19.7042 32.3308C20.5146 32.5998 20.6325 33.0183 19.9842 33.5414C18.0392 35.1106 16.109 36.6649 14.1198 38.1743C12.4254 39.4596 10.7456 40.7747 9.40477 42.4635C9.15428 42.7923 8.80065 43.1659 9.13955 43.6143C9.47844 44.0776 10.0531 44.0925 10.4509 43.8235V43.8085Z" fill="#A0A0A0"/>
</svg>
