<svg width="58" height="58" viewBox="0 0 58 58" fill="none" xmlns="http://www.w3.org/2000/svg">
<path d="M14 36.3671L20.1748 41L29 34.6213L37.8113 41L44 36.3671L29 26L14 36.3671Z" fill="#A0A0A0"/>
<path d="M23 43.4672L29.5071 48L36 43.4672L29.5071 39L23 43.4672Z" fill="#A0A0A0"/>
<path d="M46 14.8375L38.8678 10C34.1363 14.8375 29 16.0153 29 16.0153C29 16.0153 23.8637 14.8375 19.1322 10L12 14.8375C12 14.8375 17.3038 22.5073 13.0747 32L29 21.4978L44.9253 32C40.6962 22.5073 46 14.8375 46 14.8375Z" fill="#A0A0A0"/>
</svg>
