<svg width="58" height="58" viewBox="0 0 58 58" fill="none" xmlns="http://www.w3.org/2000/svg">
<path d="M11.0297 43.8466C11.0297 45.063 11.277 46.0504 12.0624 47.1236C13.4442 49.0269 15.0878 50 17.4441 50C24.7167 49.9857 31.9748 50 39.2474 50C41.4874 50 43.7273 49.9428 45.9818 49.9428C46.7527 49.9428 46.9855 49.6852 46.9855 48.9124C46.9564 42.4728 46.9709 36.0189 46.9709 29.5793H47C47 23.1684 47 16.7431 47 10.3321C47 9.1873 46.9709 9.11575 45.8218 9.10144C43.4655 9.0585 41.0946 9.0585 38.7383 9.0585C31.4512 9.04419 24.1786 9.08713 16.9059 9.00126C15.3496 8.98695 13.9678 9.07282 13.0078 10.3894C12.0188 11.7345 10.9715 12.9366 11.0006 14.8828C11.117 24.5278 11.0442 34.1872 11.0297 43.8323V43.8466ZM39.1601 13.6091C39.2619 13.3229 39.5092 13.2085 39.7856 13.1798C40.1347 13.1369 40.4983 13.1083 40.6147 13.1083C42.7383 13.0797 43.5237 14.0241 43.1601 15.8559C43.0292 16.5427 42.1855 16.8003 41.6474 16.1993C40.9783 15.4838 40.3383 14.7683 39.4656 14.296C39.2329 14.1672 39.0583 13.924 39.1601 13.6235V13.6091ZM39.6547 35.6326C40.2365 35.0315 40.8328 34.4591 41.4146 33.8724C41.7492 33.5433 42.1274 33.3143 42.6219 33.5146C43.0873 33.7007 43.1455 34.1157 43.1746 34.5307C43.3346 36.4196 42.5492 37.3355 40.7601 37.3212C40.6146 37.3212 40.4547 37.3355 40.3092 37.3212C39.8147 37.2496 39.2183 37.2925 39.0147 36.7058C38.8256 36.1763 39.3492 35.9331 39.6401 35.6326H39.6547ZM21.8513 24.1271C22.3459 23.612 23.0295 23.3973 23.684 23.2399C24.964 22.9251 25.7349 22.0951 26.2876 20.9932C26.5931 20.3922 26.884 19.7768 27.2185 19.1901C27.5094 18.7036 27.873 18.2743 28.4548 18.1598C28.9058 18.1598 29.153 18.4174 29.3276 18.7322C29.633 19.276 29.953 19.8198 30.1566 20.3922C30.6657 21.8804 31.7857 22.7391 33.1675 23.3544C33.6039 23.5547 34.0402 23.7408 34.4475 23.984C35.5093 24.6137 35.4947 25.3864 34.4038 25.9589C33.822 26.2594 33.2257 26.5456 32.6148 26.7888C31.2621 27.3183 30.4912 28.363 29.9676 29.6366C29.8221 29.9943 29.7203 30.3664 29.5748 30.7242C29.3712 31.2679 29.0948 31.7974 28.4112 31.7974C27.7712 31.7974 27.4076 31.3395 27.1458 30.81C26.9421 30.4093 26.7676 30.0086 26.6076 29.5936C25.9822 28.1054 25.0076 26.9892 23.3931 26.4883C22.9131 26.3452 22.4622 26.0876 22.0259 25.8301C21.3131 25.4008 21.255 24.7282 21.8368 24.1271H21.8513ZM16.4114 42.3011C17.5896 41.7287 18.8696 41.8289 20.1204 41.8146C26.8549 41.7144 33.5748 41.7287 40.3092 41.9147C41.9092 41.9577 42.1564 42.2009 42.1564 43.8037C42.171 46.2364 42.0692 46.3509 39.611 46.3509C36.2075 46.3509 32.7893 46.3509 29.3857 46.3509C25.7931 46.3509 22.2004 46.3366 18.6223 46.3509C17.8659 46.3509 17.1387 46.2364 16.4405 45.9502C15.5969 45.6068 15.1896 45.0057 15.1896 44.1042C15.1896 43.2313 15.6696 42.6875 16.426 42.3297L16.4114 42.3011Z" fill="#A0A0A0"/>
</svg>
