<svg width="58" height="58" viewBox="0 0 58 58" fill="none" xmlns="http://www.w3.org/2000/svg">
<path d="M50.9825 14.659C48.9242 13.2012 46.7868 11.8395 44.6652 10.4457C43.0028 9.34028 41.8153 8.71549 39.8521 8.36304C39.3929 8.28294 36.3055 7.57804 36.1472 8.37906C34.7698 17.2704 28.5 16.5014 28.5 16.5014C28.5 16.5014 22.2302 17.2704 20.8528 8.37906C20.6945 7.57804 17.6071 8.28294 17.1479 8.36304C15.2005 8.71549 14.013 9.34028 12.3348 10.4457C10.229 11.8395 8.10743 13.1852 6.03334 14.659C5.62169 14.9634 9.15239 21.2274 9.45321 21.8041C10.134 23.1498 10.229 24.1431 11.7331 24.031C13.0156 23.9348 14.4405 23.246 15.6755 23.3902C16.2138 23.4542 15.8338 47.1003 15.8338 49.6155L28.5 50L41.1662 49.6155C41.1662 47.0843 40.7862 23.4382 41.3245 23.3902C42.5595 23.262 43.9844 23.9348 45.2669 24.031C46.771 24.1431 46.866 23.1498 47.5468 21.8041C47.8476 21.2114 51.3783 14.9634 50.9667 14.659H50.9825ZM36.0997 34.252C35.9256 34.2199 35.7831 34.0918 35.6406 33.9636C34.6114 32.9543 34.3898 31.5926 33.5665 30.4712C33.2498 30.0386 32.4107 29.0453 31.9674 29.2376C31.619 29.3818 31.8249 30.1508 31.7932 33.0985C31.7615 35.5336 31.6349 36.9274 31.6349 37.2318C31.6191 38.193 31.5082 39.1222 31.3024 40.0674C30.5108 43.5758 26.5051 45.1779 23.9085 44.9856C22.2777 44.8575 20.4886 43.5758 20.172 42.3743C19.7445 40.8043 20.6311 38.6416 22.1827 37.5522C23.291 36.7832 24.4627 36.1904 25.8243 35.9662C27.55 35.6618 28.0883 35.0049 28.1042 33.2267C28.1358 30.0066 28.1042 26.7865 28.1042 23.5664C28.1042 22.6052 28.0408 20.5385 29.4816 20.6026C30.8907 20.6667 31.6507 22.6372 32.3632 23.6144C32.8223 24.2392 33.2973 24.832 33.7406 25.4408C34.7064 26.7224 35.6089 28.02 36.2422 29.6061C36.5589 30.4071 36.8755 31.2401 36.9547 32.1052C37.0022 32.6019 36.9389 34.4282 36.0997 34.268V34.252Z" fill="#A0A0A0"/>
</svg>
