<svg width="58" height="58" viewBox="0 0 58 58" fill="none" xmlns="http://www.w3.org/2000/svg">
<path d="M35.1457 9L29.5068 14.7149L23.868 9H14L26.3589 22L29.5068 18.7182L32.6547 22L45 9H35.1457Z" fill="#A0A0A0"/>
<path d="M48 34.1457L42.7247 28.5068L48 22.868V13L36 25.3589L39.0163 28.5068L36 31.6547L48 44V34.1457Z" fill="#A0A0A0"/>
<path d="M23.868 48L29.5068 42.2789L35.1457 48H45L32.6547 35L29.5068 38.2712L26.3589 35L14 48H23.868Z" fill="#A0A0A0"/>
<path d="M10 22.868L15.7149 28.5068L10 34.1457V44L23 31.6547L19.7182 28.5068L23 25.3589L10 13V22.868Z" fill="#A0A0A0"/>
<path d="M29.5 33C31.9853 33 34 30.9853 34 28.5C34 26.0147 31.9853 24 29.5 24C27.0147 24 25 26.0147 25 28.5C25 30.9853 27.0147 33 29.5 33Z" fill="#A0A0A0"/>
</svg>
