<svg width="58" height="58" viewBox="0 0 58 58" fill="none" xmlns="http://www.w3.org/2000/svg">
<path d="M49.8201 15.0499C50.3901 14.2799 50.1101 13.4699 49.1801 13.1999C48.7601 13.0799 48.3301 13.1099 47.9001 13.1999C46.5501 13.4499 45.1701 13.5599 43.8601 14.0599C42.9801 14.3999 42.0601 14.4299 41.3501 13.5599C40.8801 12.9899 40.9701 12.3499 41.0401 11.7199C41.2301 10.0799 41.1901 8.41994 41.5501 6.79994C41.6801 6.20994 41.6701 5.51994 40.9901 5.18994C40.3501 4.87994 39.7301 5.09994 39.1701 5.47994C38.8401 5.70994 38.5501 5.97994 38.2501 6.23994C37.4901 6.89994 36.6801 7.52994 35.9901 8.24994C34.8501 9.42994 33.6001 9.29994 32.2901 8.67994C30.2001 7.67994 28.1401 7.56994 26.0401 8.69994C24.4101 9.57994 23.3901 9.41994 22.0301 8.20994C20.9801 7.27994 19.9201 6.33994 18.8401 5.43994C18.3101 4.98994 17.6501 4.88994 17.0201 5.16994C16.3501 5.45994 16.4101 6.13994 16.5001 6.69994C16.7801 8.32994 16.8001 9.98994 17.0101 11.6199C17.2301 13.3099 16.4801 14.1899 14.8001 13.9299C13.2301 13.6799 11.6201 13.6999 10.0801 13.2299C9.8001 13.1399 9.4701 13.1399 9.1701 13.1799C7.9901 13.3399 7.6301 14.1999 8.3401 15.1599C9.3801 16.5599 10.4201 17.9599 11.4701 19.3599C12.4201 20.6399 12.0901 21.7499 10.5701 22.2599C9.9301 22.4699 9.3701 22.7499 9.2301 23.4899C9.0801 24.2799 9.4001 24.9199 10.0601 25.2799C11.0901 25.8499 11.2101 26.6999 10.7601 27.8999C10.6001 28.3299 10.3701 28.7299 10.1601 29.1399C9.4601 30.4899 9.5901 31.2599 10.6101 32.3799C11.1701 32.9799 11.8201 33.3799 12.5901 33.6499C14.2501 34.2299 14.4801 34.8499 13.6701 36.4199C13.3901 36.9599 12.9901 37.4499 12.7601 38.0099C12.2601 39.2699 13.0101 40.1499 14.3601 39.9399C14.9001 39.8599 15.3001 39.5099 15.7601 39.2799C16.4901 38.9199 17.2701 38.5899 18.0201 39.1099C18.8101 39.6499 19.0001 40.4799 18.7701 41.3999C18.4401 42.6999 18.6701 43.9199 19.0501 45.1899C19.5701 46.9399 20.5101 48.5099 21.3601 50.0699C22.3201 51.8099 23.7001 53.5299 26.1501 53.0899C28.0801 52.7399 29.9701 52.4399 31.8701 53.1499C31.9501 53.1799 32.0501 53.1499 32.1401 53.1499C34.2001 53.1299 36.8701 51.0399 37.4201 48.9799C37.5801 48.3799 37.8301 47.8299 38.0801 47.2699C38.9501 45.3099 39.8701 43.3499 39.3301 41.0899C39.2601 40.7999 39.3001 40.4799 39.3501 40.1799C39.4901 39.2999 40.1901 38.7899 41.0701 38.9299C41.5901 39.0099 42.0601 39.2299 42.5001 39.5299C42.9701 39.8499 43.4901 39.9999 44.0601 39.9799C45.3601 39.9499 45.8201 39.2999 45.4601 38.0499C45.2701 37.3999 44.7901 36.9699 44.3701 36.4799C43.3601 35.3199 43.6101 34.3299 45.0401 33.7699C45.4101 33.6299 45.8101 33.5499 46.1801 33.4199C47.8501 32.8299 48.6901 30.7999 47.9001 29.2599C47.6801 28.8199 47.4601 28.3799 47.2701 27.9299C46.7501 26.7299 46.9601 25.9399 47.9701 25.1299C48.0901 25.0299 48.2101 24.9299 48.3101 24.8199C49.2801 23.8399 49.0501 22.8199 47.7501 22.3399C45.7301 21.5999 45.5101 20.7899 46.8301 19.0399C47.8301 17.7199 48.8001 16.3799 49.7701 15.0499H49.8201ZM43.9801 31.4599C43.7301 31.8199 43.3201 31.7699 42.9701 31.7099C40.8701 31.3699 39.0201 30.4499 37.3001 29.2199C37.0301 29.0199 36.7701 28.7999 36.5201 28.5699C35.8401 27.9599 35.0801 27.5799 34.1901 28.0599C33.3701 28.4999 32.6501 29.9299 33.0301 30.7499C34.0601 33.0399 34.4201 35.5099 35.0401 37.8899C35.8401 40.9799 36.2301 44.1699 34.4601 47.1499C34.2201 47.5499 34.0901 47.9899 33.9801 48.4399C33.8101 49.1999 33.4201 49.6699 32.5701 49.5399C31.7901 49.4199 31.6301 48.8599 31.6401 48.1799C31.6401 47.8699 31.6401 47.5699 31.6401 47.2599C31.6301 47.2599 31.6101 47.2599 31.6001 47.2599C31.6501 46.7099 31.6201 46.1399 31.7501 45.6199C32.3401 43.3799 31.6501 41.3799 30.6901 39.4299C30.3701 38.7799 29.9301 38.2099 29.1201 38.1799C28.2801 38.1399 27.8801 38.7699 27.5201 39.3799C26.1101 41.6899 25.3501 44.0999 26.4101 46.7999C26.6101 47.3099 26.6201 47.8699 26.5101 48.4299C26.4101 48.9499 26.2201 49.3799 25.6701 49.5099C25.0901 49.6499 24.5601 49.4399 24.3401 48.9399C23.3501 46.6799 22.2901 44.4999 22.4801 41.8499C22.7301 38.2199 23.7401 34.8199 24.8401 31.4199C25.1601 30.4299 25.1201 29.4899 24.3901 28.6599C23.7701 27.9599 23.0401 27.7799 22.2701 28.3099C20.8501 29.2899 19.2801 29.9999 17.8101 30.8799C16.9501 31.3999 16.0001 31.6399 15.0101 31.6999C14.1001 31.7499 13.7801 31.2099 14.2001 30.4099C14.6301 29.5899 15.3301 29.0499 16.1001 28.5799C17.7901 27.5499 19.1401 26.2499 19.9301 24.3899C20.3001 23.5199 20.8501 22.7299 21.3301 21.9099C21.9601 20.8299 23.0301 20.3599 24.1001 19.8999C25.7201 19.2099 26.0501 18.8199 25.8901 17.0399C25.7501 15.4499 26.3601 14.3799 27.7601 13.7199C29.8101 12.7599 31.9101 13.9499 32.1401 16.2099C32.2001 16.8199 32.1501 17.4299 32.1701 18.0499C32.1901 18.9099 32.6401 19.6399 33.4201 19.7999C35.9001 20.3099 37.0601 22.2099 38.0901 24.1599C39.0801 26.0299 40.3501 27.5499 42.1501 28.6599C42.8501 29.0899 43.4901 29.6399 43.8501 30.4199C44.0001 30.7499 44.2401 31.0899 43.9801 31.4499V31.4599Z" fill="#A0A0A0"/>
</svg>
