<svg width="58" height="58" viewBox="0 0 58 58" fill="none" xmlns="http://www.w3.org/2000/svg">
<path fill-rule="evenodd" clip-rule="evenodd" d="M7.93357 21.9661C10.5021 15.462 10.4814 8.76971 8.28571 3.625L20.7143 16.1731C15.7636 19.101 12.4286 24.5594 12.4286 30.8125C12.4286 37.0656 15.7636 42.524 20.7143 45.4519L16.5714 49.6346L0 32.9038C3.29357 30.3106 6.13143 26.5462 7.93357 21.9452V21.9661ZM33.1429 26.6298L29 3.625L24.8571 26.6298L14.5 30.8125L24.8571 34.9952L29 58L33.1429 34.9952L43.5 30.8125L33.1429 26.6298ZM49.7143 3.625C47.5186 8.76971 47.4979 15.462 50.0664 21.9661C51.8686 26.5462 54.7064 30.3106 58 32.9038L41.4286 49.6346L37.2857 45.4519C42.2364 42.524 45.5714 37.0656 45.5714 30.8125C45.5714 24.5594 42.2364 19.101 37.2857 16.1731L49.7143 3.625Z" fill="#A0A0A0"/>
</svg>
