<svg width="58" height="58" viewBox="0 0 58 58" fill="none" xmlns="http://www.w3.org/2000/svg">
<path fill-rule="evenodd" clip-rule="evenodd" d="M40.6518 13.4931L44.5357 17.3866V25.1736L32.8839 32.9606H25.1161L13.4643 25.1736V17.3866L17.3482 13.4931V9.59954L29 1.8125L40.6518 9.59954V13.4931ZM21.2321 17.3866L17.3482 21.2801L27.058 26.147L21.2321 17.3866ZM36.7679 17.3866L30.942 26.147L40.6518 21.2801L36.7679 17.3866ZM21.2321 36.8542L9.58036 29.0671V21.2801L3.75446 25.1736L1.8125 36.8542L7.63839 42.6944H15.4062L21.2321 36.8542ZM56.1875 36.8542L54.2455 25.1736L48.4196 21.2801V29.0671L36.7679 36.8542L42.5937 42.6944H50.3616L56.1875 36.8542ZM29.0194 36.8542L20.2806 45.6146L29.0194 54.375L37.7583 45.6146L29.0194 36.8542Z" fill="#A0A0A0"/>
</svg>
