<svg width="58" height="58" viewBox="0 0 58 58" fill="none" xmlns="http://www.w3.org/2000/svg">
<path d="M54.375 11.525L34.7728 5.4375L29 13.5118L23.2272 5.4375L3.625 11.525L8.25594 31.8165L18.0253 32.8522L14.0287 41.9623L15.6358 43.5053L29 56.1875L43.9712 41.9834L39.9747 32.8734L49.7441 31.8376L54.375 11.5461V11.525ZM43.506 24.4185L35.957 24.9892L37.6275 27.9273L34.6036 33.2538H31.2837L34.5614 40.1868L29 45.4499L23.4386 40.1868L26.7162 33.2538H23.3964L20.3725 27.9484L22.043 25.0104L14.494 24.4397L12.7811 16.9149L20.0553 14.6532L24.3268 21.0155L25.9973 18.0986H32.045L33.7155 21.0155L37.987 14.6532L45.2611 16.9149L43.5483 24.4397L43.506 24.4185Z" fill="#A0A0A0"/>
</svg>
