<svg width="58" height="58" viewBox="0 0 58 58" fill="none" xmlns="http://www.w3.org/2000/svg">
<path fill-rule="evenodd" clip-rule="evenodd" d="M37.933 23.6321C35.6415 25.3537 32.748 26.1081 28.9612 26.1081H28.9806C25.1938 26.1081 22.2808 25.3924 20.0088 23.6708L15.2315 11.1555L23.9509 15.7399L28.9612 1.8125L33.9908 15.7206L42.7102 11.1361L37.933 23.6515V23.6321ZM56.1485 29.4933C51.3131 29.4933 48.0117 31.8338 47.0796 34.4065C45.8173 37.8691 48.4584 45.0069 48.4584 45.0069C37.564 40.4611 34.1462 46.7478 30.6118 53.2666C30.0681 54.2531 29.5437 55.2397 28.9806 56.1875C28.4174 55.2397 27.8737 54.2338 27.3493 53.2666C23.7956 46.7478 20.3971 40.4611 9.50278 45.0069C9.50278 45.0069 12.1244 37.8691 10.8816 34.4259C9.94943 31.8532 6.6481 29.5126 1.81264 29.5126C1.79322 24.8895 3.83227 17.4809 10.0465 12.6449C12.3575 22.6263 16.8239 29.9769 29 29.9769C41.1761 29.9769 45.6231 22.6069 47.9535 12.6256C54.1677 17.4615 56.2068 24.8701 56.1874 29.4933H56.1485Z" fill="#A0A0A0"/>
</svg>
