<svg width="58" height="58" viewBox="0 0 58 58" fill="none" xmlns="http://www.w3.org/2000/svg">
<path fill-rule="evenodd" clip-rule="evenodd" d="M50.1175 29.4156L44.8264 43.6811L52.5625 42.6566L37.9117 56.1875L13.1753 46.4839H26.5845C26.5845 46.4839 14.2258 39.5445 8.17067 31.5612C3.96834 26.0135 2.24921 20.9684 4.86611 18.3589C8.41898 14.7829 16.1551 16.6579 20.1091 17.6244C20.4529 17.7017 20.7776 17.779 21.0642 17.8563L21.8282 23.9452L20.9878 23.7326C16.2315 22.4568 7.21559 25.0857 32.2767 43.1398C31.2835 39.0612 27.062 34.9826 27.062 34.9826L22.9361 1.8125L40.6432 37.8434L50.1175 29.4156ZM36.3644 20.4272C39.7645 20.5625 42.0376 19.9633 41.5792 17.9336C40.2994 12.4053 29.7362 4.92461 29.7362 4.92461C29.7362 4.92461 54.4535 14.9762 50.1175 22.5535C48.5703 25.279 44.1578 26.1488 39.2106 26.1875L36.3835 20.4272H36.3644Z" fill="#A0A0A0"/>
</svg>
