<svg width="58" height="58" viewBox="0 0 58 58" fill="none" xmlns="http://www.w3.org/2000/svg">
<path d="M56.1162 22.1691C53.3743 22.4426 50.8871 24.3568 50.8871 24.3568C50.8871 24.3568 55.5287 17.8328 52.8847 9.0625L38.5487 17.5008C41.2514 18.8681 42.9553 20.8018 42.9553 22.9505C42.9553 24.3178 42.2502 25.5679 41.0947 26.6813C38.2158 23.1849 33.8484 20.9776 28.9913 20.9776C24.1343 20.9776 19.7669 23.2044 16.9076 26.6813C15.7521 25.5874 15.047 24.3178 15.047 22.9505C15.047 20.7823 16.7509 18.8485 19.4536 17.5008L5.07837 9.0625C2.41485 17.8133 7.07602 24.3568 7.07602 24.3568C7.07602 24.3568 4.60834 22.4231 1.84689 22.1691C1.27894 29.6112 7.91816 32.463 8.99532 32.3458C8.58404 32.5607 7.29145 33.4202 6.41014 36.0962C7.93775 37.9127 12.5989 37.9518 13.3431 37.9323C13.9503 46.0971 20.7266 52.5625 28.9913 52.5625C37.2561 52.5625 44.052 46.1166 44.6591 37.9323C45.4229 37.9323 50.0645 37.8932 51.5921 36.0962C50.6912 33.4397 49.4182 32.5802 49.0069 32.3458C50.0645 32.4826 56.7037 29.6112 56.1554 22.1691H56.1358H56.1162ZM35.3956 45.7259L26.0732 40.9208V26.7985L28.9913 23.8685L31.9095 26.7985V37.3463L38.0591 40.5106L39.3125 44.4563L35.3956 45.7259Z" fill="#A0A0A0"/>
</svg>
