<svg width="58" height="58" viewBox="0 0 58 58" fill="none" xmlns="http://www.w3.org/2000/svg">
<path fill-rule="evenodd" clip-rule="evenodd" d="M29 16.8738C31.9129 11.1585 37.7777 7.25 44.5551 7.25C49.0217 7.25 53.0998 8.95872 56.1875 11.7477C55.8768 20.1342 49.0411 26.8708 40.6712 26.8708C39.3895 26.8708 38.1467 26.6744 36.9426 26.3798C36.8455 25.8888 36.7873 25.4174 36.7873 24.9068C36.7873 20.5662 40.2634 17.0506 44.5551 17.0506L44.594 22.216C47.74 21.0769 50.2645 18.6218 51.4879 15.4794C49.546 14.026 47.1574 13.1225 44.5551 13.1225C38.1078 13.1225 32.8839 18.4058 32.8839 24.9068V30.7989L29 36.6911L25.1161 30.7989V24.9068C25.1161 18.4058 19.8922 13.1225 13.4449 13.1225C10.8426 13.1225 8.45402 14.026 6.51205 15.4794C7.73549 18.6022 10.26 21.0769 13.406 22.216L13.4449 17.0506C17.7172 17.0506 21.2127 20.5859 21.2127 24.9068C21.2127 25.4174 21.1545 25.9085 21.0574 26.3798C19.8533 26.6941 18.6105 26.8708 17.3288 26.8708C8.95893 26.8708 2.12321 20.1342 1.8125 11.7477C4.90022 8.95872 8.97835 7.25 13.4449 7.25C20.2223 7.25 26.0871 11.1585 29 16.8738ZM38.7292 28.8349L42.5161 31.8988H42.4967C45.7009 34.4913 46.0699 39.2836 43.3123 42.3475L34.6511 51.9714C31.6605 55.2906 26.4366 55.1531 23.6208 51.6768L15.5616 41.719C13.2507 38.8515 13.4643 34.6877 16.0471 32.0756L19.2708 28.8349L29 44.5473L38.7292 28.8349Z" fill="#A0A0A0"/>
</svg>
