<svg width="58" height="58" viewBox="0 0 58 58" fill="none" xmlns="http://www.w3.org/2000/svg">
<path d="M54.2448 25.7649L46.9016 21.7429C48.2226 19.6833 49.5048 16.8271 49.5048 13.388C49.5048 6.12111 43.7933 1.18588 43.6379 7.18977C43.5214 11.9501 41.5204 14.7675 38.315 16.7299L31.5157 3.34262C30.4861 1.30246 27.5139 1.30246 26.4843 3.34262L19.685 16.7299C16.4796 14.7675 14.4786 11.9501 14.3621 7.18977C14.2067 1.20531 8.49524 6.12111 8.49524 13.388C8.49524 16.8271 9.75797 19.6833 11.079 21.7429L3.73573 25.7649C1.17142 27.1833 1.17142 30.8167 3.73573 32.2351L12.6914 37.1315C12.3806 40.4929 10.7876 43.3297 6.94112 45.6224C1.73479 48.7312 8.92263 51.1405 15.3334 47.5266C17.6257 46.2247 19.277 44.4955 20.4426 42.7856L26.4843 54.6574C27.5139 56.6975 30.4861 56.6975 31.5157 54.6574L37.5574 42.7856C38.723 44.4955 40.3743 46.2247 42.6666 47.5266C49.0774 51.1405 56.2846 48.7312 51.0589 45.6224C47.2124 43.3297 45.6389 40.4929 45.3086 37.1315L54.2643 32.2351C56.8286 30.8167 56.8286 27.1833 54.2643 25.7649H54.2254H54.2448ZM45.6583 30.0006C44.7647 31.0499 43.7351 32.0019 42.5695 32.8569C41.2873 33.7895 39.8497 34.5667 38.315 35.2079C38.315 34.9942 38.3733 34.7804 38.3733 34.5667C38.3733 34.3724 38.3345 34.217 38.315 34.0227C38.0236 29.204 33.9829 25.3569 28.9903 25.3569C23.9977 25.3569 19.9569 29.204 19.6655 34.0227C19.6655 34.1975 19.6072 34.3724 19.6072 34.5667C19.6072 34.7804 19.6655 34.9942 19.6655 35.2079C18.092 34.5667 16.6738 33.7895 15.3917 32.8569C14.2261 32.0214 13.1965 31.0499 12.3029 30.0201C12.264 29.9618 12.2057 29.9229 12.1474 29.8646C12.672 29.2234 13.2742 28.6405 13.9153 28.0771C17.5869 24.7934 22.968 22.6949 28.9903 22.6949C35.0125 22.6949 40.3743 24.774 44.0459 28.0576C44.687 28.6211 45.2698 29.2234 45.8137 29.8646C45.7749 29.9229 45.7166 29.9618 45.6777 30.0201L45.6583 30.0006ZM28.9903 37.9281C28.4658 37.9281 27.9607 37.8115 27.5333 37.5978C27.1642 37.4229 26.8145 37.1898 26.5231 36.8983C25.9209 36.296 25.5518 35.4799 25.5518 34.5667C25.5518 32.7014 27.0865 31.1859 28.9903 31.1859C30.8941 31.1859 32.4288 32.7014 32.4288 34.5667C32.4288 35.4799 32.0597 36.296 31.4575 36.8983C31.1855 37.1898 30.8164 37.4229 30.4473 37.5978C30.0005 37.8115 29.4954 37.9281 28.9903 37.9281Z" fill="#A0A0A0"/>
</svg>
