<svg width="58" height="58" viewBox="0 0 58 58" fill="none" xmlns="http://www.w3.org/2000/svg">
<path fill-rule="evenodd" clip-rule="evenodd" d="M29.0099 1.8125L12.5862 29L29.0099 56.1875L45.4336 29L29.0099 1.8125ZM29.0099 9.38616V24.65L17.1714 28.9806L29.0099 9.38616ZM29.0099 33.3306L40.8484 29L29.0099 48.6138V33.35V33.3306ZM38.951 47.3127L50.75 50.3616L44.9988 37.331L38.951 47.3127ZM7.26976 50.3616L19.0687 47.3127L13.021 37.331L7.25 50.3616H7.26976ZM38.951 10.6873L50.75 7.63839L44.9988 20.669L38.951 10.6873ZM7.26976 7.63839L19.0687 10.6873L13.021 20.669L7.25 7.63839H7.26976Z" fill="#A0A0A0"/>
</svg>
