<svg width="58" height="58" viewBox="0 0 58 58" fill="none" xmlns="http://www.w3.org/2000/svg">
<path d="M55.8704 29.6782C54.2651 23.4092 48.0567 16.758 41.1326 12.687C41.7516 10.9859 42.5832 9.51425 43.6856 8.48216C44.8074 7.39273 44.8268 5.57703 43.7243 4.46849C42.6219 3.35995 40.7845 3.34084 39.6627 4.43026C38.0768 5.95928 36.839 7.96612 35.9493 10.2214C33.5703 9.36134 31.2301 8.86441 29.0445 8.86441C26.859 8.86441 24.5188 9.36134 22.1398 10.2214C21.2501 7.947 19.993 5.95928 18.4264 4.43026C17.3046 3.34084 15.4672 3.35995 14.3648 4.46849C13.2623 5.57703 13.2817 7.39273 14.4035 8.48216C15.4865 9.53336 16.3182 11.005 16.9565 12.687C10.0324 16.7389 3.84329 23.4092 2.21865 29.6782C0.92281 34.7239 2.7602 39.0052 7.26664 41.4325C8.73655 42.2161 10.2451 42.6175 11.6957 42.6175C12.9529 42.6175 14.21 42.3117 15.3705 41.7192C16.5116 43.5349 19.142 46.9561 23.455 48.7144C25.0023 53.397 26.3948 56.1875 28.9478 56.1875C31.5008 56.1875 32.8741 53.4353 34.402 48.7718C38.8504 47.0325 41.4808 43.4967 42.5639 41.7001C45.0975 42.9806 47.9407 42.9424 50.7257 41.4325C55.2322 39.0052 57.0889 34.7048 55.7737 29.6782H55.8318H55.8704ZM38.9858 38.5656C38.9858 38.5656 39.0632 38.642 39.0825 38.6803L38.8117 38.5656H38.9858ZM34.5567 27.0979C34.8855 29.1048 35.3497 31.0352 35.9879 32.7935H22.1785C22.8168 31.0161 23.2809 29.0857 23.6097 27.0979H34.5567ZM29.0832 14.5218C30.7272 14.5218 32.6033 14.9614 34.4987 15.7068C34.2086 17.5225 34.0732 19.4337 34.0925 21.3259H24.0933C24.0933 19.4337 23.9772 17.5225 23.6871 15.7068C25.5825 14.9614 27.4392 14.5218 29.1026 14.5218H29.0832ZM10.0711 36.4441C7.86621 35.2591 7.18928 33.5963 7.82753 31.0734C8.92996 26.8113 13.2623 21.9757 18.1943 18.631C18.6778 24.6515 17.3626 31.4365 14.6936 34.9915C12.8562 37.457 11.3669 37.1321 10.0517 36.4441H10.0711ZM29.0832 44.0318C24.0739 44.0318 21.1921 40.0373 20.3218 38.5656H37.7673C37.013 39.8844 34.2279 44.0318 29.0832 44.0318ZM48.0954 36.4441C46.7802 37.1512 45.3103 37.457 43.4536 34.9915C40.7845 31.4365 39.4887 24.6515 39.9528 18.631C44.8848 21.9757 49.2172 26.7921 50.3196 31.0734C50.9772 33.6154 50.2809 35.2782 48.076 36.4441H48.0954Z" fill="#A0A0A0"/>
</svg>
