<svg width="58" height="58" viewBox="0 0 58 58" fill="none" xmlns="http://www.w3.org/2000/svg">
<path fill-rule="evenodd" clip-rule="evenodd" d="M15.992 26.9126L19.463 17.3731L29.0185 13.9004V8.08468L33.9322 3.16849C24.7948 0.28154 15.072 1.97606 8.5274 8.524C1.98279 15.0719 0.289141 24.7997 3.15371 33.9208L10.1792 26.9126H15.992ZM54.8415 24.0884L49.9278 29.0046H44.115L40.6441 38.5441L31.1094 42.0168V47.8117L24.1048 54.8408C33.2213 57.7068 42.9441 56.0332 49.4887 49.4853C56.0333 42.9373 57.706 33.2095 54.8415 24.0675V24.0884ZM45.7459 12.2896L37.3822 35.3015L22.453 40.7198L15.3438 50.6777C14.7375 51.5354 13.8174 52.1421 12.772 52.3513L3.92736 54.1295L5.68374 45.2804C5.89283 44.2344 6.4992 43.3139 7.35648 42.6863L17.3093 35.5944L22.7457 20.6576L45.7459 12.2896ZM35.2495 22.7705L27.6385 25.5528L24.8576 33.1677L32.4685 30.3854L35.2495 22.7705Z" fill="#A0A0A0"/>
</svg>
