<svg width="58" height="58" viewBox="0 0 58 58" fill="none" xmlns="http://www.w3.org/2000/svg">
<path fill-rule="evenodd" clip-rule="evenodd" d="M22.2586 13.9426C24.954 11.2302 24.6024 6.6054 21.3796 4.55646C21.3406 4.55646 21.3015 4.51744 21.282 4.49792C21.1843 4.43938 21.0867 4.38084 20.989 4.3223C18.0006 2.72217 14.27 3.99056 12.6293 6.95665L6.7306 17.5721L10.5589 16.9477L3.625 32.7148L22.2781 13.9621L22.2586 13.9426ZM28.6065 45.4572L44.6423 29.3584C49.0566 24.9288 49.0566 17.7868 44.6423 13.3572C40.2281 8.94705 33.0598 8.94705 28.626 13.3572L12.5316 29.4169L19.5436 29.2999L8.39082 49.5941L28.7042 38.4518L28.6065 45.4377H28.587L28.6065 45.4572ZM53.4513 36.6175C53.5489 36.7541 53.6075 36.8712 53.6856 37.0078C55.2677 39.9934 54.0177 43.7205 51.0488 45.3597L40.4234 51.2528L41.0484 47.4086L25.2665 54.375L44.0368 35.7394C46.7518 33.0465 51.3613 33.3782 53.4122 36.6175H53.4513Z" fill="#A0A0A0"/>
</svg>
