<svg width="58" height="58" viewBox="0 0 58 58" fill="none" xmlns="http://www.w3.org/2000/svg">
<path d="M46.2764 36.3898C46.2764 48.3278 26.7756 46.9684 19.0889 43.8047C40.9872 43.8047 41.3332 38.3671 41.3332 36.3898H41.3827L34.2398 29.2469C31.0267 26.0338 29.8403 21.313 31.1503 16.9876L33.9185 4.25881C34.2892 2.60283 32.5591 1.26815 31.0514 2.03436C28.1349 3.49261 25.7622 5.86536 24.304 8.78187L15.5545 26.2315C14.6401 28.0358 14.1705 30.0378 14.1705 32.0892V36.4146C14.1705 39.3311 12.5392 42.0004 9.94403 43.2857C6.36023 45.0652 1.8125 47.784 1.8125 49.9837C1.8125 53.617 7.94205 56.1875 26.5284 56.1875C42.0747 56.1875 56.1875 47.265 56.1875 41.3825C56.1875 37.1313 49.9344 36.4146 46.2517 36.464V36.4146L46.2764 36.3898Z" fill="#A0A0A0"/>
</svg>
