<svg width="58" height="58" viewBox="0 0 58 58" fill="none" xmlns="http://www.w3.org/2000/svg">
<path fill-rule="evenodd" clip-rule="evenodd" d="M40.6415 6.09201C45.2046 4.27343 50.8654 6.38805 53.7926 10.6596H53.7496C60.0991 19.9217 53.0823 32.5037 43.7625 33.0746C34.4427 33.6244 31.7952 35.0412 30.4607 40.6238C28.7604 47.6444 24.9076 50.1185 19.8495 53.375C19.4621 53.6288 19.0531 53.8826 18.6442 54.1575C17.7617 54.7073 17.6325 54.7918 17.3312 54.9399C17.1375 55.0456 16.8577 55.1936 16.212 55.5743C14.9205 56.2932 13.5215 56.5893 12.3377 55.2782C11.2184 54.0306 11.9933 53.1636 12.7466 52.3389C12.8758 52.1909 13.0049 52.0428 13.134 51.916C14.9851 49.7379 16.1474 48.0462 17.3958 46.2488C18.2782 44.98 19.1822 43.6478 20.4306 42.0406C21.5499 40.5604 22.2602 38.8053 22.992 37.0501C23.2287 36.458 23.487 35.8448 23.7453 35.2739C26.7802 28.4859 31.58 24.595 39.3931 24.891C42.7509 25.0179 46.2162 23.6434 47.3785 20.2811C47.8305 18.9278 47.852 16.0307 45.8288 15.3541C44.3867 14.8677 42.5356 15.1638 42.2773 17.7647C42.0191 20.3657 41.0935 22.1632 38.5968 22.4592C36.0354 22.6918 34.2489 21.3808 33.6893 18.8643C32.484 13.2606 35.1745 8.35466 40.663 6.15545L40.6415 6.09201ZM14.2963 29.4163L19.4836 34.5337C19.4836 34.5337 19.5482 34.3857 19.5697 34.3223C19.6773 34.0685 19.7634 33.8148 19.8925 33.5821C22.088 28.6551 25.1228 25.1448 28.9541 23.0302L24.8861 19.0335L29.2769 14.6985C29.3415 14.043 29.4491 13.4086 29.5998 12.7531C29.7289 10.723 29.2554 7.61454 25.704 6.76869C25.9407 10.3213 21.9588 15.5021 19.2038 18.6529L12.3161 11.8649L12.2731 8.07976C12.2731 8.07976 7.79613 5.24616 3.36222 8.27007C0.284307 12.6262 3.1685 17.0246 3.1685 17.0246L7.02127 17.0669L13.9089 23.8549C10.7234 26.5616 5.42851 30.4736 1.8125 30.241C3.1685 35.591 9.8409 33.7936 9.8409 33.7936L14.2748 29.4163H14.2963ZM43.3966 37.2193L48.8636 42.5905L50.3918 54.4958L38.2954 52.9944L32.3979 47.2003C33.2804 45.6144 34.0122 43.7535 34.5288 41.5543C35.2175 38.7418 35.4758 37.748 43.3751 37.2193H43.3966Z" fill="#A0A0A0"/>
</svg>
