<svg width="58" height="58" viewBox="0 0 58 58" fill="none" xmlns="http://www.w3.org/2000/svg">
<path d="M42.5557 5.45491V13.7421C38.8379 9.70366 32.6634 3.625 28.9891 3.625C25.3148 3.625 19.1186 9.70366 15.4226 13.7421V5.45491L8.92191 7.66342L1.8125 31.2629L8.92191 49.8354H4.61713V56.1875H53.3611V49.8354H49.0781L56.1875 31.2629L49.0781 7.66342L42.5774 5.45491H42.5557ZM46.3604 31.1998C45.2516 36.0796 41.186 44.9136 33.9027 46.1546C30.011 46.8066 24.7713 42.663 22.0537 37.7833C21.5101 36.7947 19.9882 37.3205 20.1622 38.4143C20.8361 43.0626 23.7277 47.3535 26.2062 49.3306C26.4454 49.5409 26.6193 49.8775 26.5106 50.1719C26.4019 50.5926 25.9453 50.8029 25.5323 50.7188C25.4453 50.7188 22.9668 50.0457 19.836 47.2483C16.0531 43.883 10.2481 36.0165 12.7919 29.2647C14.1398 25.647 20.4665 23.3123 26.1628 23.4595C27.2933 23.4595 27.5977 21.9661 26.5541 21.5455C22.0971 19.7997 16.8357 20.0731 13.8354 21.1879C13.5311 21.2931 13.1615 21.272 12.9223 21.0196C12.6179 20.7041 12.6397 20.2204 12.9223 19.9259C12.9875 19.8418 14.8138 18.096 18.8577 16.855C23.7495 15.3616 33.62 14.3731 38.3379 19.9049C40.8599 22.8706 39.7946 29.3489 36.816 34.1024C36.229 35.0489 37.4248 36.0585 38.3379 35.3855C42.0991 32.4828 44.4907 27.9186 45.0125 24.8267C45.0777 24.5112 45.2734 24.2167 45.6212 24.1536C46.0561 24.0695 46.4691 24.3008 46.5996 24.7005C46.5996 24.7846 47.2736 27.2035 46.3604 31.2629V31.1998Z" fill="#A0A0A0"/>
</svg>
