<svg width="58" height="58" viewBox="0 0 58 58" fill="none" xmlns="http://www.w3.org/2000/svg">
<path fill-rule="evenodd" clip-rule="evenodd" d="M20.8422 41.0369C19.8593 42.0191 18.5001 42.5833 17.099 42.5833H11.7665C10.3654 42.5833 9.00613 42.0191 8.02328 41.0369L5.57661 38.5919L3.35997 36.3768C2.37712 35.3946 1.8125 34.0363 1.8125 32.6361V29C1.8125 22.5218 4.11279 16.5452 7.89781 11.8641C12.8957 5.72031 20.4867 1.8125 29.0187 1.8125C35.3758 1.8125 41.2311 4.02762 45.8526 7.68467C47.5464 9.0012 49.0521 10.5267 50.3904 12.2194C45.7899 11.8014 32.2181 11.5298 28.2031 21.0172C27.8476 21.874 27.0739 24.1936 27.0739 27.0774V32.657C27.0739 34.0572 26.5092 35.4155 25.5264 36.3977L20.8631 41.0578L20.8422 41.0369ZM5.68117 27.0774V32.9078H11.5155V38.7382H17.3499V32.9078H23.1843V27.0774H17.3499V21.2471H11.5155V27.0774H5.68117ZM30.8798 29.5642C31.6954 26.8058 39.0145 17.3393 43.5941 17.3393C47.5046 17.3393 53.3808 24.1727 55.5347 27.9342C55.9739 28.7074 56.2248 29.606 56.183 30.5046C55.8693 36.4186 53.6736 41.831 50.1604 46.1359C45.1625 52.2797 37.5715 56.1875 29.0396 56.1875C22.6824 56.1875 16.8271 53.9933 12.1847 50.3153C11.4528 49.7093 10.7209 49.0824 10.0517 48.4346C12.6239 48.6017 26.0492 48.8525 29.8342 36.9619C30.1897 35.8125 30.3779 33.8691 30.5452 32.2391C30.6707 31.0688 30.7543 30.0449 30.9007 29.5642H30.8798ZM46.5009 32.9078L52.4189 30.6927C53.0671 30.4419 53.0671 29.5224 52.4189 29.2926L46.5009 27.0774L44.2842 21.1635C44.0333 20.5157 43.1132 20.5157 42.8831 21.1635L40.6665 27.0774L34.7485 29.2926C34.1002 29.5433 34.1002 30.4628 34.7485 30.6927L40.6665 32.9078L42.8831 38.8218C43.1341 39.4696 44.0542 39.4696 44.2842 38.8218L46.5009 32.9078Z" fill="#A0A0A0"/>
</svg>
