<svg width="58" height="58" viewBox="0 0 58 58" fill="none" xmlns="http://www.w3.org/2000/svg">
<path d="M49.3421 15.154L43.5352 9.71534C45.4709 16.5246 38.2938 17.7429 36.8149 15.0235C34.0746 10.0417 40.2947 7.45284 40.2947 7.45284C33.6178 3.12364 22.787 -0.0308076 14.2615 3.03662C19.068 5.23385 31.9432 8.21426 28.0937 13.5224C25.0489 17.6993 18.894 8.60584 18.894 8.60584C18.894 8.60584 18.8722 17.3295 26.2233 21.0931C28.0284 22.0285 30.0945 22.3549 32.1172 22.0503C35.9667 21.4412 40.0772 22.7465 42.9263 25.9444C47.2107 30.7087 47.1455 38.1488 42.8175 42.8479C38.0981 47.982 30.2033 48.0473 25.3751 43.1089C22.4608 40.1285 21.3298 35.9951 22.004 32.1228C22.6783 28.2722 21.3516 24.3128 18.3068 21.9415C16.4364 20.484 14.6965 19.9401 14.6965 19.9401C14.6965 19.9401 18.5025 27.4455 13.3698 26.7493C8.23714 26.0532 9.6943 20.8755 11.8257 13.3049C14.305 4.47243 1.82129 4.12436 1.82129 4.12436C7.3672 9.28024 2.16927 14.893 1.82129 21.6152C1.53856 26.9886 8.1719 33.1017 8.1719 33.1017C10.2163 25.9444 20.1337 35.8863 17.9153 39.4106C15.6969 42.9349 8.91135 37.4309 8.91135 37.4309C8.91135 37.4309 9.91179 42.5433 16.1972 48.9827C25.8318 58.8376 40.1642 58.3373 49.3204 48.9827C58.4766 39.6282 58.4766 24.4868 49.3204 15.1323L49.3421 15.154Z" fill="#A0A0A0"/>
</svg>
