<svg width="58" height="58" viewBox="0 0 58 58" fill="none" xmlns="http://www.w3.org/2000/svg">
<path fill-rule="evenodd" clip-rule="evenodd" d="M55.1545 6.26981C54.476 6.44375 45.6343 8.55282 37.7337 1.8125C37.7337 1.8125 35.2825 6.18284 29.0014 6.18284C22.7203 6.18284 20.2472 1.8125 20.2472 1.8125C12.0183 8.83548 2.78265 6.24807 2.78265 6.24807C1.86346 18.8155 11.1648 26.5343 11.1648 26.5343C10.4863 21.903 11.318 16.9239 13.6816 14.88L18.0587 20.0766L24.1428 12.7927L29.0014 20.0766L33.86 12.7927L39.9441 20.0766L44.3212 14.88C46.6848 16.9239 47.5165 21.903 46.838 26.5343C46.838 26.5343 56.1174 18.8372 55.2201 6.26981H55.1545ZM26.0906 23.5337C17.2051 32.6223 26.6378 37.9928 26.6378 37.9928H26.6815C21.7573 22.8597 37.2303 20.2288 44.3212 25.2079C41.4542 27.3387 39.9441 30.1871 39.9441 38.9278C39.9441 47.6684 31.7808 58.2355 20.7068 55.8438C10.158 53.5825 11.3617 43.8417 11.3617 43.8417C15.0385 51.3212 24.4492 49.8645 25.9593 48.973C25.9593 48.973 23.2236 49.3209 18.6934 45.7333C18.6934 45.5159 18.6934 45.2984 18.7152 45.081C18.7809 43.6677 18.8903 41.8631 16.3516 38.4929C8.47286 28.078 19.9846 19.4243 26.0687 23.4902L26.0906 23.5337Z" fill="#A0A0A0"/>
</svg>
