<svg width="58" height="58" viewBox="0 0 58 58" fill="none" xmlns="http://www.w3.org/2000/svg">
<path fill-rule="evenodd" clip-rule="evenodd" d="M37.6413 10.2544C37.7471 16.33 42.4227 21.5191 47.5849 23.4867H47.5426C51.2238 24.9137 53.3183 25.3893 53.3607 26.0164C53.403 26.665 51.245 27.4434 46.3578 29.5622C44.0306 30.5568 42.9939 29.9082 41.661 29.0866C41.5341 29.0001 41.386 28.9136 41.2379 28.8271C37.3239 26.4704 32.1194 22.2542 29.6441 15.6165C29.9403 15.0111 30.2788 14.2976 30.6596 13.5409C31.5059 11.7895 32.5214 9.69227 33.4946 7.70311C34.0235 6.64367 34.5101 5.62747 34.9332 4.76262C36.1392 2.34103 38.9107 1.1951 41.4072 2.14644C41.7668 2.27617 42.1476 2.42751 42.5708 2.57886C43.2055 2.8167 43.9248 3.09778 44.7076 3.37885C50.3564 5.4545 58.2901 12.676 52.1547 21.6921C46.7175 20.2002 41.0263 16.6111 40.8782 10.4274C45.173 10.276 48.5158 13.0868 50.0391 16.33C49.2986 12.6328 47.0348 8.13554 43.2478 7.20582C37.9375 5.90854 37.599 7.07609 37.6413 10.2328V10.2544ZM25.0954 21.4543L23.1067 23.4867C24.8415 27.8109 28.5863 33.0649 28.5863 33.0649C25.5397 33.0433 22.3662 29.8001 20.2929 26.3407L19.0023 27.6596C18.4311 28.2433 18.283 29.1514 18.6638 29.8649C21.2237 34.5784 25.307 37.8648 28.7767 39.9621C29.4325 40.3513 30.2576 40.2648 30.85 39.7675L37.2393 34.2973C38.1702 33.4973 38.1067 31.9838 37.0701 31.2919C33.9389 29.1514 30.4692 26.0164 27.8881 21.7353C27.2745 20.7191 25.8994 20.5678 25.0531 21.411H25.0954V21.4543ZM14.8133 31.6595L6.0333 37.6702C3.24062 39.5945 2.73286 43.8107 5.27166 46.0593C6.39296 47.0323 6.98534 48.2647 7.28154 49.3674C7.66236 50.7944 9.29141 51.3998 10.4762 50.5781L13.8189 48.3079L12.4226 52.6105C12.0418 53.7997 12.7188 55.097 13.9247 55.4213L16.2943 56.0267C18.6003 56.6105 20.991 55.5727 22.1546 53.4322L27.2957 44.1782C23.0855 41.7567 17.9656 37.7351 14.8133 31.6811V31.6595Z" fill="#A0A0A0"/>
</svg>
