<svg width="58" height="58" viewBox="0 0 58 58" fill="none" xmlns="http://www.w3.org/2000/svg">
<path fill-rule="evenodd" clip-rule="evenodd" d="M45.3125 17.9538C45.3125 23.1984 42.8656 27.8451 39.0594 30.8342C49.0916 34.856 56.1875 44.6929 56.1875 56.1875H50.75C50.75 45.0734 42.4306 35.8886 31.7188 34.5299V28.4973C36.395 27.2745 39.875 23.0353 39.875 17.9538C39.875 12.8723 36.395 8.63315 31.7188 7.41033V1.8125C39.44 3.11685 45.3125 9.82881 45.3125 17.9538ZM18.9406 30.8614C15.1344 27.8451 12.6875 23.1984 12.6875 17.981C12.6875 9.85598 18.56 3.14402 26.2812 1.83967V56.1875H1.8125C1.8125 44.6929 8.90844 34.856 18.9406 30.8614Z" fill="#A0A0A0"/>
</svg>
