<svg width="58" height="58" viewBox="0 0 58 58" fill="none" xmlns="http://www.w3.org/2000/svg">
<path fill-rule="evenodd" clip-rule="evenodd" d="M27.1166 11.9377C27.3884 15.9869 30.7281 19.1991 34.8251 19.1991C38.922 19.1991 42.5918 15.7144 42.5918 11.412C42.5918 7.1097 39.1162 3.625 34.8251 3.625C20.0488 3.625 13.4665 18.8681 13.4665 28.9329C13.4665 38.9976 19.4857 49.9579 29 56.1875C33.1358 55.0584 36.9998 52.1966 39.4463 47.9332C41.9122 43.6698 42.4365 38.8808 41.3492 34.7342C39.6793 35.182 38.0677 35.9217 36.5726 36.9146C35.8736 31.4442 33.0776 26.5773 29 23.0926C24.5924 26.8498 21.7187 32.2034 21.3109 38.1994C20.0294 35.182 19.2915 32.0087 19.2915 28.9329C19.2915 24.4553 21.408 16.1037 27.1166 11.9377ZM55.7177 32.8264C52.1255 33.8387 48.7858 36.4474 46.65 40.3019C44.5141 44.176 44.0481 48.5173 44.9995 52.294C48.5917 51.2817 51.9314 48.673 54.0672 44.799C56.2031 40.9249 56.6691 36.5836 55.7177 32.8264ZM3.93277 44.799C1.79691 40.9444 1.33091 36.6031 2.28233 32.8264C5.87446 33.8387 9.21417 36.4279 11.35 40.3019C13.4859 44.176 13.9519 48.5173 13.0005 52.294C9.40834 51.2622 6.06863 48.673 3.93277 44.799Z" fill="#A0A0A0"/>
</svg>
