<svg width="58" height="58" viewBox="0 0 58 58" fill="none" xmlns="http://www.w3.org/2000/svg">
<path fill-rule="evenodd" clip-rule="evenodd" d="M36.752 3.625L45.5827 12.0963C40.9859 15.5513 35.2399 17.6008 28.9698 17.6008C22.6996 17.6008 16.9335 15.5513 12.3569 12.1159L21.2077 3.625H36.752ZM1.8125 22.3244L9.17137 15.2389L18.3851 27.8288L7.4375 38.5059L1.8125 22.3244ZM10.2198 41.1214L27.0544 54.375V39.6965L20.6633 30.9129L10.2198 41.1019V41.1214ZM39.6351 27.8288L48.8286 15.2389L56.1875 22.3244L50.5625 38.5059L39.6351 27.8288ZM30.9456 39.6965V54.375L47.8004 41.1214L37.3569 30.9324L30.9456 39.7161V39.6965ZM16.5504 18.8305C20.381 20.4506 24.5746 21.368 29.0101 21.368C33.4456 21.368 37.6391 20.4506 41.4698 18.8305L29.0101 35.8513L16.5504 18.8305Z" fill="#A0A0A0"/>
</svg>
