<svg width="58" height="58" viewBox="0 0 58 58" fill="none" xmlns="http://www.w3.org/2000/svg">
<path fill-rule="evenodd" clip-rule="evenodd" d="M37.5547 6.72469C37.5547 9.43141 35.4062 11.6369 32.7695 11.6369C30.1328 11.6369 27.9844 9.43141 27.9844 6.72469C27.9844 4.01798 30.1328 1.8125 32.7695 1.8125C35.4062 1.8125 37.5547 4.01798 37.5547 6.72469ZM21.8711 14.504C23.4141 14.504 24.6641 13.2208 24.6641 11.6369C24.6641 10.053 23.4141 8.76977 21.8711 8.76977C20.3281 8.76977 19.0781 10.053 19.0781 11.6369C19.0781 13.2208 20.3281 14.504 21.8711 14.504ZM51.6562 39.9873C51.6562 36.0575 48.9609 31.3859 44.6641 27.7569C46.207 26.6341 47.0859 25.3108 47.0859 23.9074C47.0859 19.6568 38.9805 16.2082 29 16.2082C19.0195 16.2082 10.9141 19.6568 10.9141 23.9074C10.9141 25.3108 11.793 26.6141 13.3359 27.7569C9.03906 31.3659 6.34375 36.0575 6.34375 39.9873C6.34375 43.917 9.29297 47.8067 13.9609 50.353L13.4141 56.1875H19.2734L20.3477 52.7991C23.0039 53.4808 25.9336 53.8417 28.9805 53.8417C32.0273 53.8417 34.957 53.4607 37.6133 52.7991L38.7852 56.1875H44.6445L44 50.353C48.6875 47.8067 51.6172 44.1175 51.6172 39.9873H51.6562ZM41.0508 24.1881C40.5234 24.4286 39.8789 24.6893 39.1367 24.9499C38.5312 25.1504 37.8672 25.3309 37.1836 25.4913C33.375 26.3935 31.6953 29.2005 34.918 35.2355C38.1406 41.2705 37.1836 45.8619 33.0039 46.2829C29.0391 46.6839 27.9453 42.0925 28.9609 36.659C30.3867 29 25.0156 30.5639 25.4453 34.7342C25.875 38.9046 25.2109 40.0073 23.2578 40.4284C20.0352 40.5888 20.6602 37.4811 21.3633 33.9924C22.1055 30.3634 22.9258 26.3334 19.5469 25.1705H19.5664C19.3125 25.0903 19.0391 25.0101 18.8047 24.9299C18.043 24.6893 17.418 24.4286 16.8906 24.168C16.1484 23.8272 16.1484 22.6442 16.8906 22.2833C17.418 22.0427 18.0625 21.7821 18.8047 21.5214C21.6367 20.5791 25.2305 20.0578 28.9414 20.0578C32.6523 20.0578 36.2461 20.5791 39.0781 21.5214C39.8398 21.762 40.4648 22.0227 40.9922 22.2833C41.7344 22.6242 41.7344 23.8071 40.9922 24.168L41.0508 24.1881Z" fill="#A0A0A0"/>
</svg>
