<svg width="58" height="58" viewBox="0 0 58 58" fill="none" xmlns="http://www.w3.org/2000/svg">
<path d="M38.4507 11C34.9533 11 31.2449 12.7575 29.0007 15.5243C26.9779 12.7725 23.8485 11.006 20.335 11.006C14.2358 11.006 9.04544 16.1346 9.38843 22.7539C9.42654 23.4977 9.56579 24.5279 9.72996 25.5522C13.7213 24.5894 15.9684 26.9933 16.5518 27.4672C15.9772 25.2762 15.2838 20.9184 17.6438 18.8234C21.6674 15.2499 26.9046 21.1628 26.9046 21.1628L29.2206 23.7122C29.2206 23.7122 29.9975 22.4825 31.2581 21.1343C33.2442 19.0079 36.4308 16.586 39.6629 18.2236C42.8246 19.8252 42.9052 24.0961 41.4468 28.3219C38.6398 36.4498 36.2813 38.7637 36.274 39.9064C36.2725 40.1583 36.6009 40.6562 37.0113 40.5377C38.2909 40.1688 41.5215 36.9762 43.6645 34.2634C46.7881 30.3089 48.5104 27.3697 48.9458 23.1048C49.5585 17.0869 45.1508 11.0015 38.4522 11.0015L38.4507 11Z" fill="#A0A0A0"/>
<path d="M25.4169 30.8473C25.4169 30.8473 24.7822 31.792 24.7309 33.842C24.6796 35.8919 26.2406 39.2226 26.2406 39.2226L19.2444 35.4795C19.2444 35.4795 15.7236 29.5996 14.7107 28.5769C12.6015 26.4474 9 28.3219 9 28.3219L16.6822 41.7014L29.1385 49C29.1385 49 34.2878 44.9301 31.7198 38.3093C30.0429 33.9859 25.4169 30.8473 25.4169 30.8473Z" fill="#A0A0A0"/>
</svg>
