<svg width="58" height="58" viewBox="0 0 58 58" fill="none" xmlns="http://www.w3.org/2000/svg">
<path d="M29.2874 21.2162C32.9745 21.2451 35.9871 18.3123 36.0091 14.6697C36.0311 11.0779 33.0478 8.02918 29.4853 8.00021C25.8789 7.97124 22.9176 10.9258 22.8956 14.5684C22.8809 18.2254 25.7323 21.1872 29.2874 21.2162ZM25.7104 12.729C26.1282 11.7948 27.1031 11.3169 27.8874 11.6645C28.6717 12.0121 28.9796 13.0476 28.5617 13.989C28.1439 14.9232 27.169 15.4011 26.3847 15.0535C25.5931 14.7059 25.2925 13.6632 25.7104 12.729ZM24.6695 36.438C25.4611 38.4874 24.8674 40.4499 24.4056 42.492C24.2517 42.4341 24.0757 42.4268 24.0391 42.3472C22.8003 39.885 20.5353 39.3854 18.0724 39.2116C17.0609 39.1391 16.064 38.9798 15.0598 38.8567C15.0304 38.7698 14.9938 38.6757 14.9645 38.5888C16.2619 37.4953 17.552 36.4018 18.9154 35.2576C16.819 33.889 14.5247 32.8824 13 30.652C15.4116 30.5361 17.6619 30.4275 20.0442 30.3116C19.8903 29.993 19.8023 29.7757 19.6777 29.573C18.3949 27.5888 17.1122 25.6118 15.8294 23.6276C15.265 22.7586 14.8472 21.8462 15.0671 20.702C17.9698 21.9041 20.8505 23.0555 22.9249 25.5394C23.8778 26.6836 24.4569 27.9726 24.4936 29.4644C24.5449 31.4413 24.5522 33.4183 24.5815 35.3952C24.5889 35.7428 24.5522 36.1266 24.6695 36.438ZM40.07 35.3156C41.4554 36.4598 42.7968 37.5677 44.3947 38.8857C42.7748 39.0885 41.4114 39.3998 40.048 39.3926C38.0249 39.3781 36.5369 40.0299 35.5546 41.862C34.9462 42.9989 34.3965 43.2958 33.209 43.629C32.7252 42.1082 33.3556 40.7613 33.6048 39.3636C33.9127 37.6836 34.1619 35.989 34.3085 34.2873C34.4405 32.7376 34.2865 31.1589 34.4625 29.6092C34.8363 26.2925 36.8081 24.0838 39.7108 22.6065C40.825 22.0417 41.9538 21.5131 43.09 21.0061C43.3245 20.8975 43.6251 20.9193 43.8889 20.883C43.9036 21.1437 44.0062 21.4479 43.9109 21.6579C43.3978 22.7803 42.892 23.9173 42.2763 24.989C41.3601 26.5894 40.3632 28.1464 39.4103 29.7251C39.3223 29.8771 39.3076 30.0654 39.2343 30.3261C41.4993 30.4565 43.6837 30.5796 46 30.7172C44.4534 32.9476 42.2177 33.9831 40.07 35.3156ZM32.4687 33.7659C32.5347 35.8732 32.1168 37.8864 31.3179 39.8271C30.3283 42.2386 29.9251 44.7152 30.4383 47.3077C30.5555 47.887 30.4969 48.517 30.4383 49.1109C30.4089 49.415 30.255 49.9074 30.0644 49.9509C29.6393 50.0523 29.1555 49.9798 28.7084 49.8857C28.5324 49.8495 28.3345 49.6033 28.2685 49.4078C27.6528 47.648 26.6266 44.049 26.7072 44.02C26.7366 43.6724 26.7146 43.3031 26.8099 42.9772C27.7188 39.8561 27.3816 36.7277 26.8758 33.5921C26.6046 31.9265 26.436 30.2464 26.1868 28.5736C25.9889 27.2774 25.3658 26.1984 24.5375 25.1773C23.9658 24.4749 23.5113 23.6349 23.1888 22.7876C23.0422 22.4038 23.1815 21.7086 23.46 21.4262C23.6799 21.2017 24.3983 21.2306 24.7648 21.4117C27.8141 22.9179 30.8341 22.9904 33.92 21.5275C34.3085 21.3465 35.1588 21.3465 35.2834 21.5638C35.5327 21.9765 35.6279 22.7079 35.4227 23.1352C34.9389 24.1273 34.3012 25.0687 33.6122 25.9377C32.7619 27.0239 32.3367 28.2116 32.3514 29.5657C32.3881 30.9634 32.432 32.361 32.4687 33.7659Z" fill="#A0A0A0"/>
</svg>
