<svg width="58" height="58" viewBox="0 0 58 58" fill="none" xmlns="http://www.w3.org/2000/svg">
<path d="M15.7905 17.1718C15.7905 17.1718 14.1171 19.7417 13.6977 22.8157C13.3039 25.7075 14.4609 31.7445 10.0512 31.0053C7.1997 30.5271 7.92658 26.0171 8.66406 24.1075C10.5615 19.1952 15.5194 17.3084 15.7905 17.1718ZM47.349 14.1175C43.7706 9.79276 38.4856 8 38.4841 8L39.9591 10.9297C39.9591 10.9297 32.9962 7.9575 26.6739 8.68917C21.5449 9.28271 18.5586 10.2679 18.5586 12.1791C18.5586 14.0902 24.7462 13.7304 24.7462 13.7304C24.7462 13.7304 16.4447 21.2066 20.3637 24.4156C25.7789 28.8497 30.0327 16.7346 38.0601 16.7346C46.0875 16.7346 46.8826 18.5516 46.6675 21.4798C46.4525 24.4096 38.0601 24.1227 36.1763 25.5754C34.2925 27.0281 34.715 30.2281 34.715 30.2281L29.4724 31.2208L37.0349 39.9645L38.0586 34.8807C38.0586 34.8807 40.8586 35.1828 44.5975 34.1491C48.3363 33.1153 47.4247 28.4216 49.1525 25.0608C50.9092 21.6453 49.7537 17.0275 47.3475 14.1191L47.349 14.1175ZM13.9687 46.161L16.5098 50L34.2788 41.5539L26.9737 33.1077L13.9687 46.161Z" fill="#A0A0A0"/>
</svg>
