<svg width="58" height="58" viewBox="0 0 58 58" fill="none" xmlns="http://www.w3.org/2000/svg">
<path d="M44.8181 20.5962C42.1059 19.0996 39.5294 18.6915 37.2078 18.9031C37.3284 18.0016 37.2743 17.0245 37.2743 16.1325C37.2743 12.1938 33.5703 9 28.9991 9C24.428 9 20.7239 12.1938 20.7239 16.1325C20.7239 17.0245 20.6699 18.0016 20.7904 18.9031C18.4688 18.6915 15.8937 19.0983 13.1801 20.5962C4.1015 25.6055 9.70603 39.9915 9.76005 40.1262V43.2225C9.76005 43.9303 10.3391 44.5047 11.0524 44.5047H16.9188C17.6322 44.5047 18.2112 43.9303 18.2112 43.2225V39.9654C18.2112 39.9654 18.0657 39.2852 17.4632 38.4441C16.8606 37.603 14.5044 36.1518 14.5044 36.1518L15.0972 31.6235C15.0972 31.6235 15.7067 31.5534 16.7179 31.3473C17.7291 31.1411 18.6863 30.5873 18.6863 30.5873L21.7878 44.5528L18.8955 47.3522L19.523 49H26.6775V41.7176H26.6803C26.6789 41.686 26.6775 41.6544 26.6775 41.6228C26.6775 40.5715 27.7178 39.7181 29.0005 39.7181C30.2832 39.7181 31.3235 40.5701 31.3235 41.6228C31.3235 41.6544 31.3235 41.686 31.3207 41.7176H31.3235V49H38.4781L39.1056 47.3522L36.2133 44.5528L39.3147 30.5873C39.3147 30.5873 40.2733 31.1398 41.2831 31.3473C42.2929 31.5548 42.9038 31.6235 42.9038 31.6235L43.4967 36.1518C43.4967 36.1518 41.1404 37.603 40.5379 38.4441C39.9353 39.2852 39.7899 39.9654 39.7899 39.9654V43.2225C39.7899 43.9303 40.3689 44.5047 41.0823 44.5047H46.9486C47.662 44.5047 48.241 43.9303 48.241 43.2225V40.1262C48.2936 39.9902 53.8981 25.6055 44.8209 20.5962H44.8181ZM26.1512 20.6649C26.1512 20.6649 24.6191 18.9814 23.8683 17.8133C22.9804 16.4308 22.9804 15.532 22.9804 15.532L27.7538 18.7808L26.1512 20.6649ZM34.1299 17.8133C33.3791 18.9814 31.8471 20.6649 31.8471 20.6649L30.2444 18.7808L35.0178 15.532C35.0178 15.532 35.0178 16.4308 34.1299 17.8133Z" fill="#A0A0A0"/>
</svg>
