<svg width="58" height="58" viewBox="0 0 58 58" fill="none" xmlns="http://www.w3.org/2000/svg">
<path d="M43.9316 21.4522C44.6903 27.3938 44.7055 33.3429 43.4537 39.2399C42.8695 41.9879 42.8164 41.9805 39.9106 41.9805C38.6892 41.9805 37.4677 41.9285 36.2538 41.9954C35.4724 42.0399 34.9868 41.7651 34.8503 41.0596C34.3723 38.5938 33.8792 36.128 33.515 33.64C33.3177 32.2957 33.4239 32.2808 32.0204 32.2808C29.585 32.2808 27.1497 32.2808 24.7598 32.2808C24.4033 34.7243 24.1453 36.997 23.7129 39.2399C23.1818 41.9879 23.1135 41.9731 20.2685 41.9731C18.9787 41.9731 17.689 41.936 16.4068 41.9879C15.7012 42.0177 15.284 41.7651 15.155 41.1413C14.677 38.9132 14.0625 36.685 13.8273 34.4272C13.3114 29.4585 13.448 24.4824 14.3584 19.5509C14.5253 18.6522 14.8363 17.7832 15.1019 16.9068C15.2991 16.2681 15.6936 15.9933 16.4447 16.0156C18.2352 16.075 20.0409 16.0676 21.8313 16.0156C22.5293 15.9933 22.9542 16.2235 23.0983 16.8474C23.5232 18.6596 23.9481 20.4718 24.2971 22.2989C24.464 23.1975 24.426 24.1259 24.5626 25.032C24.6005 25.2771 24.9495 25.6707 25.1695 25.6782C27.878 25.7227 30.5789 25.7079 33.2874 25.7079C33.5529 23.6877 33.7578 21.7418 34.084 19.8108C34.2585 18.7859 34.6151 17.7907 34.9185 16.788C35.0855 16.2161 35.4648 15.9859 36.1248 16.0007C37.9533 16.0453 39.7817 16.0453 41.6177 16.0007C42.2626 15.9859 42.6798 16.1938 42.8316 16.7731C43.2261 18.3328 43.7268 19.8777 43.9316 21.4522ZM50.8356 25.9158C50.6839 24.1408 50.2818 22.3731 49.91 20.6204C49.8266 20.2341 49.4017 19.6548 49.0982 19.6251C47.7781 19.5137 46.4429 19.5806 45.0848 19.5806C46.0559 25.9233 46.0559 32.11 45.0848 38.4452C46.0332 38.4452 46.9057 38.4452 47.7857 38.4452C49.6141 38.4452 49.7279 38.3933 50.1756 36.6331C51.0632 33.1052 51.1467 29.5031 50.8356 25.9158ZM12.9017 19.5657C11.9761 19.5657 11.1036 19.5657 10.2236 19.5657C8.38757 19.5657 8.27377 19.6177 7.82615 21.3705C6.93091 24.9058 6.85504 28.5079 7.1661 32.11C7.31784 33.8628 7.70476 35.5933 8.06893 37.3238C8.15238 37.7174 8.55448 38.3338 8.85037 38.3635C10.1932 38.475 11.5513 38.4155 12.9093 38.4155C11.923 32.0431 11.9382 25.849 12.9017 19.5657Z" fill="#A0A0A0"/>
</svg>
