<svg width="58" height="58" viewBox="0 0 58 58" fill="none" xmlns="http://www.w3.org/2000/svg">
<path d="M43.1907 45.0808C43.1907 48.9898 34.7107 50 34.7107 50C34.7107 50 37.5435 48.1652 36.9518 46.2865C36.2945 44.2024 30.5189 42.6822 27.9206 41.0741C25.3223 39.4674 25.0014 38.8043 25.0014 38.8043C25.0014 38.8043 28.1453 39.738 31.5459 40.1291C33.4018 40.343 37.7514 40.9041 39.631 41.5629C41.7688 42.311 43.1921 43.6796 43.1921 45.0808H43.1907ZM45.3188 33.6259C43.5647 34.6687 41.212 33.8866 41.212 33.8866C41.212 33.8866 41.0836 31.3831 38.7742 29.9337C36.4648 28.4843 34.0256 29.5426 34.0256 29.5426C34.0256 29.5426 31.8892 28.2831 30.6486 27.0675C29.4081 25.8518 28.5039 23.6161 28.5039 23.6161C28.5039 23.6161 26.7735 23.8315 25.914 24.0978C25.0544 24.3642 23.758 24.8955 23.758 24.8955L31.5431 31.7274C31.5431 31.7274 31.7999 32.7361 31.2012 34.1034C30.6026 35.472 29.0411 36.0359 29.0411 36.0359L28.9979 32.7135C28.9979 32.7135 28.6978 33.1484 27.7141 34.255C26.7303 35.3629 24.9972 35.1022 24.9972 35.1022C24.9972 35.1022 25.2246 34.5766 25.6181 33.6032C26.1526 32.2785 25.5456 30.8121 25.5456 30.8121C25.5456 30.8121 19.848 29.4435 17.9726 28.3313C16.6651 27.5549 16.3134 26.5022 16.3134 26.5022C16.3134 26.5022 15.5753 28.548 18.3396 30.0796C19.2215 30.5684 19.3931 30.5812 19.3931 30.5812C19.3931 30.5812 18.7415 32.3621 19.5648 35.319C21.1053 40.8573 31.1998 46.1335 31.1998 46.1335C31.1998 46.1335 13.083 45.0043 9.96145 33.3865C8.7251 28.7861 11.1811 24.6178 11.1811 24.6178L9 21.8111C9 21.8111 9.89865 21.1594 11.9569 20.2129C14.0166 19.2665 15.5864 18.7224 15.5864 18.7224L14.1324 15.6437C14.1324 15.6437 18.4526 14.9707 21.4039 15.3773C24.3553 15.784 27.1154 17.0336 27.1154 17.0336C27.1154 17.0336 27.0303 14.2326 27.5215 12.4304C28.3504 9.40264 29.8337 8 29.8337 8C29.8337 8 29.8002 9.95379 29.9733 11.1722C30.2621 13.2125 31.5459 16.413 31.5459 16.413H36.4229C36.4229 16.413 37.8616 14.3941 37.877 11.627C37.8867 9.82344 37.877 9.69451 37.877 9.69451C37.877 9.69451 39.9073 11.1552 40.1627 14.02C40.3762 16.4244 39.8445 17.6697 39.8445 17.6697C39.8445 17.6697 41.4534 18.806 41.879 20.4254C42.3688 22.29 43.0107 27.9785 45.3634 28.5438C47.7161 29.1091 48.9999 27.7192 48.9999 27.7192C48.9999 27.7192 49.0711 31.3972 45.3216 33.6259H45.3188ZM39.6296 26.1876C39.6296 26.1876 39.5612 24.1588 38.7631 22.5067C38.1672 21.2727 37.1904 20.4651 36.5025 20.169C35.4978 19.7355 34.2712 20.6181 34.2712 20.6181L39.6296 26.189V26.1876Z" fill="#A0A0A0"/>
</svg>
