<svg width="58" height="58" viewBox="0 0 58 58" fill="none" xmlns="http://www.w3.org/2000/svg">
<path d="M19.1918 21.3595L13.5418 18.8321L19.2809 16.3046C19.2809 16.3046 19.519 15.6813 19.8169 15.1391C20.1148 14.597 20.8581 13.987 20.8581 13.987L21.1253 8L24.6943 11.7904C24.6943 11.7904 26.5621 11.3162 29.1556 11.3399C32.6356 11.3694 36.0849 14.1982 38.2257 12.272C39.5488 11.0814 38.6711 8 38.6711 8C38.6711 8 41.0281 9.00743 41.8239 11.7298C42.7454 14.888 40.5155 16.2721 40.5155 16.2721L40.2483 22.0774L35.787 17.5351C35.787 17.5351 34.1806 17.2042 33.2591 16.9339C32.3362 16.6621 25.6888 13.4995 24.7834 17.7153C24.1964 20.4525 27.266 21.3107 28.6197 22.4984C31.2249 24.7865 31.9069 27.1958 32.1522 27.7143C34.461 27.9595 36.0396 28.4543 36.0396 29.0245C36.0396 29.8384 32.824 30.4987 28.8577 30.4987C24.8915 30.4987 21.6759 29.8384 21.6759 29.0245C21.6759 28.4957 23.0325 28.0318 25.0682 27.7719C24.9908 27.6478 24.5176 26.9151 23.6239 26.1381C22.4177 25.0879 21.2144 24.5132 20.3236 23.3404C19.5482 22.3196 19.1933 21.3551 19.1933 21.3551L19.1918 21.3595ZM43.734 38.3026C43.3602 37.5034 43.5121 35.6245 43.4887 33.8356C43.4551 31.3304 43.4434 28.9167 43.4434 28.9167C43.4434 27.1234 39.1296 25.5871 33.2241 25.0554L34.017 26.7526C38.0023 27.2785 40.7506 28.3923 40.7506 29.6804C40.7506 31.4751 35.4117 32.9316 28.8256 32.9316C22.2395 32.9316 16.9006 31.4766 16.9006 29.6804C16.9006 28.6419 18.688 27.7172 21.4699 27.1219L19.7584 25.6817C16.242 26.4188 13.9726 27.5843 13.9785 28.893C13.9829 29.7394 13.9785 31.1058 13.9785 32.0837C13.9785 34.5048 14.6999 34.781 15.7396 35.9952C17.8075 38.406 19.3189 42.8788 18.6398 44.6441C17.7578 46.9366 15.2855 47.9573 15.4724 49.3813C15.6798 50.9589 25.6728 49.4286 26.5665 45.8243C26.825 44.7785 24.9747 43.2215 24.7513 42.0487C24.5279 40.8758 24.8053 41.1269 24.3497 39.5892C23.9481 38.2361 22.6105 37.6039 23.475 36.7264C24.414 35.7751 27.834 39.7694 28.8241 41.1683C29.8142 42.5672 31.0409 45.6795 32.2004 47.3487C34.5077 50.6709 43.4858 50.2381 43.7311 49.0652C43.9838 47.8569 40.2074 46.1316 39.2158 44.7667C38.2009 43.3693 37.976 42.7031 37.3962 41.0324C36.8165 39.3617 35.2992 38.1903 35.9461 37.5359C36.7274 36.7456 37.9088 38.3026 38.712 38.7546C39.5152 39.2066 40.422 39.2716 40.8528 39.9053C41.3435 40.6276 40.7521 41.2805 41.6341 43.0635C42.7045 45.229 48.2596 45.6219 48.927 44.1019C49.6411 42.4771 44.9125 40.83 43.7297 38.3041L43.734 38.3026ZM14.0909 38.4828C12.5985 38.3041 12.5737 40.2879 11.2579 41.3249C9.94215 42.3633 8.50665 42.9128 9.16526 44.3663C9.47338 45.0473 10.6782 45.0473 12.1721 45.0473C13.666 45.0473 14.7904 44.6987 15.4958 43.9188C16.924 42.3397 15.4067 38.6394 14.0909 38.4813V38.4828Z" fill="#A0A0A0"/>
</svg>
