<svg width="58" height="58" viewBox="0 0 58 58" fill="none" xmlns="http://www.w3.org/2000/svg">
<path d="M49.2763 47.2334C48.3238 48.2555 46.7121 48.2555 45.7596 47.2334L41.4371 42.853C38.2136 45.3353 34.4772 45.7733 32.3525 43.6561L35.8692 40.0788C34.1108 38.3266 31.8397 36.0634 29.4953 33.6542C27.1509 36.0634 24.8065 38.3266 23.1214 40.0788L26.638 43.6561C24.5867 45.7003 20.7037 45.3353 17.5534 42.853L13.2309 47.2334C12.2785 48.2555 10.6667 48.2555 9.71431 47.2334C8.7619 46.2113 8.7619 44.6782 9.71431 43.6561L14.3299 39.0567C12.9379 36.3554 12.9379 33.4352 14.5497 31.683L18.0663 35.2603L24.4401 28.8357C21.6562 26.0615 19.2385 23.6523 18.1395 22.4842C14.3299 18.6878 15.8684 10.073 15.8684 10.073L29.422 23.7983L43.1954 10C43.1954 10 44.6607 18.6148 40.9243 22.4111C39.7521 23.5793 37.3344 26.0615 34.6237 28.7627L40.9976 35.1873L44.5142 31.61C46.2725 33.3622 46.2725 36.2094 44.734 38.9837L49.3495 43.5831C50.2287 44.6782 50.2287 46.2113 49.2763 47.2334Z" fill="#A0A0A0"/>
</svg>
