<svg width="58" height="58" viewBox="0 0 58 58" fill="none" xmlns="http://www.w3.org/2000/svg">
<path d="M28.0198 49.5279C28.0198 49.5279 11.8042 52.8106 8.56963 42.0635C5.56023 32.062 15.4551 29.8149 15.4551 29.8149L10.4974 26.9085C10.4974 26.9085 14.2745 24.5078 19.5222 25.8022C24.4355 27.0137 27.5183 30.3654 27.8902 30.7865C27.8902 30.3706 27.8322 27.138 26.0238 24.8201C24.0892 22.3383 20.0818 21.465 20.0818 21.465C20.0818 21.465 21.2214 19.7875 23.7787 19.4147C26.336 19.0419 27.1293 19.7875 27.1293 19.7875C27.1293 19.7875 26.8529 16.0475 22.535 16.1182C18.2171 16.1873 11.7565 21.7101 11.7565 21.7101C11.7565 21.7101 16.9137 5.81296 27.752 8.25509C37.8396 10.5264 34.9036 20.3484 34.9036 20.3484L39.8442 17.4126C39.8442 17.4126 40.0523 21.9207 36.3554 25.9057C32.8393 29.6958 28.3559 30.7348 27.926 30.8262L27.9311 30.8314C27.9311 30.8314 24.8603 32.5072 23.6763 35.4326C22.4941 38.358 23.7139 42.3172 23.7139 42.3172C23.7139 42.3172 21.7093 42.1394 20.1313 40.0701C18.5532 38.0025 18.8023 36.9359 18.8023 36.9359C18.8023 36.9359 15.7212 39.019 17.9066 42.7883C20.092 46.5577 28.0233 49.5279 28.0233 49.5279H28.0198ZM43.6588 21.0353C43.6588 21.0353 45.2761 29.4334 43.2323 33.2822C41.1885 37.1309 37.826 35.5517 37.826 35.5517C37.826 35.5517 38.8564 35.2117 39.7811 32.773C40.7057 30.3343 39.8135 28.5084 39.8135 28.5084C39.8135 28.5084 37.106 31.6219 34.0216 32.1224C30.9371 32.6211 27.9243 30.84 27.9243 30.84C27.9243 30.84 26.4145 35.512 28.0523 40.719C29.69 45.926 33.6821 47.9401 33.6821 47.9401L33.5558 42.1446C33.5558 42.1446 40.6017 49.5262 47.4786 41.7217C54.869 33.3374 43.6605 21.0335 43.6605 21.0335L43.6588 21.0353Z" fill="#A0A0A0"/>
</svg>
