<svg width="58" height="58" viewBox="0 0 58 58" fill="none" xmlns="http://www.w3.org/2000/svg">
<path d="M15.4621 37.7171C14.7376 37.2692 14.0743 36.7816 13.4983 36.2511C9.50026 32.5594 7.78002 27.6097 8.77724 22.6707C9.62128 18.4913 12.3433 15.0978 15.8834 13.8137C20.5371 12.1245 24.814 12.3049 28.5961 14.3503C36.1112 18.4119 38.5453 28.4871 38.6464 28.9136L35.6624 29.6092L32.6814 30.3108C32.6631 30.2329 30.7498 22.4505 25.6611 19.7158C23.4583 18.5341 20.9446 18.4806 17.9759 19.5583C16.4548 20.1102 15.2017 21.8039 14.7835 23.8752C14.2949 26.2966 15.0164 28.7699 16.7657 30.8244C16.6018 31.4145 16.441 32.0259 16.2924 32.6863C15.9248 34.325 15.6597 36.0341 15.4606 37.7156L15.4621 37.7171ZM23.348 24.1076C22.9267 24.5478 20.6796 27.1343 19.2825 33.3559C17.9514 39.2885 17.9759 46.4808 18.031 48.9496L23.3465 49C23.4062 46.5863 23.6712 39.8129 24.8262 35.4211C25.8786 31.416 27.5008 28.215 28.2912 26.7919L23.348 24.1061V24.1076ZM46.5613 16.0042C43.8592 12.334 39.8029 10.2061 36.5248 9C35.3392 9.02904 34.2516 9.23388 33.4565 9.73681C32.611 10.2703 31.9936 10.7763 31.5295 11.2471C32.9219 12.2254 34.4507 13.4499 36.1127 14.9831C36.4574 15.3011 36.7638 15.6083 37.0701 15.9156C38.7643 16.8083 40.434 18.0098 41.6227 19.6241C43.1714 21.726 43.6846 24.2131 43.1913 27.2291C42.6889 30.3016 40.457 32.5396 36.5539 33.8787C33.9146 34.7836 30.9612 35.0955 28.1472 34.9793C28.0247 35.3798 27.8991 35.7757 27.7888 36.1961C27.4211 37.5948 27.1515 39.2977 26.9524 41.0205C27.703 41.0755 28.4567 41.1183 29.2149 41.1183C31.1021 41.1183 32.9863 40.9349 34.8122 40.6016V48.971H40.9395V38.6633C45.5703 36.4162 48.493 32.7796 49.239 28.212C49.9988 23.5573 49.0981 19.4498 46.5598 16.0027L46.5613 16.0042Z" fill="#A0A0A0"/>
</svg>
