<svg width="58" height="58" viewBox="0 0 58 58" fill="none" xmlns="http://www.w3.org/2000/svg">
<path d="M29 8.72461C17.7758 8.72461 8.72412 17.7763 8.72412 29.0005C8.72412 40.2246 17.7758 49.2763 29 49.2763C40.2241 49.2763 49.2758 40.2246 49.2758 29.0005C49.2758 17.7763 40.2241 8.72461 29 8.72461ZM29 46.235C19.5138 46.235 11.7655 38.4867 11.7655 29.0005C11.7655 19.5143 19.5138 11.766 29 11.766C38.4862 11.766 46.2345 19.5143 46.2345 29.0005C46.2345 38.4867 38.4862 46.235 29 46.235ZM39.6448 18.2832C36.8931 15.5315 33.1276 13.866 28.9276 13.866C24.7276 13.866 20.9621 15.5315 18.2103 18.2832C15.4586 21.035 13.7931 24.8005 13.7931 29.0005C13.7931 33.2005 15.4586 36.966 18.2103 39.7177C20.9621 42.4694 24.7276 44.135 28.9276 44.135C33.1276 44.135 36.8931 42.4694 39.6448 39.7177C42.3965 36.966 44.0621 33.2005 44.0621 29.0005C44.0621 24.8005 42.3965 21.035 39.6448 18.2832ZM26.9 17.1246H31.1V21.3246H26.9V17.1246ZM21.3241 31.1005H17.1241V26.9005H21.3241V31.1005ZM31.1 40.8763H26.9V36.6763H31.1V40.8763ZM32.9827 32.9832H24.9448V24.9453H32.9827V32.9832ZM36.6758 31.1005V26.9005H40.8758V31.1005H36.6758Z" fill="#A0A0A0"/>
</svg>
