<svg width="58" height="58" viewBox="0 0 58 58" fill="none" xmlns="http://www.w3.org/2000/svg">
<path d="M40.0064 27.6321C35.3189 35.5776 31.5712 30.7503 32.0568 27.4916C32.6961 23.1886 34.0146 25.0772 35.4385 18.1383C36.5122 12.9069 32.2946 8 32.2946 8C32.2946 8 32.4127 11.2587 31.9386 12.9489C31.4644 14.6391 29.6845 14.3973 29.0025 16.4495C28.3205 18.5018 29.6845 21.6389 29.6845 21.6389C29.6845 21.6389 29.2104 26.708 25.531 27.0701C21.8531 27.4322 20.8635 22.4833 20.8635 22.4833C20.8621 22.4818 16.4166 30.6344 17.0645 38.2526C17.57 44.1777 21.8659 50 29.1677 50C37.7182 50 40.3524 44.1285 40.8878 38.4033C41.3976 32.9518 40.0064 27.6321 40.0064 27.6321ZM27.1329 43.3464C26.804 43.5434 25.9141 42.3065 22.5323 40.9784C19.0893 39.6271 18.4457 40.2079 18.2051 39.2809C17.9644 38.354 19.9209 36.0483 24.0445 37.627C28.1681 39.2056 27.4618 43.148 27.1329 43.3464ZM39.7985 39.2809C39.5579 40.2079 38.9143 39.6271 35.4713 40.9784C32.0895 42.3065 31.1996 43.5434 30.8707 43.3464C30.5417 43.1494 29.8341 39.2056 33.9591 37.627C38.0827 36.0483 40.0406 38.354 39.7985 39.2809Z" fill="#A0A0A0"/>
</svg>
