<svg width="58" height="58" viewBox="0 0 58 58" fill="none" xmlns="http://www.w3.org/2000/svg">
<path d="M20.9404 26.957C15.2228 29.6684 9.54569 29.6193 8.26053 26.8472C6.97536 24.0751 10.5699 19.6293 16.2875 16.9179C22.0051 14.2064 27.6822 14.2556 28.9674 17.0277C30.2526 19.7998 26.658 24.2456 20.9404 26.957ZM49.9984 44.7288C50.1621 47.496 35.5925 50.7402 24.4539 44.06C19.9648 41.3682 16.2438 37.7404 13.3056 34.2028C12.8923 33.7061 13.2018 32.9307 13.842 32.8733C16.2276 32.6585 18.9097 32.075 21.6648 31.1012C24.6225 30.0537 27.4505 27.5898 29.5216 26.139C29.956 25.8341 30.5426 26.0062 30.7404 26.5029C31.656 28.8094 32.6138 32.2487 34.1064 34.2552C39.4318 41.4092 49.8363 41.9616 50 44.7304L49.9984 44.7288ZM39.9391 41.9321C39.9391 41.8813 39.9164 41.8387 39.8775 41.8076L34.6412 37.5912C34.5553 37.5224 34.4306 37.5552 34.39 37.6585C34.1761 38.1912 33.4031 39.3781 32.4825 40.7551C31.562 42.1321 29.285 43.4256 29.4147 43.4649L37.4871 45.8222C37.5195 45.8321 37.5535 45.8337 37.5843 45.8222C37.7188 45.7665 38.1207 45.219 38.97 44.0272C39.8321 42.819 39.931 42.1485 39.9375 41.9338L39.9391 41.9321ZM46.3293 36.9421C46.3293 36.9421 45.305 28.8111 45.856 24.3062C46.407 19.7998 48.6921 13.9245 48.6921 13.9245C48.6921 13.9245 46.4265 14.9835 44.3699 16.8621C42.3133 18.7408 41.1027 21.0637 41.1027 21.0637C41.1027 21.0637 40.1044 19.685 40.2729 15.7687C40.4528 11.5786 41.6002 8 41.6002 8L34.51 14.2376C34.51 14.2376 34.3641 15.8638 34.6672 19.1145C35.8519 31.8077 46.3276 36.9437 46.3276 36.9437L46.3293 36.9421Z" fill="#A0A0A0"/>
</svg>
