<svg width="58" height="58" viewBox="0 0 58 58" fill="none" xmlns="http://www.w3.org/2000/svg">
<path d="M32.1919 44.5929C32.1919 44.5929 25.13 49.0371 17.7446 45.8481C11.7678 43.2681 9.39628 39.3433 8.62229 37.6784C8.52012 37.4682 8.42879 37.2503 8.34984 37.0261C8.31734 36.9349 8.30186 36.8854 8.30186 36.8854C8.10681 36.2795 8 35.6333 8 34.9609C8 31.6096 10.6223 28.8936 13.856 28.8936C17.0898 28.8936 19.7121 31.6096 19.7121 34.9609C19.7121 36.0445 19.4365 37.0601 18.9566 37.9397C19.5542 38.8332 20.5 40.0281 21.9984 41.5584C25.9334 45.5776 32.1888 44.5929 32.1888 44.5929H32.1919ZM49.9938 32.0656C49.5665 21.5679 39.9644 23.0164 39.9644 23.0164C39.9644 23.0148 40.2213 10.809 29.9984 11.0023C20.774 11.1769 18.7322 21.7333 20.0975 26.6212C22.1935 34.1246 26.4365 34.2576 28.1269 34.0921C30.1052 33.8989 31.6981 31.4673 31.2554 29.3264C30.8684 27.459 28.7508 26.3692 27.4458 27.1391C26.0309 27.9738 26.7833 30.325 26.7833 30.325C26.7833 30.325 26.3328 30.5646 25.1935 29.4794C24.0542 28.3958 23.5588 26.9752 23.5588 26.9752C23.5588 26.9752 24.8374 24.1417 29.0634 24.1835C33.3885 24.2267 37.421 28.5844 36.2229 33.0936C34.9721 37.7959 28.4613 39.1269 28.4613 39.1269C28.4613 39.1269 34.4798 42.1072 40.3823 41.4672C45.4876 40.9138 50.2182 37.6027 49.9922 32.064L49.9938 32.0656Z" fill="#A0A0A0"/>
</svg>
