<svg width="58" height="58" viewBox="0 0 58 58" fill="none" xmlns="http://www.w3.org/2000/svg">
<path d="M26.4406 10.4263H16.2609L10.1174 19.146L8 39.2586L15.3819 27.1684H26.2635L30.2996 19.146L26.4389 10.4263H26.4406ZM20.9344 23.2584C18.6482 23.2584 16.7957 21.4177 16.7957 19.146C16.7957 16.8744 18.6482 15.0337 20.9344 15.0337C23.2207 15.0337 25.0732 16.8744 25.0732 19.146C25.0732 21.4177 23.2207 23.2584 20.9344 23.2584ZM45.0583 37.617L50 28.5353L45.103 18.8236L28.9702 8L35.2975 19.628L30.0165 29.3347L35.3058 36.829L45.0583 37.617ZM36.213 26.517C37.299 24.52 39.8104 23.7749 41.8202 24.8556C43.83 25.9363 44.5799 28.43 43.4922 30.427C42.4046 32.4239 39.8948 33.1691 37.8834 32.0884C35.872 31.0076 35.1253 28.5139 36.213 26.517ZM11.2481 38.8293L15.9861 48.3271L27.0862 50L46.6923 41.9744L32.2166 41.3526L27.1508 31.2001L17.6913 31.1672L11.2481 38.8293ZM25.7585 38.0825C26.7734 40.1173 25.9357 42.583 23.8895 43.5913C21.8433 44.5997 19.36 43.769 18.3436 41.7342C17.3271 39.6994 18.1648 37.2337 20.2126 36.2237C22.2605 35.2137 24.7421 36.0477 25.7569 38.0808L25.7585 38.0825Z" fill="#A0A0A0"/>
</svg>
