<svg width="58" height="58" viewBox="0 0 58 58" fill="none" xmlns="http://www.w3.org/2000/svg">
<path d="M35.1252 18.6117C33.3284 17.5478 31.236 16.9331 28.9979 16.9331L39.4438 35.0271C40.4722 33.254 41.0633 31.1932 41.0633 28.9984C41.0633 28.963 41.0633 28.9275 41.0633 28.892C41.0239 24.5183 38.6478 20.6922 35.1252 18.6078V18.6117Z" fill="#A0A0A0"/>
<path d="M16.9367 28.8959C16.9367 28.9314 16.9367 28.9668 16.9367 29.0023C16.9367 31.197 17.5278 33.2539 18.5562 35.031L29.002 16.937C26.7679 16.937 24.6716 17.5517 22.8748 18.6156C19.3522 20.7 16.9761 24.5261 16.9367 28.8998V28.8959Z" fill="#A0A0A0"/>
<path d="M28.9981 8C17.4213 8 8 17.4213 8 28.9981C8 32.8162 9.02843 36.398 10.8173 39.4872C11.6369 40.8978 12.6102 42.2061 13.7253 43.3882L16.0856 39.302C15.0099 37.9584 14.139 36.4453 13.5244 34.8061C12.8427 32.9975 12.4683 31.0431 12.4683 28.9981C12.4683 20.8061 18.4616 13.9893 26.291 12.689C27.1737 12.5432 28.076 12.4644 29.002 12.4644C29.928 12.4644 30.8303 12.5432 31.7129 12.689C39.5463 13.9854 45.5355 20.8022 45.5355 28.9981C45.5355 31.0431 45.1613 32.9975 44.4795 34.8061C43.861 36.4453 42.9942 37.9584 41.9183 39.302L44.2786 43.3882C45.3898 42.2101 46.3669 40.9018 47.1864 39.4872C48.9755 36.398 50.004 32.8162 50.004 28.9981C50 17.4213 40.5786 8 28.9981 8Z" fill="#A0A0A0"/>
<path d="M28.998 25.8653L22.0355 37.9266C18.9699 43.2383 22.7329 49.9604 28.868 49.9998C28.9113 49.9998 28.9547 49.9998 28.998 49.9998C29.0414 49.9998 29.0847 49.9998 29.1281 49.9998C35.2632 49.9604 39.0262 43.2383 35.9606 37.9266L28.998 25.8653Z" fill="#A0A0A0"/>
</svg>
