<svg width="58" height="58" viewBox="0 0 58 58" fill="none" xmlns="http://www.w3.org/2000/svg">
<path d="M39.7264 37.8637C37.0717 44.3068 29.0014 49 29.0014 49C29.0014 49 20.9311 44.3068 18.2764 37.8637C16.8012 34.2849 16.2157 30.6025 18.8563 28.6298C23.9904 24.795 29.0014 34.2849 29.0014 34.2849C29.0014 34.2849 34.0124 24.7964 39.1465 28.6298C41.7871 30.6025 41.2016 34.2849 39.7264 37.8637ZM17.1209 26.6527C19.4432 24.608 21.6001 24.5261 23.6127 25.4161C23.6127 25.4161 21.883 21.3024 21.6468 17.8472C21.4106 14.392 22.5661 9 22.5661 9C22.5661 9 17.1209 10.2955 15.4548 16.8867C14.4817 20.7344 14.5241 24.9546 14.5241 24.9546C14.5241 24.9546 12.2456 24.0329 11.3815 22.5375C10.5173 21.0407 9.96711 17.8472 9.96711 17.8472C9.96711 17.8486 8.08037 19.5022 8.08037 24.5563C8.08037 29.6104 11.8468 34.7047 11.8468 34.7047C11.8468 34.7047 10.5357 34.7177 8.00117 33.9024C8.00117 33.9024 7.84559 36.3885 11.124 39.1147C14.4039 41.8409 17.937 41.6309 17.937 41.6309C17.2227 40.4821 16.7008 39.7416 16.1209 38.5223C14.0701 34.2029 14.3473 29.0927 17.1195 26.6541L17.1209 26.6527ZM49.9988 33.9024C47.4643 34.7177 46.1532 34.7047 46.1532 34.7047C46.1532 34.7047 49.9196 29.6118 49.9196 24.5563C49.9196 19.5007 48.0343 17.8486 48.0343 17.8486C48.0343 17.8486 47.4841 21.0421 46.6199 22.5389C45.7558 24.0358 43.4772 24.956 43.4772 24.956C43.4772 24.956 43.5197 20.7359 42.5466 16.8881C40.8805 10.297 35.4353 9.00144 35.4353 9.00144C35.4353 9.00144 36.5894 14.3934 36.3546 17.8486C36.1184 21.3038 34.3886 25.4176 34.3886 25.4176C36.4027 24.5261 38.5581 24.6095 40.8805 26.6541C43.6526 29.0927 43.9298 34.2029 41.879 38.5223C41.3006 39.7416 40.7773 40.4821 40.063 41.6309C40.063 41.6309 43.596 41.8409 46.8759 39.1147C50.1558 36.3885 49.9988 33.9024 49.9988 33.9024Z" fill="#A0A0A0"/>
</svg>
