<svg width="58" height="58" viewBox="0 0 58 58" fill="none" xmlns="http://www.w3.org/2000/svg">
<path d="M19.7757 35.7322C24.6484 42.0936 27.2193 48.4549 26.7081 48.9609C26.197 49.4669 22.1194 44.7128 19.4283 42.6905C17.8981 41.5413 14.487 41.0386 12.2586 40.2101C10.5665 39.5801 9.773 38.621 9.75295 37.867C9.70618 36.1208 14.4202 34.9749 14.4202 34.9749C14.4202 34.9765 8.36146 32.3556 8.01233 25.6735C7.69662 19.6181 13.4881 13.9612 20.053 16.6482C26.6179 19.3353 25.8996 25.1923 21.4445 26.4325C15.4392 28.1043 15.3891 21.609 15.3891 21.609C15.3891 21.609 12.0081 22.3498 12.3956 26.1563C12.9068 31.1634 14.9013 29.3709 19.774 35.7339L19.7757 35.7322ZM43.5814 34.9765C43.5814 34.9765 49.6402 32.3556 49.9877 25.6735C50.3034 19.6181 44.5119 13.9612 37.947 16.6482C31.3804 19.3353 32.1004 25.1923 36.5555 26.4325C42.5608 28.1043 42.6109 21.609 42.6109 21.609C42.6109 21.609 45.9919 22.3498 45.6044 26.1563C45.0932 31.1634 43.0987 29.3709 38.226 35.7339C33.3532 42.0952 30.7824 48.4566 31.2935 48.9626C31.8047 49.4685 35.8823 44.7145 38.5734 42.6922C40.1035 41.5429 43.5146 41.0402 45.743 40.2118C47.4352 39.5818 48.2287 38.6227 48.2487 37.8687C48.2955 36.1225 43.5814 34.9765 43.5814 34.9765ZM34.2018 32.1688C34.2018 32.1688 32.8922 31.008 31.6009 29.8058C30.0557 28.3672 29 26.4308 29 26.4308C29 26.4308 27.9459 28.3688 26.3991 29.8058C25.1078 31.008 23.7982 32.1688 23.7982 32.1688C23.7982 32.1688 25.0861 33.5396 26.1335 34.6773C27.4565 36.1142 29 38.9782 29 38.9782C29 38.9782 30.5435 36.1142 31.8665 34.6773C32.9156 33.5379 34.2018 32.1688 34.2018 32.1688ZM33.6355 12.5887L29 8L24.3645 12.5887L29 17.1774L33.6355 12.5887Z" fill="#A0A0A0"/>
</svg>
