<svg width="58" height="58" viewBox="0 0 58 58" fill="none" xmlns="http://www.w3.org/2000/svg">
<path d="M41.5078 28.5699C39.1239 30.3169 38.0351 34.2493 28.6228 34.2493C19.2104 34.2493 18.212 28.1089 14.9651 27.2751C11.5134 26.3874 8 28.7017 8 29.6522C8 30.6028 8.97436 29.9396 10.9487 31.6252C12.9245 33.3107 10.3162 49 27.3261 49C39.3106 49 42.4822 43.3551 42.4822 43.3551C42.4822 43.3551 50 43.8566 50 34.9154C50 26.8694 44.2065 26.5955 41.5078 28.5714V28.5699ZM45.214 39.4182C44.4415 39.4182 42.3873 35.0771 42.2729 34.4559C42.1599 33.8361 41.7759 31.2719 44.5363 31.2719C46.2757 31.2719 46.8194 33.0817 46.8194 34.2523C46.8194 36.5725 45.9836 39.4182 45.2125 39.4182H45.214ZM29.5851 19.4222C29.6589 19.0704 29.6769 18.7321 29.6784 18.4552C29.3622 17.8639 29.2658 17.1948 29.4781 16.5571C29.9345 15.1949 31.5925 14.5153 33.1843 15.0422C34.7746 15.5676 35.6948 17.099 35.24 18.4612C35.0307 19.0854 34.5638 19.5554 33.9735 19.8429L34.0111 19.8593C34.0111 19.8593 33.7732 20.2889 33.7039 20.7754C33.6753 20.9775 33.7506 21.3203 33.847 21.6541C36.8002 23.1945 38.5742 25.2692 38.0863 26.9577C37.4252 29.2406 32.8816 29.9471 27.936 28.5325C22.9904 27.1194 19.5177 24.1226 20.1788 21.8383C20.7977 19.7006 24.8187 18.9462 29.3863 20.018C29.4736 19.8084 29.5474 19.6018 29.5866 19.4207L29.5851 19.4222ZM10.1671 23.7438C10.1671 23.7438 8.82678 22.0897 8.98189 20.4192C9.35839 16.367 14.7754 16.1574 16.6789 14.2653C18.1051 12.8477 17.7662 11.1262 17.0343 10.4766C16.7211 10.1982 15.5826 9.99008 15.5826 9.99008C15.5826 9.99008 20.2962 6.73875 21.9905 12.0199C24.3714 19.4402 14.6775 19.3743 12.4562 20.7186C10.2349 22.0628 10.1656 23.7438 10.1656 23.7438H10.1671Z" fill="#A0A0A0"/>
</svg>
