<svg width="58" height="58" viewBox="0 0 58 58" fill="none" xmlns="http://www.w3.org/2000/svg">
<path d="M34.5101 32.5349C41.049 33.5106 49 39.3538 49 39.3538C49 39.3538 47.6339 28.526 40.4273 20.0528C33.2207 11.578 21.0808 8 21.0808 8L22.1353 11.2379L22.2796 24.3648L17.8758 16.9565L10 21.7394L26.7478 50H37.4188L37.4894 49.9569L27.0026 32.3117C28.688 32.1163 31.2023 32.0409 34.5085 32.5333L34.5101 32.5349ZM26.8998 15.4145C26.8998 15.4145 30.0864 16.1408 34.3934 19.2187C38.7005 22.2965 41.887 29.2647 41.887 29.2647C41.887 29.2647 37.362 26.016 34.5316 24.7972C31.7011 23.5784 26.8998 23.6769 26.8998 23.6769V15.4145Z" fill="#A0A0A0"/>
</svg>
