<svg width="58" height="58" viewBox="0 0 58 58" fill="none" xmlns="http://www.w3.org/2000/svg">
<path d="M14 14.8457H24.3117C25.0113 13.6592 26.3604 11.8279 28.2675 11.2377C27.6594 10.824 27.2579 10.1167 27.2579 9.31051C27.2579 8.03433 28.2616 7 29.5 7C30.7384 7 31.7406 8.03433 31.7406 9.31051C31.7406 10.1167 31.3377 10.8255 30.731 11.2377C32.6381 11.8264 33.9872 13.6592 34.6868 14.8457H44.9985L43.5225 18.2681H15.476L14 14.8457ZM15.476 39.7319L14 43.1543H24.3117C25.0113 44.3408 26.3604 46.1721 28.2675 46.7623C27.6594 47.176 27.2579 47.8833 27.2579 48.6895C27.2579 49.9657 28.2616 51 29.5 51C30.7384 51 31.7421 49.9657 31.7421 48.6895C31.7421 47.8833 31.3392 47.1745 30.7325 46.7623C32.6396 46.1736 33.9887 44.3408 34.6883 43.1543H45L43.524 39.7319H15.476ZM41.3881 30.4367V21.3102H17.6089V30.4367H24.9065V33.6476H17.6901V36.6898H27.8586V27.3945H20.561V24.3524H38.4375V27.3945H31.1399V36.6898H41.3084V33.6476H34.092V30.4367H41.3881Z" fill="#A0A0A0"/>
</svg>
