<svg width="58" height="58" viewBox="0 0 58 58" fill="none" xmlns="http://www.w3.org/2000/svg">
<path d="M47.7552 26.6103H45.2207C44.1345 19.4414 38.4862 13.7931 31.3897 12.7793V10.2448C31.3897 9.01379 30.3034 8 29 8C27.6966 8 26.6103 9.01379 26.6103 10.2448V12.7793C19.5138 13.8655 13.8655 19.5138 12.7793 26.6103H10.2448C9.01379 26.6103 8 27.6966 8 29C8 30.3034 9.01379 31.3897 10.2448 31.3897H12.7793C13.7931 38.5586 19.4414 44.2069 26.6103 45.2207V47.7552C26.6103 48.9862 27.6966 50 29 50C30.3034 50 31.3897 48.9862 31.3897 47.7552V45.2207C38.5586 44.2069 44.2069 38.5586 45.2207 31.3897H47.7552C48.9862 31.3897 50 30.3034 50 29C50 27.6966 48.9862 26.6103 47.7552 26.6103ZM31.3897 40.8034V35.4448L29 31.8241L26.6103 35.4448V40.8034C21.9034 39.8621 18.1379 36.0966 17.1966 31.3897H22.5552L26.1759 29L22.5552 26.6103H17.1966C18.1379 21.9034 21.9034 18.1379 26.6103 17.1966V22.5552L29 26.1759L31.3897 22.5552V17.1966C36.0966 18.1379 39.8621 21.9034 40.8034 26.6103H35.4448L31.8241 29L35.4448 31.3897H40.8034C39.8621 36.0966 36.0966 39.8621 31.3897 40.8034Z" fill="#A0A0A0"/>
</svg>
