<svg width="58" height="58" viewBox="0 0 58 58" fill="none" xmlns="http://www.w3.org/2000/svg">
<path d="M45.755 25.4561C45.4893 23.6417 44.9312 21.9233 44.1164 20.3523C44.906 19.5661 45.3943 18.4819 45.3943 17.2841C45.3943 14.8871 43.438 12.9429 41.0261 12.9429C39.953 12.9429 38.9823 13.3427 38.2223 13.9799C36.8212 13.1037 35.282 12.437 33.6404 12.0121C33.0734 10.2686 31.4451 9 29.5022 9C27.5593 9 25.9311 10.2686 25.3641 12.0121C23.7225 12.437 22.1818 13.1037 20.7807 13.9799C20.0207 13.3412 19.05 12.9429 17.9769 12.9429C15.5649 12.9429 13.6087 14.8871 13.6087 17.2841C13.6087 18.4819 14.097 19.5675 14.8866 20.3523C14.0718 21.9233 13.5137 23.6417 13.248 25.4561C10.79 26.2408 9 28.5036 9 31.206C9 34.5559 11.7325 37.2716 15.1033 37.2716C15.4269 37.2716 15.7371 37.2258 16.0473 37.1772C17.6681 39.468 19.8649 41.3192 22.4267 42.5391C22.7547 46.1546 25.7767 49 29.5007 49C33.2248 49 36.2482 46.156 36.5748 42.5391C39.1366 41.3192 41.3333 39.468 42.9527 37.1772C43.2629 37.2258 43.5731 37.2716 43.8967 37.2716C47.2675 37.2716 50 34.5559 50 31.206C50 28.5036 48.21 26.2394 45.752 25.4561H45.755ZM36.1696 39.4326C35.1573 36.7391 32.5658 34.8126 29.5022 34.8126C26.4387 34.8126 23.8486 36.7391 22.8349 39.4326C21.2838 38.5505 19.9287 37.3704 18.8422 35.9705C20.273 34.8598 21.2081 33.1502 21.2081 31.206C21.2081 28.2558 19.0871 25.8027 16.2789 25.257C16.5327 23.9559 16.9765 22.7228 17.5806 21.5855C17.7127 21.5973 17.8418 21.6253 17.9784 21.6253C20.3903 21.6253 22.3466 19.6811 22.3466 17.2841C22.3466 17.026 22.3139 16.7752 22.2694 16.5289C23.2594 15.899 24.3325 15.3857 25.4754 15.0287C26.1389 16.5879 27.6914 17.6824 29.5007 17.6824C31.3101 17.6824 32.8641 16.5879 33.5261 15.0287C34.6705 15.3857 35.7421 15.899 36.7321 16.5289C36.6891 16.7752 36.6549 17.0245 36.6549 17.2841C36.6549 19.6811 38.6112 21.6253 41.0231 21.6253C41.1597 21.6253 41.2873 21.5973 41.4194 21.5855C42.0235 22.7228 42.4673 23.9559 42.7211 25.257C39.9129 25.8013 37.7919 28.2558 37.7919 31.206C37.7919 33.1502 38.7285 34.8598 40.1578 35.9705C39.0713 37.3704 37.7162 38.549 36.1651 39.4326H36.1696Z" fill="#A0A0A0"/>
</svg>
