<svg width="58" height="58" viewBox="0 0 58 58" fill="none" xmlns="http://www.w3.org/2000/svg">
<path d="M48.9702 39.8778V17.8186C48.9702 17.8186 47.5397 10.743 39.4554 11.013C29.4988 11.3453 23.3822 19.1925 22.4874 20.4658V42.0154L22.0051 42.4835C21.366 43.1065 19.9258 43.9596 18.0228 43.9596C17.5212 43.9596 16.9872 43.9005 16.4273 43.7615C12.6603 42.8333 12.1441 39.2931 12.3965 37.5502C12.5227 36.6763 13.348 36.0676 14.2266 36.1954C15.1118 36.32 15.7267 37.1284 15.5988 38.0023C15.5551 38.3569 15.4144 40.2181 17.2105 40.6622C18.1232 40.8859 18.819 40.707 19.251 40.5057V11.4252C18.7009 9.45538 16.8901 8 14.7202 8C12.1133 8 10 10.0864 10 12.6601V37.7403C10 42.5026 13.9095 46.3623 18.7332 46.3623H19.5455C22.3239 46.3623 24.7706 45.0571 26.3709 43.0602L26.3774 43.1081C26.3774 43.1081 32.0782 36.7785 40.6108 36.7242C45.3924 36.6939 45.7063 40.8587 45.6481 42.4787C45.4863 43.7599 45.1173 45.1706 44.3196 46.0205C43.8163 46.5556 43.195 46.8049 42.3632 46.8049C39.6577 46.8049 39.6577 45.5348 39.6577 44.8526C39.6577 43.3461 40.5072 43.0011 41.0169 42.9292C41.8923 42.8317 42.5315 42.0585 42.4458 41.1894C42.36 40.3108 41.5736 39.6701 40.6803 39.7516C39.2062 39.8922 36.4213 41.1383 36.4213 44.8526C36.4213 48.0765 38.6431 50 42.3632 50C44.0882 50 45.5882 49.3722 46.6999 48.1868C48.2129 46.5716 48.7485 44.228 48.9233 42.4211L48.9718 42.4116V41.7853C49.0252 40.8507 48.9896 40.1462 48.9718 39.8826L48.9702 39.8778ZM32.6462 33.7096C32.6462 34.5915 31.9212 35.3072 31.028 35.3072C30.1348 35.3072 29.4098 34.5915 29.4098 33.7096V19.2133C29.4098 18.3315 30.1348 17.6157 31.028 17.6157C31.9212 17.6157 32.6462 18.3315 32.6462 19.2133V33.7096ZM42.6254 30.5145C42.6254 31.3963 41.9004 32.1121 41.0072 32.1121C40.114 32.1121 39.389 31.3963 39.389 30.5145V16.0182C39.389 15.1363 40.114 14.4206 41.0072 14.4206C41.9004 14.4206 42.6254 15.1363 42.6254 16.0182V30.5145Z" fill="#A0A0A0"/>
</svg>
