<svg width="58" height="58" viewBox="0 0 58 58" fill="none" xmlns="http://www.w3.org/2000/svg">
<path d="M44.6891 35.832L37.6637 21.0288C36.5709 18.6791 34.7755 14.6062 32.6679 12.3348C32.5118 12.1782 32.4337 12.0215 32.2776 11.9432C28.2966 7.55706 19.71 5.59896 16.8999 8.10533C14.1678 10.5334 15.1045 19.0707 18.8513 23.6135C20.2564 25.3366 21.7396 27.2947 23.5349 28.6262L28.843 32.4641C28.2966 32.6207 27.7501 32.8557 27.2037 33.0124L22.286 34.5788L17.3682 36.2236L14.0117 37.3202C13.0749 37.6335 12.4505 38.8083 13.6994 39.5133L16.4315 41.0797C17.9146 41.9413 19.3197 42.8029 20.8028 43.5861L25.1742 46.0925C28.1404 47.7373 31.0286 49.3037 34.073 50.9486C34.2291 51.0269 34.4633 51.0269 34.6194 50.8702C34.7755 50.7136 34.7755 50.4003 34.6194 50.1653C32.1215 47.8939 29.6236 45.6225 27.1257 43.3511L24.2375 40.6881L28.843 39.9832C30.5603 39.7482 32.1995 39.4349 33.9168 39.2L39.0688 38.5734L43.6743 38.0251C45.1574 37.8684 45.2355 37.0069 44.6891 35.832ZM30.4042 26.8248L22.7543 20.8721C21.7396 20.0106 21.8176 19.9323 20.8809 18.6791C19.3197 16.6426 18.8513 12.8048 20.1784 11.6299C21.5054 10.4551 25.1742 11.4733 27.0476 13.1964C28.1404 14.2146 28.843 15.3111 29.1552 15.9377L32.5898 22.4386L27.7501 20.3239L30.4042 26.8248Z" fill="#A0A0A0"/>
</svg>
