<svg width="58" height="58" viewBox="0 0 58 58" fill="none" xmlns="http://www.w3.org/2000/svg">
<path d="M49.6083 24.9952C47.5224 28.1241 43.964 30.1872 39.9213 30.1872C33.4936 30.1872 28.2835 24.977 28.2835 18.5493C28.2835 14.326 30.5409 10.64 33.9065 8.59965C32.3307 8.22164 30.6927 8 29.0015 8C17.4016 8 8 17.4016 8 29C8 40.5984 17.4016 50 29 50C40.5984 50 50 40.5984 50 29C50 27.6291 49.8588 26.2917 49.6083 24.9952ZM29.7317 43.8744C18.7239 43.8744 15.3173 36.1427 15.3173 36.1427C20.9965 38.2832 25.1015 38.0206 25.1015 38.0206C25.1015 38.0206 17.8692 33.3828 17.0646 25.44C16.301 17.9102 21.8694 14.1271 21.8694 14.1271C21.8694 14.1271 20.995 25.4841 27.198 31.2073C33.401 36.9291 43.296 35.3669 43.296 35.3669C43.296 35.3669 40.7395 43.8744 29.7317 43.8744Z" fill="#A0A0A0"/>
</svg>
