<svg width="58" height="58" viewBox="0 0 58 58" fill="none" xmlns="http://www.w3.org/2000/svg">
<path d="M17.7091 25.6609C16.2301 24.6524 14.6605 24.1728 14.6605 24.1728L21.072 19.4255L29 23.77L36.928 19.4255L43.3395 24.1728C43.3395 24.1728 41.7699 24.6524 40.2909 25.6609C39.6577 26.0929 38.5336 27.3704 38.5336 27.3704V30.2668L29.0016 35.154L19.4695 30.2668V27.3704C19.4695 27.3704 18.3439 26.0929 17.7123 25.6609H17.7091ZM38.0849 13.6728L29 8L19.9151 13.6728L29 19.2241L38.0849 13.6728ZM40.2252 33.4398L29 39.6199L17.7748 33.4398L10 37.689L16.9446 40.4654V44.81L29 50L41.0554 44.81V40.4654L48 37.689L40.2252 33.4398Z" fill="#A0A0A0"/>
</svg>
